G04 start of page 2 for group 0 idx 0 *
G04 Title: (unknown), component *
G04 Creator: pcb 20110918 *
G04 CreationDate: Thu Mar  7 15:00:05 2013 UTC *
G04 For: fosse *
G04 Format: Gerber/RS-274X *
G04 PCB-Dimensions: 100000 200000 *
G04 PCB-Coordinate-Origin: lower left *
%MOIN*%
%FSLAX25Y25*%
%LNTOP*%
%ADD24C,0.0790*%
%ADD23C,0.0320*%
%ADD22C,0.0380*%
%ADD21C,0.0500*%
%ADD20R,0.0740X0.0740*%
%ADD19R,0.1143X0.1143*%
%ADD18C,0.0700*%
%ADD17C,0.2000*%
%ADD16C,0.0800*%
%ADD15C,0.0600*%
%ADD14C,0.0001*%
%ADD13C,0.0250*%
%ADD12C,0.0350*%
%ADD11C,0.0400*%
G54D11*X33500Y92193D02*Y92000D01*
X22000Y80500D01*
Y42000D01*
G54D12*X51807Y110500D02*X50000Y136000D01*
X33500Y110500D02*X40000Y136000D01*
G54D13*X54307Y108000D02*X51807Y110500D01*
G54D12*X72000Y108000D02*X54307D01*
G54D11*X22000Y42000D02*X29500Y34500D01*
X72000Y48000D02*X50500Y61500D01*
X39500Y34500D02*X33500Y61500D01*
G54D14*G36*
X68000Y52000D02*Y44000D01*
X76000D01*
Y52000D01*
X68000D01*
G37*
G36*
X36000Y38000D02*Y31000D01*
X43000D01*
Y38000D01*
X36000D01*
G37*
G54D15*X66000Y34500D03*
G54D16*X40000Y136000D03*
G54D17*X30000Y160000D03*
G54D16*X50000Y136000D03*
G54D17*X70000Y160000D03*
G54D16*X72000Y108000D03*
G54D18*X29500Y34500D03*
G54D14*G36*
X73000Y37500D02*Y31500D01*
X79000D01*
Y37500D01*
X73000D01*
G37*
G54D19*X33500Y110500D02*Y92193D01*
X51807Y110500D02*Y92193D01*
G54D20*X33500Y67900D02*Y61500D01*
X50500Y67900D02*Y61500D01*
G54D15*X33500Y67900D03*
X50500Y61500D03*
X33500Y92193D03*
X51807Y110500D03*
G54D12*G54D21*G54D22*G54D23*G54D24*G54D23*G54D24*G54D21*G54D22*M02*
