G04 start of page 10 for group -3984 idx -3984 *
G04 Title: (unknown), fab *
G04 Creator: pcb 20110918 *
G04 CreationDate: Thu Mar  7 19:43:21 2013 UTC *
G04 For: fosse *
G04 Format: Gerber/RS-274X *
G04 PCB-Dimensions: 100000 200000 *
G04 PCB-Coordinate-Origin: lower left *
%MOIN*%
%FSLAX25Y25*%
%LNFAB*%
%ADD166C,0.0100*%
%ADD165C,0.0060*%
%ADD164R,0.0080X0.0080*%
G54D164*X29400Y159100D02*X32600D01*
X29400D02*Y155900D01*
X32600D01*
Y159100D02*Y155900D01*
X69400Y159100D02*X72600D01*
X69400D02*Y155900D01*
X72600D01*
Y159100D02*Y155900D01*
X13400Y212850D02*X16600D01*
X13400D02*Y209650D01*
X16600D01*
Y212850D02*Y209650D01*
G54D165*X135000Y213500D02*Y212750D01*
X136500Y211250D01*
X138000Y212750D01*
Y213500D02*Y212750D01*
X136500Y211250D02*Y207500D01*
X139800Y210500D02*X142050D01*
X139800Y207500D02*X142800D01*
X139800Y213500D02*Y207500D01*
Y213500D02*X142800D01*
X147600D02*X148350Y212750D01*
X145350Y213500D02*X147600D01*
X144600Y212750D02*X145350Y213500D01*
X144600Y212750D02*Y211250D01*
X145350Y210500D01*
X147600D01*
X148350Y209750D01*
Y208250D01*
X147600Y207500D02*X148350Y208250D01*
X145350Y207500D02*X147600D01*
X144600Y208250D02*X145350Y207500D01*
X98000Y212750D02*X98750Y213500D01*
X101000D01*
X101750Y212750D01*
Y211250D01*
X98000Y207500D02*X101750Y211250D01*
X98000Y207500D02*X101750D01*
X45000Y208250D02*X45750Y207500D01*
X45000Y212750D02*Y208250D01*
Y212750D02*X45750Y213500D01*
X47250D01*
X48000Y212750D01*
Y208250D01*
X47250Y207500D02*X48000Y208250D01*
X45750Y207500D02*X47250D01*
X45000Y209000D02*X48000Y212000D01*
X49800Y207500D02*X50550D01*
X52350Y208250D02*X53100Y207500D01*
X52350Y212750D02*Y208250D01*
Y212750D02*X53100Y213500D01*
X54600D01*
X55350Y212750D01*
Y208250D01*
X54600Y207500D02*X55350Y208250D01*
X53100Y207500D02*X54600D01*
X52350Y209000D02*X55350Y212000D01*
X57150Y207500D02*X60900Y211250D01*
Y213500D02*Y211250D01*
X57150Y213500D02*X60900D01*
X62700Y207500D02*X65700Y210500D01*
Y212750D02*Y210500D01*
X64950Y213500D02*X65700Y212750D01*
X63450Y213500D02*X64950D01*
X62700Y212750D02*X63450Y213500D01*
X62700Y212750D02*Y211250D01*
X63450Y210500D01*
X65700D01*
X71200Y48000D02*G75*G03X72800Y48000I800J0D01*G01*
G75*G03X71200Y48000I-800J0D01*G01*
Y108000D02*G75*G03X72800Y108000I800J0D01*G01*
G75*G03X71200Y108000I-800J0D01*G01*
X14200Y226250D02*G75*G03X15800Y226250I800J0D01*G01*
G75*G03X14200Y226250I-800J0D01*G01*
X135000Y228500D02*Y227750D01*
X136500Y226250D01*
X138000Y227750D01*
Y228500D02*Y227750D01*
X136500Y226250D02*Y222500D01*
X139800Y225500D02*X142050D01*
X139800Y222500D02*X142800D01*
X139800Y228500D02*Y222500D01*
Y228500D02*X142800D01*
X147600D02*X148350Y227750D01*
X145350Y228500D02*X147600D01*
X144600Y227750D02*X145350Y228500D01*
X144600Y227750D02*Y226250D01*
X145350Y225500D01*
X147600D01*
X148350Y224750D01*
Y223250D01*
X147600Y222500D02*X148350Y223250D01*
X145350Y222500D02*X147600D01*
X144600Y223250D02*X145350Y222500D01*
X98000Y227750D02*X98750Y228500D01*
X101000D01*
X101750Y227750D01*
Y226250D01*
X98000Y222500D02*X101750Y226250D01*
X98000Y222500D02*X101750D01*
X45000Y223250D02*X45750Y222500D01*
X45000Y227750D02*Y223250D01*
Y227750D02*X45750Y228500D01*
X47250D01*
X48000Y227750D01*
Y223250D01*
X47250Y222500D02*X48000Y223250D01*
X45750Y222500D02*X47250D01*
X45000Y224000D02*X48000Y227000D01*
X49800Y222500D02*X50550D01*
X52350Y223250D02*X53100Y222500D01*
X52350Y227750D02*Y223250D01*
Y227750D02*X53100Y228500D01*
X54600D01*
X55350Y227750D01*
Y223250D01*
X54600Y222500D02*X55350Y223250D01*
X53100Y222500D02*X54600D01*
X52350Y224000D02*X55350Y227000D01*
X57150Y228500D02*X60150D01*
X57150D02*Y225500D01*
X57900Y226250D01*
X59400D01*
X60150Y225500D01*
Y223250D01*
X59400Y222500D02*X60150Y223250D01*
X57900Y222500D02*X59400D01*
X57150Y223250D02*X57900Y222500D01*
X61950Y223250D02*X62700Y222500D01*
X61950Y227750D02*Y223250D01*
Y227750D02*X62700Y228500D01*
X64200D01*
X64950Y227750D01*
Y223250D01*
X64200Y222500D02*X64950Y223250D01*
X62700Y222500D02*X64200D01*
X61950Y224000D02*X64950Y227000D01*
X38300Y35700D02*X40700Y33300D01*
X38300D02*X40700Y35700D01*
X28300D02*X30700Y33300D01*
X28300D02*X30700Y35700D01*
X74800D02*X77200Y33300D01*
X74800D02*X77200Y35700D01*
X64800D02*X67200Y33300D01*
X64800D02*X67200Y35700D01*
X13800Y242450D02*X16200Y240050D01*
X13800D02*X16200Y242450D01*
X135000Y243500D02*Y242750D01*
X136500Y241250D01*
X138000Y242750D01*
Y243500D02*Y242750D01*
X136500Y241250D02*Y237500D01*
X139800Y240500D02*X142050D01*
X139800Y237500D02*X142800D01*
X139800Y243500D02*Y237500D01*
Y243500D02*X142800D01*
X147600D02*X148350Y242750D01*
X145350Y243500D02*X147600D01*
X144600Y242750D02*X145350Y243500D01*
X144600Y242750D02*Y241250D01*
X145350Y240500D01*
X147600D01*
X148350Y239750D01*
Y238250D01*
X147600Y237500D02*X148350Y238250D01*
X145350Y237500D02*X147600D01*
X144600Y238250D02*X145350Y237500D01*
X98000Y240500D02*X101000Y243500D01*
X98000Y240500D02*X101750D01*
X101000Y243500D02*Y237500D01*
X45000Y238250D02*X45750Y237500D01*
X45000Y242750D02*Y238250D01*
Y242750D02*X45750Y243500D01*
X47250D01*
X48000Y242750D01*
Y238250D01*
X47250Y237500D02*X48000Y238250D01*
X45750Y237500D02*X47250D01*
X45000Y239000D02*X48000Y242000D01*
X49800Y237500D02*X50550D01*
X52350Y238250D02*X53100Y237500D01*
X52350Y242750D02*Y238250D01*
Y242750D02*X53100Y243500D01*
X54600D01*
X55350Y242750D01*
Y238250D01*
X54600Y237500D02*X55350Y238250D01*
X53100Y237500D02*X54600D01*
X52350Y239000D02*X55350Y242000D01*
X57150Y242750D02*X57900Y243500D01*
X59400D01*
X60150Y242750D01*
Y238250D01*
X59400Y237500D02*X60150Y238250D01*
X57900Y237500D02*X59400D01*
X57150Y238250D02*X57900Y237500D01*
Y240500D02*X60150D01*
X61950Y238250D02*X62700Y237500D01*
X61950Y239750D02*Y238250D01*
Y239750D02*X62700Y240500D01*
X64200D01*
X64950Y239750D01*
Y238250D01*
X64200Y237500D02*X64950Y238250D01*
X62700Y237500D02*X64200D01*
X61950Y241250D02*X62700Y240500D01*
X61950Y242750D02*Y241250D01*
Y242750D02*X62700Y243500D01*
X64200D01*
X64950Y242750D01*
Y241250D01*
X64200Y240500D02*X64950Y241250D01*
X33500Y69500D02*Y66300D01*
X31900Y67900D02*X35100D01*
X50500Y63100D02*Y59900D01*
X48900Y61500D02*X52100D01*
X33500Y93793D02*Y90593D01*
X31900Y92193D02*X35100D01*
X51807Y112100D02*Y108900D01*
X50207Y110500D02*X53407D01*
X15000Y257850D02*Y254650D01*
X13400Y256250D02*X16600D01*
X135000Y258500D02*Y257750D01*
X136500Y256250D01*
X138000Y257750D01*
Y258500D02*Y257750D01*
X136500Y256250D02*Y252500D01*
X139800Y255500D02*X142050D01*
X139800Y252500D02*X142800D01*
X139800Y258500D02*Y252500D01*
Y258500D02*X142800D01*
X147600D02*X148350Y257750D01*
X145350Y258500D02*X147600D01*
X144600Y257750D02*X145350Y258500D01*
X144600Y257750D02*Y256250D01*
X145350Y255500D01*
X147600D01*
X148350Y254750D01*
Y253250D01*
X147600Y252500D02*X148350Y253250D01*
X145350Y252500D02*X147600D01*
X144600Y253250D02*X145350Y252500D01*
X98000Y255500D02*X101000Y258500D01*
X98000Y255500D02*X101750D01*
X101000Y258500D02*Y252500D01*
X45000Y253250D02*X45750Y252500D01*
X45000Y257750D02*Y253250D01*
Y257750D02*X45750Y258500D01*
X47250D01*
X48000Y257750D01*
Y253250D01*
X47250Y252500D02*X48000Y253250D01*
X45750Y252500D02*X47250D01*
X45000Y254000D02*X48000Y257000D01*
X49800Y252500D02*X50550D01*
X52350Y253250D02*X53100Y252500D01*
X52350Y257750D02*Y253250D01*
Y257750D02*X53100Y258500D01*
X54600D01*
X55350Y257750D01*
Y253250D01*
X54600Y252500D02*X55350Y253250D01*
X53100Y252500D02*X54600D01*
X52350Y254000D02*X55350Y257000D01*
X57150Y257750D02*X57900Y258500D01*
X59400D01*
X60150Y257750D01*
Y253250D01*
X59400Y252500D02*X60150Y253250D01*
X57900Y252500D02*X59400D01*
X57150Y253250D02*X57900Y252500D01*
Y255500D02*X60150D01*
X61950Y258500D02*X64950D01*
X61950D02*Y255500D01*
X62700Y256250D01*
X64200D01*
X64950Y255500D01*
Y253250D01*
X64200Y252500D02*X64950Y253250D01*
X62700Y252500D02*X64200D01*
X61950Y253250D02*X62700Y252500D01*
X41000Y137500D02*Y135900D01*
Y137500D02*X42387Y138300D01*
X41000Y137500D02*X39613Y138300D01*
X51000Y137500D02*Y135900D01*
Y137500D02*X52387Y138300D01*
X51000Y137500D02*X49613Y138300D01*
X15000Y271250D02*Y269650D01*
Y271250D02*X16387Y272050D01*
X15000Y271250D02*X13613Y272050D01*
X135000Y273500D02*Y272750D01*
X136500Y271250D01*
X138000Y272750D01*
Y273500D02*Y272750D01*
X136500Y271250D02*Y267500D01*
X139800Y270500D02*X142050D01*
X139800Y267500D02*X142800D01*
X139800Y273500D02*Y267500D01*
Y273500D02*X142800D01*
X147600D02*X148350Y272750D01*
X145350Y273500D02*X147600D01*
X144600Y272750D02*X145350Y273500D01*
X144600Y272750D02*Y271250D01*
X145350Y270500D01*
X147600D01*
X148350Y269750D01*
Y268250D01*
X147600Y267500D02*X148350Y268250D01*
X145350Y267500D02*X147600D01*
X144600Y268250D02*X145350Y267500D01*
X98000Y272750D02*X98750Y273500D01*
X101000D01*
X101750Y272750D01*
Y271250D01*
X98000Y267500D02*X101750Y271250D01*
X98000Y267500D02*X101750D01*
X45000Y268250D02*X45750Y267500D01*
X45000Y272750D02*Y268250D01*
Y272750D02*X45750Y273500D01*
X47250D01*
X48000Y272750D01*
Y268250D01*
X47250Y267500D02*X48000Y268250D01*
X45750Y267500D02*X47250D01*
X45000Y269000D02*X48000Y272000D01*
X49800Y267500D02*X50550D01*
X52350Y268250D02*X53100Y267500D01*
X52350Y272750D02*Y268250D01*
Y272750D02*X53100Y273500D01*
X54600D01*
X55350Y272750D01*
Y268250D01*
X54600Y267500D02*X55350Y268250D01*
X53100Y267500D02*X54600D01*
X52350Y269000D02*X55350Y272000D01*
X57150Y272750D02*X57900Y273500D01*
X59400D01*
X60150Y272750D01*
Y268250D01*
X59400Y267500D02*X60150Y268250D01*
X57900Y267500D02*X59400D01*
X57150Y268250D02*X57900Y267500D01*
Y270500D02*X60150D01*
X61950Y272750D02*X62700Y273500D01*
X64950D01*
X65700Y272750D01*
Y271250D01*
X61950Y267500D02*X65700Y271250D01*
X61950Y267500D02*X65700D01*
X3000Y288500D02*X3750Y287750D01*
X750Y288500D02*X3000D01*
X0Y287750D02*X750Y288500D01*
X0Y287750D02*Y286250D01*
X750Y285500D01*
X3000D01*
X3750Y284750D01*
Y283250D01*
X3000Y282500D02*X3750Y283250D01*
X750Y282500D02*X3000D01*
X0Y283250D02*X750Y282500D01*
X5550Y285500D02*Y283250D01*
X6300Y282500D01*
X8550Y285500D02*Y281000D01*
X7800Y280250D02*X8550Y281000D01*
X6300Y280250D02*X7800D01*
X5550Y281000D02*X6300Y280250D01*
Y282500D02*X7800D01*
X8550Y283250D01*
X11100Y284750D02*Y282500D01*
Y284750D02*X11850Y285500D01*
X12600D01*
X13350Y284750D01*
Y282500D01*
Y284750D02*X14100Y285500D01*
X14850D01*
X15600Y284750D01*
Y282500D01*
X10350Y285500D02*X11100Y284750D01*
X17400Y288500D02*Y282500D01*
Y283250D02*X18150Y282500D01*
X19650D01*
X20400Y283250D01*
Y284750D02*Y283250D01*
X19650Y285500D02*X20400Y284750D01*
X18150Y285500D02*X19650D01*
X17400Y284750D02*X18150Y285500D01*
X22200Y284750D02*Y283250D01*
Y284750D02*X22950Y285500D01*
X24450D01*
X25200Y284750D01*
Y283250D01*
X24450Y282500D02*X25200Y283250D01*
X22950Y282500D02*X24450D01*
X22200Y283250D02*X22950Y282500D01*
X27000Y288500D02*Y283250D01*
X27750Y282500D01*
X0Y279250D02*X29250D01*
X41750Y288500D02*Y282500D01*
X44000Y288500D02*X44750Y287750D01*
Y283250D01*
X44000Y282500D02*X44750Y283250D01*
X41000Y282500D02*X44000D01*
X41000Y288500D02*X44000D01*
X46550Y287000D02*Y286250D01*
Y284750D02*Y282500D01*
X50300Y285500D02*X51050Y284750D01*
X48800Y285500D02*X50300D01*
X48050Y284750D02*X48800Y285500D01*
X48050Y284750D02*Y283250D01*
X48800Y282500D01*
X51050Y285500D02*Y283250D01*
X51800Y282500D01*
X48800D02*X50300D01*
X51050Y283250D01*
X54350Y284750D02*Y282500D01*
Y284750D02*X55100Y285500D01*
X55850D01*
X56600Y284750D01*
Y282500D01*
Y284750D02*X57350Y285500D01*
X58100D01*
X58850Y284750D01*
Y282500D01*
X53600Y285500D02*X54350Y284750D01*
X60650Y282500D02*X61400D01*
X65900Y283250D02*X66650Y282500D01*
X65900Y287750D02*X66650Y288500D01*
X65900Y287750D02*Y283250D01*
X68450Y288500D02*X69950D01*
X69200D02*Y282500D01*
X68450D02*X69950D01*
X72500Y284750D02*Y282500D01*
Y284750D02*X73250Y285500D01*
X74000D01*
X74750Y284750D01*
Y282500D01*
X71750Y285500D02*X72500Y284750D01*
X77300Y285500D02*X79550D01*
X76550Y284750D02*X77300Y285500D01*
X76550Y284750D02*Y283250D01*
X77300Y282500D01*
X79550D01*
X81350Y288500D02*Y282500D01*
Y284750D02*X82100Y285500D01*
X83600D01*
X84350Y284750D01*
Y282500D01*
X86150Y288500D02*X86900Y287750D01*
Y283250D01*
X86150Y282500D02*X86900Y283250D01*
X41000Y279250D02*X88700D01*
X95750Y282500D02*X98000D01*
X95000Y283250D02*X95750Y282500D01*
X95000Y287750D02*Y283250D01*
Y287750D02*X95750Y288500D01*
X98000D01*
X99800Y284750D02*Y283250D01*
Y284750D02*X100550Y285500D01*
X102050D01*
X102800Y284750D01*
Y283250D01*
X102050Y282500D02*X102800Y283250D01*
X100550Y282500D02*X102050D01*
X99800Y283250D02*X100550Y282500D01*
X104600Y285500D02*Y283250D01*
X105350Y282500D01*
X106850D01*
X107600Y283250D01*
Y285500D02*Y283250D01*
X110150Y284750D02*Y282500D01*
Y284750D02*X110900Y285500D01*
X111650D01*
X112400Y284750D01*
Y282500D01*
X109400Y285500D02*X110150Y284750D01*
X114950Y288500D02*Y283250D01*
X115700Y282500D01*
X114200Y286250D02*X115700D01*
X95000Y279250D02*X117200D01*
X130750Y288500D02*Y282500D01*
X130000Y288500D02*X133000D01*
X133750Y287750D01*
Y286250D01*
X133000Y285500D02*X133750Y286250D01*
X130750Y285500D02*X133000D01*
X135550Y288500D02*Y283250D01*
X136300Y282500D01*
X140050Y285500D02*X140800Y284750D01*
X138550Y285500D02*X140050D01*
X137800Y284750D02*X138550Y285500D01*
X137800Y284750D02*Y283250D01*
X138550Y282500D01*
X140800Y285500D02*Y283250D01*
X141550Y282500D01*
X138550D02*X140050D01*
X140800Y283250D01*
X144100Y288500D02*Y283250D01*
X144850Y282500D01*
X143350Y286250D02*X144850D01*
X147100Y282500D02*X149350D01*
X146350Y283250D02*X147100Y282500D01*
X146350Y284750D02*Y283250D01*
Y284750D02*X147100Y285500D01*
X148600D01*
X149350Y284750D01*
X146350Y284000D02*X149350D01*
Y284750D02*Y284000D01*
X154150Y288500D02*Y282500D01*
X153400D02*X154150Y283250D01*
X151900Y282500D02*X153400D01*
X151150Y283250D02*X151900Y282500D01*
X151150Y284750D02*Y283250D01*
Y284750D02*X151900Y285500D01*
X153400D01*
X154150Y284750D01*
X157450Y285500D02*Y284750D01*
Y283250D02*Y282500D01*
X155950Y287750D02*Y287000D01*
Y287750D02*X156700Y288500D01*
X158200D01*
X158950Y287750D01*
Y287000D01*
X157450Y285500D02*X158950Y287000D01*
X130000Y279250D02*X160750D01*
X0Y303500D02*X3000D01*
X1500D02*Y297500D01*
X4800Y303500D02*Y297500D01*
Y299750D02*X5550Y300500D01*
X7050D01*
X7800Y299750D01*
Y297500D01*
X10350D02*X12600D01*
X9600Y298250D02*X10350Y297500D01*
X9600Y299750D02*Y298250D01*
Y299750D02*X10350Y300500D01*
X11850D01*
X12600Y299750D01*
X9600Y299000D02*X12600D01*
Y299750D02*Y299000D01*
X15150Y299750D02*Y297500D01*
Y299750D02*X15900Y300500D01*
X17400D01*
X14400D02*X15150Y299750D01*
X19950Y297500D02*X22200D01*
X19200Y298250D02*X19950Y297500D01*
X19200Y299750D02*Y298250D01*
Y299750D02*X19950Y300500D01*
X21450D01*
X22200Y299750D01*
X19200Y299000D02*X22200D01*
Y299750D02*Y299000D01*
X28950Y300500D02*X29700Y299750D01*
X27450Y300500D02*X28950D01*
X26700Y299750D02*X27450Y300500D01*
X26700Y299750D02*Y298250D01*
X27450Y297500D01*
X29700Y300500D02*Y298250D01*
X30450Y297500D01*
X27450D02*X28950D01*
X29700Y298250D01*
X33000Y299750D02*Y297500D01*
Y299750D02*X33750Y300500D01*
X35250D01*
X32250D02*X33000Y299750D01*
X37800Y297500D02*X40050D01*
X37050Y298250D02*X37800Y297500D01*
X37050Y299750D02*Y298250D01*
Y299750D02*X37800Y300500D01*
X39300D01*
X40050Y299750D01*
X37050Y299000D02*X40050D01*
Y299750D02*Y299000D01*
X44550Y303500D02*X47550D01*
X44550D02*Y300500D01*
X45300Y301250D01*
X46800D01*
X47550Y300500D01*
Y298250D01*
X46800Y297500D02*X47550Y298250D01*
X45300Y297500D02*X46800D01*
X44550Y298250D02*X45300Y297500D01*
X55050Y303500D02*Y297500D01*
X54300D02*X55050Y298250D01*
X52800Y297500D02*X54300D01*
X52050Y298250D02*X52800Y297500D01*
X52050Y299750D02*Y298250D01*
Y299750D02*X52800Y300500D01*
X54300D01*
X55050Y299750D01*
X56850Y302000D02*Y301250D01*
Y299750D02*Y297500D01*
X59100Y302750D02*Y297500D01*
Y302750D02*X59850Y303500D01*
X60600D01*
X58350Y300500D02*X59850D01*
X62850Y302750D02*Y297500D01*
Y302750D02*X63600Y303500D01*
X64350D01*
X62100Y300500D02*X63600D01*
X66600Y297500D02*X68850D01*
X65850Y298250D02*X66600Y297500D01*
X65850Y299750D02*Y298250D01*
Y299750D02*X66600Y300500D01*
X68100D01*
X68850Y299750D01*
X65850Y299000D02*X68850D01*
Y299750D02*Y299000D01*
X71400Y299750D02*Y297500D01*
Y299750D02*X72150Y300500D01*
X73650D01*
X70650D02*X71400Y299750D01*
X76200Y297500D02*X78450D01*
X75450Y298250D02*X76200Y297500D01*
X75450Y299750D02*Y298250D01*
Y299750D02*X76200Y300500D01*
X77700D01*
X78450Y299750D01*
X75450Y299000D02*X78450D01*
Y299750D02*Y299000D01*
X81000Y299750D02*Y297500D01*
Y299750D02*X81750Y300500D01*
X82500D01*
X83250Y299750D01*
Y297500D01*
X80250Y300500D02*X81000Y299750D01*
X85800Y303500D02*Y298250D01*
X86550Y297500D01*
X85050Y301250D02*X86550D01*
X93750Y303500D02*Y297500D01*
X93000D02*X93750Y298250D01*
X91500Y297500D02*X93000D01*
X90750Y298250D02*X91500Y297500D01*
X90750Y299750D02*Y298250D01*
Y299750D02*X91500Y300500D01*
X93000D01*
X93750Y299750D01*
X96300D02*Y297500D01*
Y299750D02*X97050Y300500D01*
X98550D01*
X95550D02*X96300Y299750D01*
X100350Y302000D02*Y301250D01*
Y299750D02*Y297500D01*
X101850Y303500D02*Y298250D01*
X102600Y297500D01*
X104100Y303500D02*Y298250D01*
X104850Y297500D01*
X109800D02*X112050D01*
X112800Y298250D01*
X112050Y299000D02*X112800Y298250D01*
X109800Y299000D02*X112050D01*
X109050Y299750D02*X109800Y299000D01*
X109050Y299750D02*X109800Y300500D01*
X112050D01*
X112800Y299750D01*
X109050Y298250D02*X109800Y297500D01*
X114600Y302000D02*Y301250D01*
Y299750D02*Y297500D01*
X116100Y300500D02*X119100D01*
X116100Y297500D02*X119100Y300500D01*
X116100Y297500D02*X119100D01*
X121650D02*X123900D01*
X120900Y298250D02*X121650Y297500D01*
X120900Y299750D02*Y298250D01*
Y299750D02*X121650Y300500D01*
X123150D01*
X123900Y299750D01*
X120900Y299000D02*X123900D01*
Y299750D02*Y299000D01*
X126450Y297500D02*X128700D01*
X129450Y298250D01*
X128700Y299000D02*X129450Y298250D01*
X126450Y299000D02*X128700D01*
X125700Y299750D02*X126450Y299000D01*
X125700Y299750D02*X126450Y300500D01*
X128700D01*
X129450Y299750D01*
X125700Y298250D02*X126450Y297500D01*
X133950Y300500D02*Y298250D01*
X134700Y297500D01*
X136200D01*
X136950Y298250D01*
Y300500D02*Y298250D01*
X139500Y297500D02*X141750D01*
X142500Y298250D01*
X141750Y299000D02*X142500Y298250D01*
X139500Y299000D02*X141750D01*
X138750Y299750D02*X139500Y299000D01*
X138750Y299750D02*X139500Y300500D01*
X141750D01*
X142500Y299750D01*
X138750Y298250D02*X139500Y297500D01*
X145050D02*X147300D01*
X144300Y298250D02*X145050Y297500D01*
X144300Y299750D02*Y298250D01*
Y299750D02*X145050Y300500D01*
X146550D01*
X147300Y299750D01*
X144300Y299000D02*X147300D01*
Y299750D02*Y299000D01*
X152100Y303500D02*Y297500D01*
X151350D02*X152100Y298250D01*
X149850Y297500D02*X151350D01*
X149100Y298250D02*X149850Y297500D01*
X149100Y299750D02*Y298250D01*
Y299750D02*X149850Y300500D01*
X151350D01*
X152100Y299750D01*
X156600Y302000D02*Y301250D01*
Y299750D02*Y297500D01*
X158850Y299750D02*Y297500D01*
Y299750D02*X159600Y300500D01*
X160350D01*
X161100Y299750D01*
Y297500D01*
X158100Y300500D02*X158850Y299750D01*
X166350Y303500D02*Y298250D01*
X167100Y297500D01*
X165600Y301250D02*X167100D01*
X168600Y303500D02*Y297500D01*
Y299750D02*X169350Y300500D01*
X170850D01*
X171600Y299750D01*
Y297500D01*
X173400Y302000D02*Y301250D01*
Y299750D02*Y297500D01*
X175650D02*X177900D01*
X178650Y298250D01*
X177900Y299000D02*X178650Y298250D01*
X175650Y299000D02*X177900D01*
X174900Y299750D02*X175650Y299000D01*
X174900Y299750D02*X175650Y300500D01*
X177900D01*
X178650Y299750D01*
X174900Y298250D02*X175650Y297500D01*
X183150Y303500D02*Y298250D01*
X183900Y297500D01*
X187650Y300500D02*X188400Y299750D01*
X186150Y300500D02*X187650D01*
X185400Y299750D02*X186150Y300500D01*
X185400Y299750D02*Y298250D01*
X186150Y297500D01*
X188400Y300500D02*Y298250D01*
X189150Y297500D01*
X186150D02*X187650D01*
X188400Y298250D01*
X190950Y300500D02*Y298250D01*
X191700Y297500D01*
X193950Y300500D02*Y296000D01*
X193200Y295250D02*X193950Y296000D01*
X191700Y295250D02*X193200D01*
X190950Y296000D02*X191700Y295250D01*
Y297500D02*X193200D01*
X193950Y298250D01*
X195750Y299750D02*Y298250D01*
Y299750D02*X196500Y300500D01*
X198000D01*
X198750Y299750D01*
Y298250D01*
X198000Y297500D02*X198750Y298250D01*
X196500Y297500D02*X198000D01*
X195750Y298250D02*X196500Y297500D01*
X200550Y300500D02*Y298250D01*
X201300Y297500D01*
X202800D01*
X203550Y298250D01*
Y300500D02*Y298250D01*
X206100Y303500D02*Y298250D01*
X206850Y297500D01*
X205350Y301250D02*X206850D01*
X208350Y296000D02*X209850Y297500D01*
X215100D02*X216600D01*
X215850Y303500D02*Y297500D01*
X214350Y302000D02*X215850Y303500D01*
X218400Y300500D02*X221400Y303500D01*
X218400Y300500D02*X222150D01*
X221400Y303500D02*Y297500D01*
X226650Y303500D02*Y297500D01*
Y299750D02*X227400Y300500D01*
X228900D01*
X229650Y299750D01*
Y297500D01*
X231450Y299750D02*Y298250D01*
Y299750D02*X232200Y300500D01*
X233700D01*
X234450Y299750D01*
Y298250D01*
X233700Y297500D02*X234450Y298250D01*
X232200Y297500D02*X233700D01*
X231450Y298250D02*X232200Y297500D01*
X236250Y303500D02*Y298250D01*
X237000Y297500D01*
X239250D02*X241500D01*
X238500Y298250D02*X239250Y297500D01*
X238500Y299750D02*Y298250D01*
Y299750D02*X239250Y300500D01*
X240750D01*
X241500Y299750D01*
X238500Y299000D02*X241500D01*
Y299750D02*Y299000D01*
X244050Y297500D02*X246300D01*
X247050Y298250D01*
X246300Y299000D02*X247050Y298250D01*
X244050Y299000D02*X246300D01*
X243300Y299750D02*X244050Y299000D01*
X243300Y299750D02*X244050Y300500D01*
X246300D01*
X247050Y299750D01*
X243300Y298250D02*X244050Y297500D01*
X252300Y303500D02*Y298250D01*
X253050Y297500D01*
X251550Y301250D02*X253050D01*
X254550Y299750D02*Y298250D01*
Y299750D02*X255300Y300500D01*
X256800D01*
X257550Y299750D01*
Y298250D01*
X256800Y297500D02*X257550Y298250D01*
X255300Y297500D02*X256800D01*
X254550Y298250D02*X255300Y297500D01*
X260100Y303500D02*Y298250D01*
X260850Y297500D01*
X259350Y301250D02*X260850D01*
X264600Y300500D02*X265350Y299750D01*
X263100Y300500D02*X264600D01*
X262350Y299750D02*X263100Y300500D01*
X262350Y299750D02*Y298250D01*
X263100Y297500D01*
X265350Y300500D02*Y298250D01*
X266100Y297500D01*
X263100D02*X264600D01*
X265350Y298250D01*
X267900Y303500D02*Y298250D01*
X268650Y297500D01*
G54D166*X16500Y188000D02*Y18000D01*
X86000D01*
Y188000D01*
X16500D02*X86000D01*
G54D165*X0Y-9500D02*X3000D01*
X3750Y-8750D01*
Y-7250D02*Y-8750D01*
X3000Y-6500D02*X3750Y-7250D01*
X750Y-6500D02*X3000D01*
X750Y-3500D02*Y-9500D01*
X0Y-3500D02*X3000D01*
X3750Y-4250D01*
Y-5750D01*
X3000Y-6500D02*X3750Y-5750D01*
X5550Y-7250D02*Y-8750D01*
Y-7250D02*X6300Y-6500D01*
X7800D01*
X8550Y-7250D01*
Y-8750D01*
X7800Y-9500D02*X8550Y-8750D01*
X6300Y-9500D02*X7800D01*
X5550Y-8750D02*X6300Y-9500D01*
X12600Y-6500D02*X13350Y-7250D01*
X11100Y-6500D02*X12600D01*
X10350Y-7250D02*X11100Y-6500D01*
X10350Y-7250D02*Y-8750D01*
X11100Y-9500D01*
X13350Y-6500D02*Y-8750D01*
X14100Y-9500D01*
X11100D02*X12600D01*
X13350Y-8750D01*
X16650Y-7250D02*Y-9500D01*
Y-7250D02*X17400Y-6500D01*
X18900D01*
X15900D02*X16650Y-7250D01*
X23700Y-3500D02*Y-9500D01*
X22950D02*X23700Y-8750D01*
X21450Y-9500D02*X22950D01*
X20700Y-8750D02*X21450Y-9500D01*
X20700Y-7250D02*Y-8750D01*
Y-7250D02*X21450Y-6500D01*
X22950D01*
X23700Y-7250D01*
X28200D02*Y-8750D01*
Y-7250D02*X28950Y-6500D01*
X30450D01*
X31200Y-7250D01*
Y-8750D01*
X30450Y-9500D02*X31200Y-8750D01*
X28950Y-9500D02*X30450D01*
X28200Y-8750D02*X28950Y-9500D01*
X33000Y-6500D02*Y-8750D01*
X33750Y-9500D01*
X35250D01*
X36000Y-8750D01*
Y-6500D02*Y-8750D01*
X38550Y-3500D02*Y-8750D01*
X39300Y-9500D01*
X37800Y-5750D02*X39300D01*
X40800Y-3500D02*Y-8750D01*
X41550Y-9500D01*
X43050Y-5000D02*Y-5750D01*
Y-7250D02*Y-9500D01*
X45300Y-7250D02*Y-9500D01*
Y-7250D02*X46050Y-6500D01*
X46800D01*
X47550Y-7250D01*
Y-9500D01*
X44550Y-6500D02*X45300Y-7250D01*
X50100Y-9500D02*X52350D01*
X49350Y-8750D02*X50100Y-9500D01*
X49350Y-7250D02*Y-8750D01*
Y-7250D02*X50100Y-6500D01*
X51600D01*
X52350Y-7250D01*
X49350Y-8000D02*X52350D01*
Y-7250D02*Y-8000D01*
X56850Y-5000D02*Y-5750D01*
Y-7250D02*Y-9500D01*
X59100D02*X61350D01*
X62100Y-8750D01*
X61350Y-8000D02*X62100Y-8750D01*
X59100Y-8000D02*X61350D01*
X58350Y-7250D02*X59100Y-8000D01*
X58350Y-7250D02*X59100Y-6500D01*
X61350D01*
X62100Y-7250D01*
X58350Y-8750D02*X59100Y-9500D01*
X67350Y-3500D02*Y-8750D01*
X68100Y-9500D01*
X66600Y-5750D02*X68100D01*
X69600Y-3500D02*Y-9500D01*
Y-7250D02*X70350Y-6500D01*
X71850D01*
X72600Y-7250D01*
Y-9500D01*
X75150D02*X77400D01*
X74400Y-8750D02*X75150Y-9500D01*
X74400Y-7250D02*Y-8750D01*
Y-7250D02*X75150Y-6500D01*
X76650D01*
X77400Y-7250D01*
X74400Y-8000D02*X77400D01*
Y-7250D02*Y-8000D01*
X82650Y-6500D02*X84900D01*
X81900Y-7250D02*X82650Y-6500D01*
X81900Y-7250D02*Y-8750D01*
X82650Y-9500D01*
X84900D01*
X87450D02*X89700D01*
X86700Y-8750D02*X87450Y-9500D01*
X86700Y-7250D02*Y-8750D01*
Y-7250D02*X87450Y-6500D01*
X88950D01*
X89700Y-7250D01*
X86700Y-8000D02*X89700D01*
Y-7250D02*Y-8000D01*
X92250Y-7250D02*Y-9500D01*
Y-7250D02*X93000Y-6500D01*
X93750D01*
X94500Y-7250D01*
Y-9500D01*
X91500Y-6500D02*X92250Y-7250D01*
X97050Y-3500D02*Y-8750D01*
X97800Y-9500D01*
X96300Y-5750D02*X97800D01*
X100050Y-9500D02*X102300D01*
X99300Y-8750D02*X100050Y-9500D01*
X99300Y-7250D02*Y-8750D01*
Y-7250D02*X100050Y-6500D01*
X101550D01*
X102300Y-7250D01*
X99300Y-8000D02*X102300D01*
Y-7250D02*Y-8000D01*
X104850Y-7250D02*Y-9500D01*
Y-7250D02*X105600Y-6500D01*
X107100D01*
X104100D02*X104850Y-7250D01*
X108900Y-3500D02*Y-8750D01*
X109650Y-9500D01*
X111150Y-5000D02*Y-5750D01*
Y-7250D02*Y-9500D01*
X113400Y-7250D02*Y-9500D01*
Y-7250D02*X114150Y-6500D01*
X114900D01*
X115650Y-7250D01*
Y-9500D01*
X112650Y-6500D02*X113400Y-7250D01*
X118200Y-9500D02*X120450D01*
X117450Y-8750D02*X118200Y-9500D01*
X117450Y-7250D02*Y-8750D01*
Y-7250D02*X118200Y-6500D01*
X119700D01*
X120450Y-7250D01*
X117450Y-8000D02*X120450D01*
Y-7250D02*Y-8000D01*
X124950Y-7250D02*Y-8750D01*
Y-7250D02*X125700Y-6500D01*
X127200D01*
X127950Y-7250D01*
Y-8750D01*
X127200Y-9500D02*X127950Y-8750D01*
X125700Y-9500D02*X127200D01*
X124950Y-8750D02*X125700Y-9500D01*
X130500Y-4250D02*Y-9500D01*
Y-4250D02*X131250Y-3500D01*
X132000D01*
X129750Y-6500D02*X131250D01*
X136950Y-3500D02*Y-8750D01*
X137700Y-9500D01*
X136200Y-5750D02*X137700D01*
X139200Y-3500D02*Y-9500D01*
Y-7250D02*X139950Y-6500D01*
X141450D01*
X142200Y-7250D01*
Y-9500D01*
X144000Y-5000D02*Y-5750D01*
Y-7250D02*Y-9500D01*
X146250D02*X148500D01*
X149250Y-8750D01*
X148500Y-8000D02*X149250Y-8750D01*
X146250Y-8000D02*X148500D01*
X145500Y-7250D02*X146250Y-8000D01*
X145500Y-7250D02*X146250Y-6500D01*
X148500D01*
X149250Y-7250D01*
X145500Y-8750D02*X146250Y-9500D01*
X154500Y-7250D02*Y-11750D01*
X153750Y-6500D02*X154500Y-7250D01*
X155250Y-6500D01*
X156750D01*
X157500Y-7250D01*
Y-8750D01*
X156750Y-9500D02*X157500Y-8750D01*
X155250Y-9500D02*X156750D01*
X154500Y-8750D02*X155250Y-9500D01*
X161550Y-6500D02*X162300Y-7250D01*
X160050Y-6500D02*X161550D01*
X159300Y-7250D02*X160050Y-6500D01*
X159300Y-7250D02*Y-8750D01*
X160050Y-9500D01*
X162300Y-6500D02*Y-8750D01*
X163050Y-9500D01*
X160050D02*X161550D01*
X162300Y-8750D01*
X165600Y-3500D02*Y-8750D01*
X166350Y-9500D01*
X164850Y-5750D02*X166350D01*
X167850Y-3500D02*Y-9500D01*
Y-7250D02*X168600Y-6500D01*
X170100D01*
X170850Y-7250D01*
Y-9500D01*
X200750Y228500D02*Y222500D01*
X203000Y228500D02*X203750Y227750D01*
Y223250D01*
X203000Y222500D02*X203750Y223250D01*
X200000Y222500D02*X203000D01*
X200000Y228500D02*X203000D01*
X207800Y225500D02*X208550Y224750D01*
X206300Y225500D02*X207800D01*
X205550Y224750D02*X206300Y225500D01*
X205550Y224750D02*Y223250D01*
X206300Y222500D01*
X208550Y225500D02*Y223250D01*
X209300Y222500D01*
X206300D02*X207800D01*
X208550Y223250D01*
X211850Y228500D02*Y223250D01*
X212600Y222500D01*
X211100Y226250D02*X212600D01*
X214850Y222500D02*X217100D01*
X214100Y223250D02*X214850Y222500D01*
X214100Y224750D02*Y223250D01*
Y224750D02*X214850Y225500D01*
X216350D01*
X217100Y224750D01*
X214100Y224000D02*X217100D01*
Y224750D02*Y224000D01*
X218900Y226250D02*X219650D01*
X218900Y224750D02*X219650D01*
X224150Y228500D02*X227150D01*
X225650D02*Y222500D01*
X228950Y228500D02*Y222500D01*
Y224750D02*X229700Y225500D01*
X231200D01*
X231950Y224750D01*
Y222500D01*
X233750Y225500D02*Y223250D01*
X234500Y222500D01*
X236000D01*
X236750Y223250D01*
Y225500D02*Y223250D01*
X241250Y228500D02*Y222500D01*
Y228500D02*X243500Y226250D01*
X245750Y228500D01*
Y222500D01*
X249800Y225500D02*X250550Y224750D01*
X248300Y225500D02*X249800D01*
X247550Y224750D02*X248300Y225500D01*
X247550Y224750D02*Y223250D01*
X248300Y222500D01*
X250550Y225500D02*Y223250D01*
X251300Y222500D01*
X248300D02*X249800D01*
X250550Y223250D01*
X253850Y224750D02*Y222500D01*
Y224750D02*X254600Y225500D01*
X256100D01*
X253100D02*X253850Y224750D01*
X263300Y222500D02*X267050Y226250D01*
Y228500D02*Y226250D01*
X263300Y228500D02*X267050D01*
X272300Y222500D02*X273800D01*
X273050Y228500D02*Y222500D01*
X271550Y227000D02*X273050Y228500D01*
X275600Y222500D02*X278600Y225500D01*
Y227750D02*Y225500D01*
X277850Y228500D02*X278600Y227750D01*
X276350Y228500D02*X277850D01*
X275600Y227750D02*X276350Y228500D01*
X275600Y227750D02*Y226250D01*
X276350Y225500D01*
X278600D01*
X280400Y226250D02*X281150D01*
X280400Y224750D02*X281150D01*
X282950Y225500D02*X285950Y228500D01*
X282950Y225500D02*X286700D01*
X285950Y228500D02*Y222500D01*
X288500Y227750D02*X289250Y228500D01*
X290750D01*
X291500Y227750D01*
Y223250D01*
X290750Y222500D02*X291500Y223250D01*
X289250Y222500D02*X290750D01*
X288500Y223250D02*X289250Y222500D01*
Y225500D02*X291500D01*
X293300Y226250D02*X294050D01*
X293300Y224750D02*X294050D01*
X295850Y227750D02*X296600Y228500D01*
X298850D01*
X299600Y227750D01*
Y226250D01*
X295850Y222500D02*X299600Y226250D01*
X295850Y222500D02*X299600D01*
X302150D02*X303650D01*
X302900Y228500D02*Y222500D01*
X301400Y227000D02*X302900Y228500D01*
X308150Y227750D02*X308900Y228500D01*
X311150D01*
X311900Y227750D01*
Y226250D01*
X308150Y222500D02*X311900Y226250D01*
X308150Y222500D02*X311900D01*
X313700Y223250D02*X314450Y222500D01*
X313700Y227750D02*Y223250D01*
Y227750D02*X314450Y228500D01*
X315950D01*
X316700Y227750D01*
Y223250D01*
X315950Y222500D02*X316700Y223250D01*
X314450Y222500D02*X315950D01*
X313700Y224000D02*X316700Y227000D01*
X319250Y222500D02*X320750D01*
X320000Y228500D02*Y222500D01*
X318500Y227000D02*X320000Y228500D01*
X322550Y227750D02*X323300Y228500D01*
X324800D01*
X325550Y227750D01*
Y223250D01*
X324800Y222500D02*X325550Y223250D01*
X323300Y222500D02*X324800D01*
X322550Y223250D02*X323300Y222500D01*
Y225500D02*X325550D01*
X330050Y228500D02*Y223250D01*
X330800Y222500D01*
X332300D01*
X333050Y223250D01*
Y228500D02*Y223250D01*
X334850Y228500D02*X337850D01*
X336350D02*Y222500D01*
X340400D02*X342650D01*
X339650Y223250D02*X340400Y222500D01*
X339650Y227750D02*Y223250D01*
Y227750D02*X340400Y228500D01*
X342650D01*
X200000Y242750D02*Y237500D01*
Y242750D02*X200750Y243500D01*
X203000D01*
X203750Y242750D01*
Y237500D01*
X200000Y240500D02*X203750D01*
X205550D02*Y238250D01*
X206300Y237500D01*
X207800D01*
X208550Y238250D01*
Y240500D02*Y238250D01*
X211100Y243500D02*Y238250D01*
X211850Y237500D01*
X210350Y241250D02*X211850D01*
X213350Y243500D02*Y237500D01*
Y239750D02*X214100Y240500D01*
X215600D01*
X216350Y239750D01*
Y237500D01*
X218150Y239750D02*Y238250D01*
Y239750D02*X218900Y240500D01*
X220400D01*
X221150Y239750D01*
Y238250D01*
X220400Y237500D02*X221150Y238250D01*
X218900Y237500D02*X220400D01*
X218150Y238250D02*X218900Y237500D01*
X223700Y239750D02*Y237500D01*
Y239750D02*X224450Y240500D01*
X225950D01*
X222950D02*X223700Y239750D01*
X227750Y241250D02*X228500D01*
X227750Y239750D02*X228500D01*
X200000Y258500D02*X203000D01*
X201500D02*Y252500D01*
X204800Y257000D02*Y256250D01*
Y254750D02*Y252500D01*
X207050Y258500D02*Y253250D01*
X207800Y252500D01*
X206300Y256250D02*X207800D01*
X209300Y258500D02*Y253250D01*
X210050Y252500D01*
X212300D02*X214550D01*
X211550Y253250D02*X212300Y252500D01*
X211550Y254750D02*Y253250D01*
Y254750D02*X212300Y255500D01*
X213800D01*
X214550Y254750D01*
X211550Y254000D02*X214550D01*
Y254750D02*Y254000D01*
X216350Y256250D02*X217100D01*
X216350Y254750D02*X217100D01*
X221600Y253250D02*X222350Y252500D01*
X221600Y257750D02*X222350Y258500D01*
X221600Y257750D02*Y253250D01*
X224150Y255500D02*Y253250D01*
X224900Y252500D01*
X226400D01*
X227150Y253250D01*
Y255500D02*Y253250D01*
X229700Y254750D02*Y252500D01*
Y254750D02*X230450Y255500D01*
X231200D01*
X231950Y254750D01*
Y252500D01*
X228950Y255500D02*X229700Y254750D01*
X233750Y258500D02*Y252500D01*
Y254750D02*X236000Y252500D01*
X233750Y254750D02*X235250Y256250D01*
X238550Y254750D02*Y252500D01*
Y254750D02*X239300Y255500D01*
X240050D01*
X240800Y254750D01*
Y252500D01*
X237800Y255500D02*X238550Y254750D01*
X242600D02*Y253250D01*
Y254750D02*X243350Y255500D01*
X244850D01*
X245600Y254750D01*
Y253250D01*
X244850Y252500D02*X245600Y253250D01*
X243350Y252500D02*X244850D01*
X242600Y253250D02*X243350Y252500D01*
X247400Y255500D02*Y253250D01*
X248150Y252500D01*
X248900D01*
X249650Y253250D01*
Y255500D02*Y253250D01*
X250400Y252500D01*
X251150D01*
X251900Y253250D01*
Y255500D02*Y253250D01*
X254450Y254750D02*Y252500D01*
Y254750D02*X255200Y255500D01*
X255950D01*
X256700Y254750D01*
Y252500D01*
X253700Y255500D02*X254450Y254750D01*
X258500Y258500D02*X259250Y257750D01*
Y253250D01*
X258500Y252500D02*X259250Y253250D01*
X263750Y255500D02*X266750D01*
X271250Y258500D02*Y252500D01*
Y258500D02*X274250D01*
X271250Y255500D02*X273500D01*
X278300D02*X279050Y254750D01*
X276800Y255500D02*X278300D01*
X276050Y254750D02*X276800Y255500D01*
X276050Y254750D02*Y253250D01*
X276800Y252500D01*
X279050Y255500D02*Y253250D01*
X279800Y252500D01*
X276800D02*X278300D01*
X279050Y253250D01*
X281600Y258500D02*Y252500D01*
Y253250D02*X282350Y252500D01*
X283850D01*
X284600Y253250D01*
Y254750D02*Y253250D01*
X283850Y255500D02*X284600Y254750D01*
X282350Y255500D02*X283850D01*
X281600Y254750D02*X282350Y255500D01*
X287150Y254750D02*Y252500D01*
Y254750D02*X287900Y255500D01*
X289400D01*
X286400D02*X287150Y254750D01*
X291200Y257000D02*Y256250D01*
Y254750D02*Y252500D01*
X293450Y255500D02*X295700D01*
X292700Y254750D02*X293450Y255500D01*
X292700Y254750D02*Y253250D01*
X293450Y252500D01*
X295700D01*
X299750Y255500D02*X300500Y254750D01*
X298250Y255500D02*X299750D01*
X297500Y254750D02*X298250Y255500D01*
X297500Y254750D02*Y253250D01*
X298250Y252500D01*
X300500Y255500D02*Y253250D01*
X301250Y252500D01*
X298250D02*X299750D01*
X300500Y253250D01*
X303800Y258500D02*Y253250D01*
X304550Y252500D01*
X303050Y256250D02*X304550D01*
X306050Y257000D02*Y256250D01*
Y254750D02*Y252500D01*
X307550Y254750D02*Y253250D01*
Y254750D02*X308300Y255500D01*
X309800D01*
X310550Y254750D01*
Y253250D01*
X309800Y252500D02*X310550Y253250D01*
X308300Y252500D02*X309800D01*
X307550Y253250D02*X308300Y252500D01*
X313100Y254750D02*Y252500D01*
Y254750D02*X313850Y255500D01*
X314600D01*
X315350Y254750D01*
Y252500D01*
X312350Y255500D02*X313100Y254750D01*
X320600Y258500D02*Y252500D01*
X322850Y258500D02*X323600Y257750D01*
Y253250D01*
X322850Y252500D02*X323600Y253250D01*
X319850Y252500D02*X322850D01*
X319850Y258500D02*X322850D01*
X326150Y254750D02*Y252500D01*
Y254750D02*X326900Y255500D01*
X328400D01*
X325400D02*X326150Y254750D01*
X332450Y255500D02*X333200Y254750D01*
X330950Y255500D02*X332450D01*
X330200Y254750D02*X330950Y255500D01*
X330200Y254750D02*Y253250D01*
X330950Y252500D01*
X333200Y255500D02*Y253250D01*
X333950Y252500D01*
X330950D02*X332450D01*
X333200Y253250D01*
X335750Y255500D02*Y253250D01*
X336500Y252500D01*
X337250D01*
X338000Y253250D01*
Y255500D02*Y253250D01*
X338750Y252500D01*
X339500D01*
X340250Y253250D01*
Y255500D02*Y253250D01*
X342050Y257000D02*Y256250D01*
Y254750D02*Y252500D01*
X344300Y254750D02*Y252500D01*
Y254750D02*X345050Y255500D01*
X345800D01*
X346550Y254750D01*
Y252500D01*
X343550Y255500D02*X344300Y254750D01*
X350600Y255500D02*X351350Y254750D01*
X349100Y255500D02*X350600D01*
X348350Y254750D02*X349100Y255500D01*
X348350Y254750D02*Y253250D01*
X349100Y252500D01*
X350600D01*
X351350Y253250D01*
X348350Y251000D02*X349100Y250250D01*
X350600D01*
X351350Y251000D01*
Y255500D02*Y251000D01*
M02*
