G04 start of page 8 for group -4079 idx -4079 *
G04 Title: (unknown), topsilk *
G04 Creator: pcb 20110918 *
G04 CreationDate: Thu Mar  7 15:00:05 2013 UTC *
G04 For: fosse *
G04 Format: Gerber/RS-274X *
G04 PCB-Dimensions: 100000 200000 *
G04 PCB-Coordinate-Origin: lower left *
%MOIN*%
%FSLAX25Y25*%
%LNTOPSILK*%
%ADD57C,0.0110*%
%ADD56C,0.0100*%
G54D56*X17500Y187000D02*Y24500D01*
X85000D02*Y187000D01*
X17500Y24500D02*X23000Y19000D01*
X79500D01*
X85000Y24500D01*
X72020Y27450D02*X73505D01*
X74000Y26955D02*X73505Y27450D01*
X74000Y26955D02*Y23985D01*
X73505Y23490D01*
X72020D02*X73505D01*
X70832Y27450D02*Y23490D01*
Y25965D02*X70337Y25470D01*
X69347D02*X70337D01*
X69347D02*X68852Y25965D01*
Y27450D02*Y25965D01*
X66179Y25470D02*X65684Y25965D01*
X66179Y25470D02*X67169D01*
X67664Y25965D02*X67169Y25470D01*
X67664Y26955D02*Y25965D01*
Y26955D02*X67169Y27450D01*
X65684Y26955D02*Y25470D01*
Y26955D02*X65189Y27450D01*
X66179D02*X67169D01*
X66179D02*X65684Y26955D01*
X62021Y27450D02*X63506D01*
X62021D02*X61526Y26955D01*
X62021Y26460D02*X61526Y26955D01*
X62021Y26460D02*X63506D01*
X64001Y25965D02*X63506Y26460D01*
X64001Y25965D02*X63506Y25470D01*
X62021D02*X63506D01*
X62021D02*X61526Y25965D01*
X64001Y26955D02*X63506Y27450D01*
X58358D02*X59843D01*
X58358D02*X57863Y26955D01*
X58358Y26460D02*X57863Y26955D01*
X58358Y26460D02*X59843D01*
X60338Y25965D02*X59843Y26460D01*
X60338Y25965D02*X59843Y25470D01*
X58358D02*X59843D01*
X58358D02*X57863Y25965D01*
X60338Y26955D02*X59843Y27450D01*
X56675Y24975D02*Y24480D01*
Y27450D02*Y25965D01*
X53705Y27450D02*X55190D01*
X53705D02*X53210Y26955D01*
X53705Y26460D02*X53210Y26955D01*
X53705Y26460D02*X55190D01*
X55685Y25965D02*X55190Y26460D01*
X55685Y25965D02*X55190Y25470D01*
X53705D02*X55190D01*
X53705D02*X53210Y25965D01*
X55685Y26955D02*X55190Y27450D01*
X27300Y116702D02*Y85993D01*
Y116702D02*X58008D01*
Y85993D01*
X27300D02*X58008D01*
X26314Y85009D03*
X63500Y184000D02*Y186000D01*
X64500Y185000D01*
X63500Y186000D02*X62500Y185000D01*
X54000Y181000D02*X52500D01*
X64000D02*X62500D01*
X76000D02*X74500D01*
Y182500D02*Y179500D01*
X76500Y182500D02*X74500D01*
Y179500D02*X76500D01*
X71500Y176500D02*X70500Y177500D01*
X72500D02*X71500Y176500D01*
X72500Y182500D02*Y177500D01*
X71500Y179500D02*X72500D01*
X70500Y180500D02*X71500Y179500D01*
X70500Y181500D02*Y180500D01*
X71500Y182500D02*X70500Y181500D01*
X72500Y182500D02*X71500D01*
X68500Y179500D02*Y185500D01*
X67500Y179500D02*X68500D01*
X66500Y180500D02*X67500Y179500D01*
X66500Y181500D02*Y180500D01*
X67500Y182500D02*X66500Y181500D01*
X68500Y182500D02*X67500D01*
X62500D02*Y179500D01*
X64500Y182500D02*X62500D01*
Y179500D02*X64500D01*
X59500Y181500D02*X58500Y182500D01*
X56500Y179500D02*Y182500D01*
X57500D02*X56500Y181500D01*
X58500Y182500D02*X57500D01*
X52500D02*Y179500D01*
X54500Y182500D02*X52500D01*
Y179500D02*X54500D01*
X50500Y180500D02*Y182500D01*
X49500Y179500D02*X50500Y180500D01*
X48500D02*X49500Y179500D01*
X48500Y182500D02*Y180500D01*
X45500Y179500D02*X44500D01*
X46500Y180500D02*X45500Y179500D01*
X46500Y181500D02*Y180500D01*
X45500Y182500D02*X46500Y181500D01*
X44500Y182500D02*X45500D01*
X43500Y181500D02*X44500Y182500D01*
X43500Y180500D02*Y181500D01*
X44500Y179500D02*X43500Y180500D01*
X40500Y183500D02*X38500D01*
X39500Y185500D02*Y179500D01*
X33500D02*Y182500D01*
X34500D02*X33500Y181500D01*
X35500Y182500D02*X34500D01*
X36500Y181500D02*X35500Y182500D01*
X30500Y180500D02*X31500Y179500D01*
X29500Y182500D02*X28500D01*
X30500Y181500D02*X29500Y182500D01*
X30500Y180500D02*Y181500D01*
X29500Y179500D02*X30500Y180500D01*
X28500Y179500D02*X29500D01*
X27500Y180500D02*X28500Y179500D01*
X27500Y181500D02*Y180500D01*
X28500Y182500D02*X27500Y181500D01*
X25500Y182500D02*X23500D01*
X26500Y183500D02*X25500Y182500D01*
X26500Y184500D02*Y183500D01*
X25500Y185500D02*X26500Y184500D01*
X23500Y185500D02*X25500D01*
X23500D02*Y179500D01*
X53500Y172500D02*Y170000D01*
X55000Y171000D02*X53500Y172500D01*
X56500D02*X55000Y171000D01*
X56500Y170000D02*Y172500D01*
X58000Y174000D02*Y175000D01*
Y172000D02*Y170000D01*
X60000Y175000D02*Y170000D01*
X41500Y175000D02*X42500D01*
X40500Y174000D02*X41500Y175000D01*
X46500Y170000D02*X45500Y171000D01*
X47500Y170000D02*X46500D01*
X48500Y171000D02*X47500Y170000D01*
X48500Y172000D02*Y171000D01*
X47500Y173000D02*X48500Y172000D01*
X45500Y173000D02*X47500D01*
X45500Y175000D02*Y173000D01*
X48500Y175000D02*X45500D01*
X43500Y173000D02*X40500Y170000D01*
X43500Y174000D02*Y173000D01*
X42500Y175000D02*X43500Y174000D01*
X40500Y170000D02*X43500D01*
X21000Y130150D02*Y151000D01*
X79000Y169000D02*Y187350D01*
X21000D02*X79000D01*
X21000Y130150D02*X79000D01*
Y151000D01*
X21000Y169000D02*Y187320D01*
X72000Y63000D02*Y48000D01*
Y108000D02*Y93000D01*
X67000D02*Y63000D01*
Y93000D02*X77000D01*
Y63000D01*
X67000D02*X77000D01*
X24500Y39500D02*X44500D01*
X24500D02*Y29500D01*
X44500D01*
Y39500D02*Y29500D01*
X34500Y39500D02*Y29500D01*
X44500D01*
G54D57*X51600Y69400D02*Y60100D01*
X32500D02*X51600D01*
X32500Y69400D02*Y60100D01*
Y69400D02*X51600D01*
G54D56*X71000Y29500D02*X81000D01*
X71000Y39500D02*Y29500D01*
X81000Y39500D02*Y29500D01*
X61000D02*X81000D01*
X61000Y39500D02*Y29500D01*
Y39500D02*X81000D01*
X21410Y98984D02*X25410D01*
Y100984D02*Y98984D01*
Y103684D02*Y102684D01*
X21410Y103184D02*X25410D01*
X22410Y102184D02*X21410Y103184D01*
X22140Y123260D02*X23640D01*
X21640Y123760D02*X22140Y123260D01*
X21640Y126760D02*Y123760D01*
Y126760D02*X22140Y127260D01*
X23640D01*
X24840Y126760D02*Y123760D01*
Y126760D02*X25340Y127260D01*
X26340D01*
X26840Y126760D01*
Y123760D01*
X26340Y123260D02*X26840Y123760D01*
X25340Y123260D02*X26340D01*
X24840Y123760D02*X25340Y123260D01*
X28040Y127260D02*Y123260D01*
Y127260D02*Y126760D01*
X30540Y124260D01*
Y127260D02*Y123260D01*
X31740Y127260D02*Y123260D01*
Y127260D02*Y126760D01*
X34240Y124260D01*
Y127260D02*Y123260D01*
X35440Y126760D02*X35940Y127260D01*
X37440D01*
X37940Y126760D01*
Y125760D01*
X35440Y123260D02*X37940Y125760D01*
X35440Y123260D02*X37940D01*
X65000Y77000D02*Y75500D01*
X64500Y75000D02*X65000Y75500D01*
X61500Y75000D02*X64500D01*
X61500D02*X61000Y75500D01*
Y77000D02*Y75500D01*
X65000Y79700D02*Y78700D01*
X61000Y79200D02*X65000D01*
X62000Y78200D02*X61000Y79200D01*
X40000Y28000D02*X41500D01*
X42000Y27500D02*X41500Y28000D01*
X42000Y27500D02*Y24500D01*
X41500Y24000D01*
X40000D02*X41500D01*
X38800Y27500D02*Y24500D01*
X38300Y24000D01*
X37300D02*X38300D01*
X37300D02*X36800Y24500D01*
Y27500D02*Y24500D01*
X37300Y28000D02*X36800Y27500D01*
X37300Y28000D02*X38300D01*
X38800Y27500D02*X38300Y28000D01*
X35600D02*Y24000D01*
Y24500D02*Y24000D01*
Y24500D02*X33100Y27000D01*
Y28000D02*Y24000D01*
X31900Y28000D02*Y24000D01*
Y24500D02*Y24000D01*
Y24500D02*X29400Y27000D01*
Y28000D02*Y24000D01*
X26700Y28000D02*X27700D01*
X27200D02*Y24000D01*
X28200Y25000D02*X27200Y24000D01*
X39100Y76200D02*X41100D01*
X41600Y75700D01*
Y74700D01*
X41100Y74200D02*X41600Y74700D01*
X39600Y74200D02*X41100D01*
X39600Y76200D02*Y72200D01*
Y74200D02*X41600Y72200D01*
X43300D02*X44300D01*
X43800Y76200D02*Y72200D01*
X42800Y75200D02*X43800Y76200D01*
X79500Y23500D02*X81000D01*
X79500Y27000D02*Y23500D01*
X80000Y27500D02*X79500Y27000D01*
X80000Y27500D02*X80500D01*
X81000Y27000D02*X80500Y27500D01*
X76800D02*X77800D01*
X77300D02*Y23500D01*
X78300Y24500D02*X77300Y23500D01*
M02*
