G04 start of page 8 for group -4079 idx -4079 *
G04 Title: (unknown), topsilk *
G04 Creator: pcb 20110918 *
G04 CreationDate: Thu Mar  7 14:54:40 2013 UTC *
G04 For: fosse *
G04 Format: Gerber/RS-274X *
G04 PCB-Dimensions: 600000 500000 *
G04 PCB-Coordinate-Origin: lower left *
%MOIN*%
%FSLAX25Y25*%
%LNTOPSILK*%
%ADD57C,0.0110*%
%ADD56C,0.0100*%
G54D56*X17500Y487000D02*Y324500D01*
X85000D02*Y487000D01*
X17500Y324500D02*X23000Y319000D01*
X79500D01*
X85000Y324500D01*
X72020Y327450D02*X73505D01*
X74000Y326955D02*X73505Y327450D01*
X74000Y326955D02*Y323985D01*
X73505Y323490D01*
X72020D02*X73505D01*
X70832Y327450D02*Y323490D01*
Y325965D02*X70337Y325470D01*
X69347D02*X70337D01*
X69347D02*X68852Y325965D01*
Y327450D02*Y325965D01*
X66179Y325470D02*X65684Y325965D01*
X66179Y325470D02*X67169D01*
X67664Y325965D02*X67169Y325470D01*
X67664Y326955D02*Y325965D01*
Y326955D02*X67169Y327450D01*
X65684Y326955D02*Y325470D01*
Y326955D02*X65189Y327450D01*
X66179D02*X67169D01*
X66179D02*X65684Y326955D01*
X62021Y327450D02*X63506D01*
X62021D02*X61526Y326955D01*
X62021Y326460D02*X61526Y326955D01*
X62021Y326460D02*X63506D01*
X64001Y325965D02*X63506Y326460D01*
X64001Y325965D02*X63506Y325470D01*
X62021D02*X63506D01*
X62021D02*X61526Y325965D01*
X64001Y326955D02*X63506Y327450D01*
X58358D02*X59843D01*
X58358D02*X57863Y326955D01*
X58358Y326460D02*X57863Y326955D01*
X58358Y326460D02*X59843D01*
X60338Y325965D02*X59843Y326460D01*
X60338Y325965D02*X59843Y325470D01*
X58358D02*X59843D01*
X58358D02*X57863Y325965D01*
X60338Y326955D02*X59843Y327450D01*
X56675Y324975D02*Y324480D01*
Y327450D02*Y325965D01*
X53705Y327450D02*X55190D01*
X53705D02*X53210Y326955D01*
X53705Y326460D02*X53210Y326955D01*
X53705Y326460D02*X55190D01*
X55685Y325965D02*X55190Y326460D01*
X55685Y325965D02*X55190Y325470D01*
X53705D02*X55190D01*
X53705D02*X53210Y325965D01*
X55685Y326955D02*X55190Y327450D01*
X27300Y416702D02*Y385993D01*
Y416702D02*X58008D01*
Y385993D01*
X27300D02*X58008D01*
X26314Y385009D03*
X63500Y484000D02*Y486000D01*
X64500Y485000D01*
X63500Y486000D02*X62500Y485000D01*
X54000Y481000D02*X52500D01*
X64000D02*X62500D01*
X76000D02*X74500D01*
Y482500D02*Y479500D01*
X76500Y482500D02*X74500D01*
Y479500D02*X76500D01*
X71500Y476500D02*X70500Y477500D01*
X72500D02*X71500Y476500D01*
X72500Y482500D02*Y477500D01*
X71500Y479500D02*X72500D01*
X70500Y480500D02*X71500Y479500D01*
X70500Y481500D02*Y480500D01*
X71500Y482500D02*X70500Y481500D01*
X72500Y482500D02*X71500D01*
X68500Y479500D02*Y485500D01*
X67500Y479500D02*X68500D01*
X66500Y480500D02*X67500Y479500D01*
X66500Y481500D02*Y480500D01*
X67500Y482500D02*X66500Y481500D01*
X68500Y482500D02*X67500D01*
X62500D02*Y479500D01*
X64500Y482500D02*X62500D01*
Y479500D02*X64500D01*
X59500Y481500D02*X58500Y482500D01*
X56500Y479500D02*Y482500D01*
X57500D02*X56500Y481500D01*
X58500Y482500D02*X57500D01*
X52500D02*Y479500D01*
X54500Y482500D02*X52500D01*
Y479500D02*X54500D01*
X50500Y480500D02*Y482500D01*
X49500Y479500D02*X50500Y480500D01*
X48500D02*X49500Y479500D01*
X48500Y482500D02*Y480500D01*
X45500Y479500D02*X44500D01*
X46500Y480500D02*X45500Y479500D01*
X46500Y481500D02*Y480500D01*
X45500Y482500D02*X46500Y481500D01*
X44500Y482500D02*X45500D01*
X43500Y481500D02*X44500Y482500D01*
X43500Y480500D02*Y481500D01*
X44500Y479500D02*X43500Y480500D01*
X40500Y483500D02*X38500D01*
X39500Y485500D02*Y479500D01*
X33500D02*Y482500D01*
X34500D02*X33500Y481500D01*
X35500Y482500D02*X34500D01*
X36500Y481500D02*X35500Y482500D01*
X30500Y480500D02*X31500Y479500D01*
X29500Y482500D02*X28500D01*
X30500Y481500D02*X29500Y482500D01*
X30500Y480500D02*Y481500D01*
X29500Y479500D02*X30500Y480500D01*
X28500Y479500D02*X29500D01*
X27500Y480500D02*X28500Y479500D01*
X27500Y481500D02*Y480500D01*
X28500Y482500D02*X27500Y481500D01*
X25500Y482500D02*X23500D01*
X26500Y483500D02*X25500Y482500D01*
X26500Y484500D02*Y483500D01*
X25500Y485500D02*X26500Y484500D01*
X23500Y485500D02*X25500D01*
X23500D02*Y479500D01*
X53500Y472500D02*Y470000D01*
X55000Y471000D02*X53500Y472500D01*
X56500D02*X55000Y471000D01*
X56500Y470000D02*Y472500D01*
X58000Y474000D02*Y475000D01*
Y472000D02*Y470000D01*
X60000Y475000D02*Y470000D01*
X41500Y475000D02*X42500D01*
X40500Y474000D02*X41500Y475000D01*
X46500Y470000D02*X45500Y471000D01*
X47500Y470000D02*X46500D01*
X48500Y471000D02*X47500Y470000D01*
X48500Y472000D02*Y471000D01*
X47500Y473000D02*X48500Y472000D01*
X45500Y473000D02*X47500D01*
X45500Y475000D02*Y473000D01*
X48500Y475000D02*X45500D01*
X43500Y473000D02*X40500Y470000D01*
X43500Y474000D02*Y473000D01*
X42500Y475000D02*X43500Y474000D01*
X40500Y470000D02*X43500D01*
X21000Y430150D02*Y451000D01*
X79000Y469000D02*Y487350D01*
X21000D02*X79000D01*
X21000Y430150D02*X79000D01*
Y451000D01*
X21000Y469000D02*Y487320D01*
X72000Y363000D02*Y348000D01*
Y408000D02*Y393000D01*
X67000D02*Y363000D01*
Y393000D02*X77000D01*
Y363000D01*
X67000D02*X77000D01*
X24500Y339500D02*X44500D01*
X24500D02*Y329500D01*
X44500D01*
Y339500D02*Y329500D01*
X34500Y339500D02*Y329500D01*
X44500D01*
G54D57*X51600Y369400D02*Y360100D01*
X32500D02*X51600D01*
X32500Y369400D02*Y360100D01*
Y369400D02*X51600D01*
G54D56*X71000Y329500D02*X81000D01*
X71000Y339500D02*Y329500D01*
X81000Y339500D02*Y329500D01*
X61000D02*X81000D01*
X61000Y339500D02*Y329500D01*
Y339500D02*X81000D01*
X21410Y398984D02*X25410D01*
Y400984D02*Y398984D01*
Y403684D02*Y402684D01*
X21410Y403184D02*X25410D01*
X22410Y402184D02*X21410Y403184D01*
X22140Y423260D02*X23640D01*
X21640Y423760D02*X22140Y423260D01*
X21640Y426760D02*Y423760D01*
Y426760D02*X22140Y427260D01*
X23640D01*
X24840Y426760D02*Y423760D01*
Y426760D02*X25340Y427260D01*
X26340D01*
X26840Y426760D01*
Y423760D01*
X26340Y423260D02*X26840Y423760D01*
X25340Y423260D02*X26340D01*
X24840Y423760D02*X25340Y423260D01*
X28040Y427260D02*Y423260D01*
Y427260D02*Y426760D01*
X30540Y424260D01*
Y427260D02*Y423260D01*
X31740Y427260D02*Y423260D01*
Y427260D02*Y426760D01*
X34240Y424260D01*
Y427260D02*Y423260D01*
X35440Y426760D02*X35940Y427260D01*
X37440D01*
X37940Y426760D01*
Y425760D01*
X35440Y423260D02*X37940Y425760D01*
X35440Y423260D02*X37940D01*
X65000Y377000D02*Y375500D01*
X64500Y375000D02*X65000Y375500D01*
X61500Y375000D02*X64500D01*
X61500D02*X61000Y375500D01*
Y377000D02*Y375500D01*
X65000Y379700D02*Y378700D01*
X61000Y379200D02*X65000D01*
X62000Y378200D02*X61000Y379200D01*
X40000Y328000D02*X41500D01*
X42000Y327500D02*X41500Y328000D01*
X42000Y327500D02*Y324500D01*
X41500Y324000D01*
X40000D02*X41500D01*
X38800Y327500D02*Y324500D01*
X38300Y324000D01*
X37300D02*X38300D01*
X37300D02*X36800Y324500D01*
Y327500D02*Y324500D01*
X37300Y328000D02*X36800Y327500D01*
X37300Y328000D02*X38300D01*
X38800Y327500D02*X38300Y328000D01*
X35600D02*Y324000D01*
Y324500D02*Y324000D01*
Y324500D02*X33100Y327000D01*
Y328000D02*Y324000D01*
X31900Y328000D02*Y324000D01*
Y324500D02*Y324000D01*
Y324500D02*X29400Y327000D01*
Y328000D02*Y324000D01*
X26700Y328000D02*X27700D01*
X27200D02*Y324000D01*
X28200Y325000D02*X27200Y324000D01*
X39100Y376200D02*X41100D01*
X41600Y375700D01*
Y374700D01*
X41100Y374200D02*X41600Y374700D01*
X39600Y374200D02*X41100D01*
X39600Y376200D02*Y372200D01*
Y374200D02*X41600Y372200D01*
X43300D02*X44300D01*
X43800Y376200D02*Y372200D01*
X42800Y375200D02*X43800Y376200D01*
X79500Y323500D02*X81000D01*
X79500Y327000D02*Y323500D01*
X80000Y327500D02*X79500Y327000D01*
X80000Y327500D02*X80500D01*
X81000Y327000D02*X80500Y327500D01*
X76800D02*X77800D01*
X77300D02*Y323500D01*
X78300Y324500D02*X77300Y323500D01*
M02*
