G04 start of page 2 for group 0 idx 0 *
G04 Title: (unknown), component *
G04 Creator: pcb 20110918 *
G04 CreationDate: Thu Mar  7 19:43:21 2013 UTC *
G04 For: fosse *
G04 Format: Gerber/RS-274X *
G04 PCB-Dimensions: 100000 200000 *
G04 PCB-Coordinate-Origin: lower left *
%MOIN*%
%FSLAX25Y25*%
%LNTOP*%
%ADD128C,0.0320*%
%ADD127C,0.0790*%
%ADD126C,0.0380*%
%ADD125C,0.0500*%
%ADD124R,0.0740X0.0740*%
%ADD123R,0.1143X0.1143*%
%ADD122C,0.2000*%
%ADD121C,0.0600*%
%ADD120C,0.0700*%
%ADD119C,0.0001*%
%ADD118C,0.0800*%
%ADD117C,0.0350*%
%ADD116C,0.0250*%
%ADD115C,0.0400*%
G54D115*X33500Y92193D02*Y92000D01*
X22000Y80500D01*
Y42000D01*
G54D116*X54307Y108000D02*X51807Y110500D01*
G54D117*X72000Y108000D02*X54307D01*
G54D115*X22000Y42000D02*X29500Y34500D01*
X72000Y48000D02*X50500Y61500D01*
X39500Y34500D02*X33500Y61500D01*
G54D117*Y110500D02*X41000Y137500D01*
X51807Y110500D02*X51000Y137500D01*
G54D118*X72000Y108000D03*
G54D119*G36*
X68000Y52000D02*Y44000D01*
X76000D01*
Y52000D01*
X68000D01*
G37*
G36*
X36000Y38000D02*Y31000D01*
X43000D01*
Y38000D01*
X36000D01*
G37*
G54D120*X29500Y34500D03*
G54D119*G36*
X73000Y37500D02*Y31500D01*
X79000D01*
Y37500D01*
X73000D01*
G37*
G54D121*X66000Y34500D03*
G54D122*X31000Y157500D03*
X71000D03*
G54D118*X41000Y137500D03*
X51000D03*
G54D123*X33500Y110500D02*Y92193D01*
X51807Y110500D02*Y92193D01*
G54D124*X33500Y67900D02*Y61500D01*
X50500Y67900D02*Y61500D01*
G54D121*X33500Y67900D03*
X50500Y61500D03*
X33500Y92193D03*
X51807Y110500D03*
G54D117*G54D125*G54D126*G54D127*G54D128*M02*
