G04 start of page 2 for group 17 layer_idx 11 *
G04 Title: (unknown), bottom_mask *
G04 Creator: pcb-rnd 3.1.8-dev *
G04 CreationDate: 2025-10-15 02:10:24 UTC *
G04 For:  *
G04 Format: Gerber/RS-274X *
G04 PCB-Dimensions: 300000 400000 *
G04 PCB-Coordinate-Origin: lower left *
%MOIN*%
%FSLAX25Y25*%
%LNBOTTOM_MASK_NONE_17*%
%ADD101C,0.0660*%
%ADD100C,0.0860*%
%ADD99C,0.0886*%
%ADD98C,0.1678*%
%ADD97C,0.0760*%
%ADD96C,0.0001*%
G54D96*G36*
X48700Y139300D02*X56300D01*
Y131700D01*
X48700D01*
Y139300D01*
G37*
G54D97*X42500Y135500D03*
G54D98*X144000Y258500D03*
X184000D03*
G54D96*G36*
X159571Y242929D02*Y234071D01*
X168429D01*
Y242929D01*
X159571D01*
G37*
G54D99*X154000Y238500D03*
G54D100*X185000Y209000D03*
G54D98*X44000Y258500D03*
G54D99*X54000Y238500D03*
G54D100*X85000Y209000D03*
G54D98*X84000Y258500D03*
G54D96*G36*
X59571Y242929D02*Y234071D01*
X68429D01*
Y242929D01*
X59571D01*
G37*
G36*
X80700Y153300D02*X89300D01*
Y144700D01*
X80700D01*
Y153300D01*
G37*
G36*
X85700Y138800D02*X92300D01*
Y132200D01*
X85700D01*
Y138800D01*
G37*
G54D101*X79000Y135500D03*
G54D96*G36*
X180700Y153300D02*X189300D01*
Y144700D01*
X180700D01*
Y153300D01*
G37*
G36*
X148700Y139300D02*X156300D01*
Y131700D01*
X148700D01*
Y139300D01*
G37*
G54D97*X142500Y135500D03*
G54D96*G36*
X185700Y138800D02*X192300D01*
Y132200D01*
X185700D01*
Y138800D01*
G37*
G54D101*X179000Y135500D03*
M02*
