M48
INCH
T14C0.052
T13C0.038
T12C0.035
T11C0.079
%
T12
G05
X004650Y016890
X004650Y019319
X006350Y016250
X006481Y021150
X014650Y016890
X016350Y016250
X014650Y019319
X016481Y021150
X006400Y023850
X005400Y023850
X016400Y023850
X015400Y023850
T13
X005250Y013550
X004250Y013550
X007900Y013550
X008900Y013550
X015250Y013550
X014250Y013550
X017900Y013550
X018900Y013550
T14
X008500Y014900
X018500Y014900
X008500Y020900
X018500Y020900
T11
X004400Y025850
X008400Y025850
X014400Y025850
X018400Y025850
M30
