M48
INCH
T14C0.052
T13C0.086
T12C0.038
T11C0.035
%
T11
G05
X003350Y006726
X003350Y009155
X005181Y010986
X005050Y006086
X013350Y006726
X015050Y006086
X013350Y009155
X014100Y013686
X015100Y013686
X015181Y010986
X004100Y013686
X005100Y013686
T12
X003950Y003386
X002950Y003386
X007600Y003386
X006600Y003386
X013950Y003386
X012950Y003386
X017600Y003386
X016600Y003386
T14
X017200Y010736
X007200Y010736
X007200Y004736
X017200Y004736
T13
X013100Y015686
X017100Y015686
X003100Y015686
X007100Y015686
M30
