M48
INCH
T14C0.052
T13C0.079
T12C0.038
T11C0.035
%
T11
G05
X004650Y019319
X006481Y021150
X014650Y019319
X016400Y023850
X015400Y023850
X016481Y021150
X005400Y023850
X006400Y023850
T12
X005250Y013550
X004250Y013550
X008900Y013550
X007900Y013550
X015250Y013550
X014250Y013550
X018900Y013550
X017900Y013550
T14
X018500Y020900
X008500Y020900
X008500Y014900
X018500Y014900
T13
X014400Y025850
X018400Y025850
X004400Y025850
X008400Y025850
M30
