G04 start of page 2 for group 3 layer_idx 0 *
G04 Title: (unknown), top_copper *
G04 Creator: pcb-rnd 3.1.8-dev *
G04 CreationDate: 2025-10-15 01:59:16 UTC *
G04 For:  *
G04 Format: Gerber/RS-274X *
G04 PCB-Dimensions: 300000 400000 *
G04 PCB-Coordinate-Origin: lower left *
%MOIN*%
%FSLAX25Y25*%
%LNTOP_COPPER_NONE_3*%
%ADD22C,0.0520*%
%ADD21C,0.0380*%
%ADD20C,0.0790*%
%ADD19C,0.0787*%
%ADD18C,0.0800*%
%ADD17C,0.0700*%
%ADD16C,0.0600*%
%ADD15C,0.0001*%
%ADD14C,0.1580*%
%ADD13C,0.0250*%
%ADD12C,0.0400*%
%ADD11C,0.0350*%
G54D11*X64807Y211500D02*X64000Y238500D01*
X46500Y211500D02*X54000Y238500D01*
G54D12*X46500Y193193D02*Y193000D01*
G54D13*X67307Y209000D02*X64807Y211500D01*
G54D11*X85000Y209000D02*X67307D01*
G54D12*X46500Y193000D02*X35000Y181500D01*
Y143000D01*
X42500Y135500D01*
X85000Y149000D02*X63500Y162500D01*
X52500Y135500D02*X46500Y162500D01*
G54D11*X164807Y211500D02*X164000Y238500D01*
X146500Y211500D02*X154000Y238500D01*
G54D12*X146500Y193193D02*Y193000D01*
G54D13*X167307Y209000D02*X164807Y211500D01*
G54D11*X185000Y209000D02*X167307D01*
G54D12*X146500Y193000D02*X135000Y181500D01*
Y143000D01*
X142500Y135500D01*
X185000Y149000D02*X163500Y162500D01*
X152500Y135500D02*X146500Y162500D01*
G54D14*X44000Y258500D03*
X84000D03*
X144000D03*
X184000D03*
G54D15*G36*
X52216Y217216D02*X40784D01*
Y187476D01*
X52216D01*
Y217216D01*
G37*
G36*
X50200Y172600D02*X42800D01*
Y158800D01*
X50200D01*
Y172600D01*
G37*
G54D16*X46500Y168900D03*
Y193193D03*
G54D15*G36*
X70524Y217216D02*X59090D01*
Y187476D01*
X70524D01*
Y217216D01*
G37*
G36*
X67200Y172600D02*X59800D01*
Y158800D01*
X67200D01*
Y172600D01*
G37*
G54D16*X63500Y162500D03*
X64807Y211500D03*
G54D15*G36*
X49000Y139000D02*X56000D01*
Y132000D01*
X49000D01*
Y139000D01*
G37*
G54D17*X42500Y135500D03*
G54D16*X79000D03*
G54D15*G36*
X81000Y153000D02*X89000D01*
Y145000D01*
X81000D01*
Y153000D01*
G37*
G36*
X86000Y138500D02*X92000D01*
Y132500D01*
X86000D01*
Y138500D01*
G37*
G36*
X181000Y153000D02*X189000D01*
Y145000D01*
X181000D01*
Y153000D01*
G37*
G36*
X149000Y139000D02*X156000D01*
Y132000D01*
X149000D01*
Y139000D01*
G37*
G54D17*X142500Y135500D03*
G54D16*X179000D03*
G54D15*G36*
X150200Y172600D02*X142800D01*
Y158800D01*
X150200D01*
Y172600D01*
G37*
G54D16*X146500Y168900D03*
G54D15*G36*
X167200Y172600D02*X159800D01*
Y158800D01*
X167200D01*
Y172600D01*
G37*
G54D16*X163500Y162500D03*
G54D15*G36*
X186000Y138500D02*X192000D01*
Y132500D01*
X186000D01*
Y138500D01*
G37*
G54D18*X85000Y209000D03*
G54D15*G36*
X152216Y217216D02*X140784D01*
Y187476D01*
X152216D01*
Y217216D01*
G37*
G36*
X170524D02*X159090D01*
Y187476D01*
X170524D01*
Y217216D01*
G37*
G54D18*X185000Y209000D03*
G54D16*X146500Y193193D03*
X164807Y211500D03*
G54D15*G36*
X60063Y242437D02*Y234563D01*
X67937D01*
Y242437D01*
X60063D01*
G37*
G54D19*X54000Y238500D03*
G54D15*G36*
X160063Y242437D02*Y234563D01*
X167937D01*
Y242437D01*
X160063D01*
G37*
G54D19*X154000Y238500D03*
G54D20*G54D11*G54D21*G54D22*G54D21*G54D22*G54D21*G54D11*G54D21*G54D22*G54D11*M02*
