G04 start of page 2 for group -1 layer_idx 268435461 *
G04 Title: (unknown), <virtual group> *
G04 Creator: pcb-rnd 2.3.0 *
G04 CreationDate: 2021-01-19 15:55:11 UTC *
G04 For:  *
G04 Format: Gerber/RS-274X *
G04 PCB-Dimensions: 200000 200000 *
G04 PCB-Coordinate-Origin: lower left *
%MOIN*%
%FSLAX25Y25*%
%LNLOGICAL_VIRTUAL_FAB_NONE*%
%ADD118C,0.0100*%
%ADD117C,0.0060*%
%ADD116C,0.0080*%
G54D116*X130200Y156860D02*G75*G03X131800Y156860I800J0D01*G01*
G75*G03X130200Y156860I-800J0D01*G01*
X170200D02*G75*G03X171800Y156860I800J0D01*G01*
G75*G03X170200Y156860I-800J0D01*G01*
X30200D02*G75*G03X31800Y156860I800J0D01*G01*
G75*G03X30200Y156860I-800J0D01*G01*
X70200D02*G75*G03X71800Y156860I800J0D01*G01*
G75*G03X70200Y156860I-800J0D01*G01*
X14200Y211250D02*G75*G03X15800Y211250I800J0D01*G01*
G75*G03X14200Y211250I-800J0D01*G01*
G54D117*X135000Y213500D02*Y212750D01*
X136500Y211250D01*
X138000Y212750D01*
Y213500D02*Y212750D01*
X136500Y211250D02*Y207500D01*
X139800Y210500D02*X142050D01*
X139800Y207500D02*X142800D01*
X139800Y213500D02*Y207500D01*
Y213500D02*X142800D01*
X147600D02*X148350Y212750D01*
X145350Y213500D02*X147600D01*
X144600Y212750D02*X145350Y213500D01*
X144600Y212750D02*Y211250D01*
X145350Y210500D01*
X147600D01*
X148350Y209750D01*
Y208250D01*
X147600Y207500D02*X148350Y208250D01*
X145350Y207500D02*X147600D01*
X144600Y208250D02*X145350Y207500D01*
X98000Y210500D02*X101000Y213500D01*
X98000Y210500D02*X101750D01*
X101000Y213500D02*Y207500D01*
X45000Y208250D02*X45750Y207500D01*
X45000Y212750D02*Y208250D01*
Y212750D02*X45750Y213500D01*
X47250D01*
X48000Y212750D01*
Y208250D01*
X47250Y207500D02*X48000Y208250D01*
X45750Y207500D02*X47250D01*
X45000Y209000D02*X48000Y212000D01*
X49800Y207500D02*X50550D01*
X52350Y208250D02*X53100Y207500D01*
X52350Y212750D02*Y208250D01*
Y212750D02*X53100Y213500D01*
X54600D01*
X55350Y212750D01*
Y208250D01*
X54600Y207500D02*X55350Y208250D01*
X53100Y207500D02*X54600D01*
X52350Y209000D02*X55350Y212000D01*
X57150Y208250D02*X57900Y207500D01*
X57150Y209750D02*Y208250D01*
Y209750D02*X57900Y210500D01*
X59400D01*
X60150Y209750D01*
Y208250D01*
X59400Y207500D02*X60150Y208250D01*
X57900Y207500D02*X59400D01*
X57150Y211250D02*X57900Y210500D01*
X57150Y212750D02*Y211250D01*
Y212750D02*X57900Y213500D01*
X59400D01*
X60150Y212750D01*
Y211250D01*
X59400Y210500D02*X60150Y211250D01*
X64200Y213500D02*X64950Y212750D01*
X62700Y213500D02*X64200D01*
X61950Y212750D02*X62700Y213500D01*
X61950Y212750D02*Y208250D01*
X62700Y207500D01*
X64200Y210500D02*X64950Y209750D01*
X61950Y210500D02*X64200D01*
X62700Y207500D02*X64200D01*
X64950Y208250D01*
Y209750D02*Y208250D01*
X170800Y108560D02*X173200Y106160D01*
X170800D02*X173200Y108560D01*
X70800D02*X73200Y106160D01*
X70800D02*X73200Y108560D01*
X70800Y48560D02*X73200Y46160D01*
X70800D02*X73200Y48560D01*
X170800D02*X173200Y46160D01*
X170800D02*X173200Y48560D01*
X13800Y227450D02*X16200Y225050D01*
X13800D02*X16200Y227450D01*
X135000Y228500D02*Y227750D01*
X136500Y226250D01*
X138000Y227750D01*
Y228500D02*Y227750D01*
X136500Y226250D02*Y222500D01*
X139800Y225500D02*X142050D01*
X139800Y222500D02*X142800D01*
X139800Y228500D02*Y222500D01*
Y228500D02*X142800D01*
X147600D02*X148350Y227750D01*
X145350Y228500D02*X147600D01*
X144600Y227750D02*X145350Y228500D01*
X144600Y227750D02*Y226250D01*
X145350Y225500D01*
X147600D01*
X148350Y224750D01*
Y223250D01*
X147600Y222500D02*X148350Y223250D01*
X145350Y222500D02*X147600D01*
X144600Y223250D02*X145350Y222500D01*
X98000Y225500D02*X101000Y228500D01*
X98000Y225500D02*X101750D01*
X101000Y228500D02*Y222500D01*
X45000Y223250D02*X45750Y222500D01*
X45000Y227750D02*Y223250D01*
Y227750D02*X45750Y228500D01*
X47250D01*
X48000Y227750D01*
Y223250D01*
X47250Y222500D02*X48000Y223250D01*
X45750Y222500D02*X47250D01*
X45000Y224000D02*X48000Y227000D01*
X49800Y222500D02*X50550D01*
X52350Y223250D02*X53100Y222500D01*
X52350Y227750D02*Y223250D01*
Y227750D02*X53100Y228500D01*
X54600D01*
X55350Y227750D01*
Y223250D01*
X54600Y222500D02*X55350Y223250D01*
X53100Y222500D02*X54600D01*
X52350Y224000D02*X55350Y227000D01*
X57150Y228500D02*X60150D01*
X57150D02*Y225500D01*
X57900Y226250D01*
X59400D01*
X60150Y225500D01*
Y223250D01*
X59400Y222500D02*X60150Y223250D01*
X57900Y222500D02*X59400D01*
X57150Y223250D02*X57900Y222500D01*
X61950Y227750D02*X62700Y228500D01*
X64950D01*
X65700Y227750D01*
Y226250D01*
X61950Y222500D02*X65700Y226250D01*
X61950Y222500D02*X65700D01*
X39500Y35460D02*Y32260D01*
X37900Y33860D02*X41100D01*
X29500Y35460D02*Y32260D01*
X27900Y33860D02*X31100D01*
X76000Y35460D02*Y32260D01*
X74400Y33860D02*X77600D01*
X66000Y35460D02*Y32260D01*
X64400Y33860D02*X67600D01*
X139500Y35460D02*Y32260D01*
X137900Y33860D02*X141100D01*
X129500Y35460D02*Y32260D01*
X127900Y33860D02*X131100D01*
X176000Y35460D02*Y32260D01*
X174400Y33860D02*X177600D01*
X166000Y35460D02*Y32260D01*
X164400Y33860D02*X167600D01*
X15000Y242850D02*Y239650D01*
X13400Y241250D02*X16600D01*
X135000Y243500D02*Y242750D01*
X136500Y241250D01*
X138000Y242750D01*
Y243500D02*Y242750D01*
X136500Y241250D02*Y237500D01*
X139800Y240500D02*X142050D01*
X139800Y237500D02*X142800D01*
X139800Y243500D02*Y237500D01*
Y243500D02*X142800D01*
X147600D02*X148350Y242750D01*
X145350Y243500D02*X147600D01*
X144600Y242750D02*X145350Y243500D01*
X144600Y242750D02*Y241250D01*
X145350Y240500D01*
X147600D01*
X148350Y239750D01*
Y238250D01*
X147600Y237500D02*X148350Y238250D01*
X145350Y237500D02*X147600D01*
X144600Y238250D02*X145350Y237500D01*
X98000Y238250D02*X98750Y237500D01*
X98000Y239750D02*Y238250D01*
Y239750D02*X98750Y240500D01*
X100250D01*
X101000Y239750D01*
Y238250D01*
X100250Y237500D02*X101000Y238250D01*
X98750Y237500D02*X100250D01*
X98000Y241250D02*X98750Y240500D01*
X98000Y242750D02*Y241250D01*
Y242750D02*X98750Y243500D01*
X100250D01*
X101000Y242750D01*
Y241250D01*
X100250Y240500D02*X101000Y241250D01*
X45000Y238250D02*X45750Y237500D01*
X45000Y242750D02*Y238250D01*
Y242750D02*X45750Y243500D01*
X47250D01*
X48000Y242750D01*
Y238250D01*
X47250Y237500D02*X48000Y238250D01*
X45750Y237500D02*X47250D01*
X45000Y239000D02*X48000Y242000D01*
X49800Y237500D02*X50550D01*
X52350Y238250D02*X53100Y237500D01*
X52350Y242750D02*Y238250D01*
Y242750D02*X53100Y243500D01*
X54600D01*
X55350Y242750D01*
Y238250D01*
X54600Y237500D02*X55350Y238250D01*
X53100Y237500D02*X54600D01*
X52350Y239000D02*X55350Y242000D01*
X57150Y242750D02*X57900Y243500D01*
X59400D01*
X60150Y242750D01*
Y238250D01*
X59400Y237500D02*X60150Y238250D01*
X57900Y237500D02*X59400D01*
X57150Y238250D02*X57900Y237500D01*
Y240500D02*X60150D01*
X61950Y238250D02*X62700Y237500D01*
X61950Y239750D02*Y238250D01*
Y239750D02*X62700Y240500D01*
X64200D01*
X64950Y239750D01*
Y238250D01*
X64200Y237500D02*X64950Y238250D01*
X62700Y237500D02*X64200D01*
X61950Y241250D02*X62700Y240500D01*
X61950Y242750D02*Y241250D01*
Y242750D02*X62700Y243500D01*
X64200D01*
X64950Y242750D01*
Y241250D01*
X64200Y240500D02*X64950Y241250D01*
X33500Y67260D02*Y65660D01*
Y67260D02*X34887Y68060D01*
X33500Y67260D02*X32113Y68060D01*
X33500Y91553D02*Y89953D01*
Y91553D02*X34887Y92353D01*
X33500Y91553D02*X32113Y92353D01*
X51807Y109860D02*Y108260D01*
Y109860D02*X53194Y110660D01*
X51807Y109860D02*X50420Y110660D01*
X50500Y60860D02*Y59260D01*
Y60860D02*X51887Y61660D01*
X50500Y60860D02*X49113Y61660D01*
X133500Y67260D02*Y65660D01*
Y67260D02*X134887Y68060D01*
X133500Y67260D02*X132113Y68060D01*
X150500Y60860D02*Y59260D01*
Y60860D02*X151887Y61660D01*
X150500Y60860D02*X149113Y61660D01*
X133500Y91553D02*Y89953D01*
Y91553D02*X134887Y92353D01*
X133500Y91553D02*X132113Y92353D01*
X141000Y136860D02*Y135260D01*
Y136860D02*X142387Y137660D01*
X141000Y136860D02*X139613Y137660D01*
X151000Y136860D02*Y135260D01*
Y136860D02*X152387Y137660D01*
X151000Y136860D02*X149613Y137660D01*
X151807Y109860D02*Y108260D01*
Y109860D02*X153194Y110660D01*
X151807Y109860D02*X150420Y110660D01*
X41000Y136860D02*Y135260D01*
Y136860D02*X42387Y137660D01*
X41000Y136860D02*X39613Y137660D01*
X51000Y136860D02*Y135260D01*
Y136860D02*X52387Y137660D01*
X51000Y136860D02*X49613Y137660D01*
X15000Y256250D02*Y254650D01*
Y256250D02*X16387Y257050D01*
X15000Y256250D02*X13613Y257050D01*
X135000Y258500D02*Y257750D01*
X136500Y256250D01*
X138000Y257750D01*
Y258500D02*Y257750D01*
X136500Y256250D02*Y252500D01*
X139800Y255500D02*X142050D01*
X139800Y252500D02*X142800D01*
X139800Y258500D02*Y252500D01*
Y258500D02*X142800D01*
X147600D02*X148350Y257750D01*
X145350Y258500D02*X147600D01*
X144600Y257750D02*X145350Y258500D01*
X144600Y257750D02*Y256250D01*
X145350Y255500D01*
X147600D01*
X148350Y254750D01*
Y253250D01*
X147600Y252500D02*X148350Y253250D01*
X145350Y252500D02*X147600D01*
X144600Y253250D02*X145350Y252500D01*
X98750D02*X100250D01*
X99500Y258500D02*Y252500D01*
X98000Y257000D02*X99500Y258500D01*
X102050Y257750D02*X102800Y258500D01*
X105050D01*
X105800Y257750D01*
Y256250D01*
X102050Y252500D02*X105800Y256250D01*
X102050Y252500D02*X105800D01*
X45000Y253250D02*X45750Y252500D01*
X45000Y257750D02*Y253250D01*
Y257750D02*X45750Y258500D01*
X47250D01*
X48000Y257750D01*
Y253250D01*
X47250Y252500D02*X48000Y253250D01*
X45750Y252500D02*X47250D01*
X45000Y254000D02*X48000Y257000D01*
X49800Y252500D02*X50550D01*
X52350Y253250D02*X53100Y252500D01*
X52350Y257750D02*Y253250D01*
Y257750D02*X53100Y258500D01*
X54600D01*
X55350Y257750D01*
Y253250D01*
X54600Y252500D02*X55350Y253250D01*
X53100Y252500D02*X54600D01*
X52350Y254000D02*X55350Y257000D01*
X57150Y257750D02*X57900Y258500D01*
X59400D01*
X60150Y257750D01*
Y253250D01*
X59400Y252500D02*X60150Y253250D01*
X57900Y252500D02*X59400D01*
X57150Y253250D02*X57900Y252500D01*
Y255500D02*X60150D01*
X61950Y258500D02*X64950D01*
X61950D02*Y255500D01*
X62700Y256250D01*
X64200D01*
X64950Y255500D01*
Y253250D01*
X64200Y252500D02*X64950Y253250D01*
X62700Y252500D02*X64200D01*
X61950Y253250D02*X62700Y252500D01*
X3000Y273500D02*X3750Y272750D01*
X750Y273500D02*X3000D01*
X0Y272750D02*X750Y273500D01*
X0Y272750D02*Y271250D01*
X750Y270500D01*
X3000D01*
X3750Y269750D01*
Y268250D01*
X3000Y267500D02*X3750Y268250D01*
X750Y267500D02*X3000D01*
X0Y268250D02*X750Y267500D01*
X5550Y270500D02*Y268250D01*
X6300Y267500D01*
X8550Y270500D02*Y266000D01*
X7800Y265250D02*X8550Y266000D01*
X6300Y265250D02*X7800D01*
X5550Y266000D02*X6300Y265250D01*
Y267500D02*X7800D01*
X8550Y268250D01*
X11100Y269750D02*Y267500D01*
Y269750D02*X11850Y270500D01*
X12600D01*
X13350Y269750D01*
Y267500D01*
Y269750D02*X14100Y270500D01*
X14850D01*
X15600Y269750D01*
Y267500D01*
X10350Y270500D02*X11100Y269750D01*
X17400Y273500D02*Y267500D01*
Y268250D02*X18150Y267500D01*
X19650D01*
X20400Y268250D01*
Y269750D02*Y268250D01*
X19650Y270500D02*X20400Y269750D01*
X18150Y270500D02*X19650D01*
X17400Y269750D02*X18150Y270500D01*
X22200Y269750D02*Y268250D01*
Y269750D02*X22950Y270500D01*
X24450D01*
X25200Y269750D01*
Y268250D01*
X24450Y267500D02*X25200Y268250D01*
X22950Y267500D02*X24450D01*
X22200Y268250D02*X22950Y267500D01*
X27000Y273500D02*Y268250D01*
X27750Y267500D01*
X0Y264250D02*X29250D01*
X41750Y273500D02*Y267500D01*
X44000Y273500D02*X44750Y272750D01*
Y268250D01*
X44000Y267500D02*X44750Y268250D01*
X41000Y267500D02*X44000D01*
X41000Y273500D02*X44000D01*
X46550Y272000D02*Y271250D01*
Y269750D02*Y267500D01*
X50300Y270500D02*X51050Y269750D01*
X48800Y270500D02*X50300D01*
X48050Y269750D02*X48800Y270500D01*
X48050Y269750D02*Y268250D01*
X48800Y267500D01*
X51050Y270500D02*Y268250D01*
X51800Y267500D01*
X48800D02*X50300D01*
X51050Y268250D01*
X54350Y269750D02*Y267500D01*
Y269750D02*X55100Y270500D01*
X55850D01*
X56600Y269750D01*
Y267500D01*
Y269750D02*X57350Y270500D01*
X58100D01*
X58850Y269750D01*
Y267500D01*
X53600Y270500D02*X54350Y269750D01*
X60650Y267500D02*X61400D01*
X65900Y268250D02*X66650Y267500D01*
X65900Y272750D02*X66650Y273500D01*
X65900Y272750D02*Y268250D01*
X68450Y273500D02*X69950D01*
X69200D02*Y267500D01*
X68450D02*X69950D01*
X72500Y269750D02*Y267500D01*
Y269750D02*X73250Y270500D01*
X74000D01*
X74750Y269750D01*
Y267500D01*
X71750Y270500D02*X72500Y269750D01*
X77300Y270500D02*X79550D01*
X76550Y269750D02*X77300Y270500D01*
X76550Y269750D02*Y268250D01*
X77300Y267500D01*
X79550D01*
X81350Y273500D02*Y267500D01*
Y269750D02*X82100Y270500D01*
X83600D01*
X84350Y269750D01*
Y267500D01*
X86150Y273500D02*X86900Y272750D01*
Y268250D01*
X86150Y267500D02*X86900Y268250D01*
X41000Y264250D02*X88700D01*
X95750Y267500D02*X98000D01*
X95000Y268250D02*X95750Y267500D01*
X95000Y272750D02*Y268250D01*
Y272750D02*X95750Y273500D01*
X98000D01*
X99800Y269750D02*Y268250D01*
Y269750D02*X100550Y270500D01*
X102050D01*
X102800Y269750D01*
Y268250D01*
X102050Y267500D02*X102800Y268250D01*
X100550Y267500D02*X102050D01*
X99800Y268250D02*X100550Y267500D01*
X104600Y270500D02*Y268250D01*
X105350Y267500D01*
X106850D01*
X107600Y268250D01*
Y270500D02*Y268250D01*
X110150Y269750D02*Y267500D01*
Y269750D02*X110900Y270500D01*
X111650D01*
X112400Y269750D01*
Y267500D01*
X109400Y270500D02*X110150Y269750D01*
X114950Y273500D02*Y268250D01*
X115700Y267500D01*
X114200Y271250D02*X115700D01*
X95000Y264250D02*X117200D01*
X130750Y273500D02*Y267500D01*
X130000Y273500D02*X133000D01*
X133750Y272750D01*
Y271250D01*
X133000Y270500D02*X133750Y271250D01*
X130750Y270500D02*X133000D01*
X135550Y273500D02*Y268250D01*
X136300Y267500D01*
X140050Y270500D02*X140800Y269750D01*
X138550Y270500D02*X140050D01*
X137800Y269750D02*X138550Y270500D01*
X137800Y269750D02*Y268250D01*
X138550Y267500D01*
X140800Y270500D02*Y268250D01*
X141550Y267500D01*
X138550D02*X140050D01*
X140800Y268250D01*
X144100Y273500D02*Y268250D01*
X144850Y267500D01*
X143350Y271250D02*X144850D01*
X147100Y267500D02*X149350D01*
X146350Y268250D02*X147100Y267500D01*
X146350Y269750D02*Y268250D01*
Y269750D02*X147100Y270500D01*
X148600D01*
X149350Y269750D01*
X146350Y269000D02*X149350D01*
Y269750D01*
X154150Y273500D02*Y267500D01*
X153400D02*X154150Y268250D01*
X151900Y267500D02*X153400D01*
X151150Y268250D02*X151900Y267500D01*
X151150Y269750D02*Y268250D01*
Y269750D02*X151900Y270500D01*
X153400D01*
X154150Y269750D01*
X157450Y270500D02*Y269750D01*
Y268250D02*Y267500D01*
X155950Y272750D02*Y272000D01*
Y272750D02*X156700Y273500D01*
X158200D01*
X158950Y272750D01*
Y272000D01*
X157450Y270500D02*X158950Y272000D01*
X130000Y264250D02*X160750D01*
X0Y288500D02*X3000D01*
X1500D02*Y282500D01*
X4800Y288500D02*Y282500D01*
Y284750D02*X5550Y285500D01*
X7050D01*
X7800Y284750D01*
Y282500D01*
X10350D02*X12600D01*
X9600Y283250D02*X10350Y282500D01*
X9600Y284750D02*Y283250D01*
Y284750D02*X10350Y285500D01*
X11850D01*
X12600Y284750D01*
X9600Y284000D02*X12600D01*
Y284750D01*
X15150D02*Y282500D01*
Y284750D02*X15900Y285500D01*
X17400D01*
X14400D02*X15150Y284750D01*
X19950Y282500D02*X22200D01*
X19200Y283250D02*X19950Y282500D01*
X19200Y284750D02*Y283250D01*
Y284750D02*X19950Y285500D01*
X21450D01*
X22200Y284750D01*
X19200Y284000D02*X22200D01*
Y284750D01*
X28950Y285500D02*X29700Y284750D01*
X27450Y285500D02*X28950D01*
X26700Y284750D02*X27450Y285500D01*
X26700Y284750D02*Y283250D01*
X27450Y282500D01*
X29700Y285500D02*Y283250D01*
X30450Y282500D01*
X27450D02*X28950D01*
X29700Y283250D01*
X33000Y284750D02*Y282500D01*
Y284750D02*X33750Y285500D01*
X35250D01*
X32250D02*X33000Y284750D01*
X37800Y282500D02*X40050D01*
X37050Y283250D02*X37800Y282500D01*
X37050Y284750D02*Y283250D01*
Y284750D02*X37800Y285500D01*
X39300D01*
X40050Y284750D01*
X37050Y284000D02*X40050D01*
Y284750D01*
X44550Y285500D02*X47550Y288500D01*
X44550Y285500D02*X48300D01*
X47550Y288500D02*Y282500D01*
X55800Y288500D02*Y282500D01*
X55050D02*X55800Y283250D01*
X53550Y282500D02*X55050D01*
X52800Y283250D02*X53550Y282500D01*
X52800Y284750D02*Y283250D01*
Y284750D02*X53550Y285500D01*
X55050D01*
X55800Y284750D01*
X57600Y287000D02*Y286250D01*
Y284750D02*Y282500D01*
X59850Y287750D02*Y282500D01*
Y287750D02*X60600Y288500D01*
X61350D01*
X59100Y285500D02*X60600D01*
X63600Y287750D02*Y282500D01*
Y287750D02*X64350Y288500D01*
X65100D01*
X62850Y285500D02*X64350D01*
X67350Y282500D02*X69600D01*
X66600Y283250D02*X67350Y282500D01*
X66600Y284750D02*Y283250D01*
Y284750D02*X67350Y285500D01*
X68850D01*
X69600Y284750D01*
X66600Y284000D02*X69600D01*
Y284750D01*
X72150D02*Y282500D01*
Y284750D02*X72900Y285500D01*
X74400D01*
X71400D02*X72150Y284750D01*
X76950Y282500D02*X79200D01*
X76200Y283250D02*X76950Y282500D01*
X76200Y284750D02*Y283250D01*
Y284750D02*X76950Y285500D01*
X78450D01*
X79200Y284750D01*
X76200Y284000D02*X79200D01*
Y284750D01*
X81750D02*Y282500D01*
Y284750D02*X82500Y285500D01*
X83250D01*
X84000Y284750D01*
Y282500D01*
X81000Y285500D02*X81750Y284750D01*
X86550Y288500D02*Y283250D01*
X87300Y282500D01*
X85800Y286250D02*X87300D01*
X94500Y288500D02*Y282500D01*
X93750D02*X94500Y283250D01*
X92250Y282500D02*X93750D01*
X91500Y283250D02*X92250Y282500D01*
X91500Y284750D02*Y283250D01*
Y284750D02*X92250Y285500D01*
X93750D01*
X94500Y284750D01*
X97050D02*Y282500D01*
Y284750D02*X97800Y285500D01*
X99300D01*
X96300D02*X97050Y284750D01*
X101100Y287000D02*Y286250D01*
Y284750D02*Y282500D01*
X102600Y288500D02*Y283250D01*
X103350Y282500D01*
X104850Y288500D02*Y283250D01*
X105600Y282500D01*
X110550D02*X112800D01*
X113550Y283250D01*
X112800Y284000D02*X113550Y283250D01*
X110550Y284000D02*X112800D01*
X109800Y284750D02*X110550Y284000D01*
X109800Y284750D02*X110550Y285500D01*
X112800D01*
X113550Y284750D01*
X109800Y283250D02*X110550Y282500D01*
X115350Y287000D02*Y286250D01*
Y284750D02*Y282500D01*
X116850Y285500D02*X119850D01*
X116850Y282500D02*X119850Y285500D01*
X116850Y282500D02*X119850D01*
X122400D02*X124650D01*
X121650Y283250D02*X122400Y282500D01*
X121650Y284750D02*Y283250D01*
Y284750D02*X122400Y285500D01*
X123900D01*
X124650Y284750D01*
X121650Y284000D02*X124650D01*
Y284750D01*
X127200Y282500D02*X129450D01*
X130200Y283250D01*
X129450Y284000D02*X130200Y283250D01*
X127200Y284000D02*X129450D01*
X126450Y284750D02*X127200Y284000D01*
X126450Y284750D02*X127200Y285500D01*
X129450D01*
X130200Y284750D01*
X126450Y283250D02*X127200Y282500D01*
X134700Y285500D02*Y283250D01*
X135450Y282500D01*
X136950D01*
X137700Y283250D01*
Y285500D02*Y283250D01*
X140250Y282500D02*X142500D01*
X143250Y283250D01*
X142500Y284000D02*X143250Y283250D01*
X140250Y284000D02*X142500D01*
X139500Y284750D02*X140250Y284000D01*
X139500Y284750D02*X140250Y285500D01*
X142500D01*
X143250Y284750D01*
X139500Y283250D02*X140250Y282500D01*
X145800D02*X148050D01*
X145050Y283250D02*X145800Y282500D01*
X145050Y284750D02*Y283250D01*
Y284750D02*X145800Y285500D01*
X147300D01*
X148050Y284750D01*
X145050Y284000D02*X148050D01*
Y284750D01*
X152850Y288500D02*Y282500D01*
X152100D02*X152850Y283250D01*
X150600Y282500D02*X152100D01*
X149850Y283250D02*X150600Y282500D01*
X149850Y284750D02*Y283250D01*
Y284750D02*X150600Y285500D01*
X152100D01*
X152850Y284750D01*
X157350Y287000D02*Y286250D01*
Y284750D02*Y282500D01*
X159600Y284750D02*Y282500D01*
Y284750D02*X160350Y285500D01*
X161100D01*
X161850Y284750D01*
Y282500D01*
X158850Y285500D02*X159600Y284750D01*
X167100Y288500D02*Y283250D01*
X167850Y282500D01*
X166350Y286250D02*X167850D01*
X169350Y288500D02*Y282500D01*
Y284750D02*X170100Y285500D01*
X171600D01*
X172350Y284750D01*
Y282500D01*
X174150Y287000D02*Y286250D01*
Y284750D02*Y282500D01*
X176400D02*X178650D01*
X179400Y283250D01*
X178650Y284000D02*X179400Y283250D01*
X176400Y284000D02*X178650D01*
X175650Y284750D02*X176400Y284000D01*
X175650Y284750D02*X176400Y285500D01*
X178650D01*
X179400Y284750D01*
X175650Y283250D02*X176400Y282500D01*
X183900Y288500D02*Y283250D01*
X184650Y282500D01*
X188400Y285500D02*X189150Y284750D01*
X186900Y285500D02*X188400D01*
X186150Y284750D02*X186900Y285500D01*
X186150Y284750D02*Y283250D01*
X186900Y282500D01*
X189150Y285500D02*Y283250D01*
X189900Y282500D01*
X186900D02*X188400D01*
X189150Y283250D01*
X191700Y285500D02*Y283250D01*
X192450Y282500D01*
X194700Y285500D02*Y281000D01*
X193950Y280250D02*X194700Y281000D01*
X192450Y280250D02*X193950D01*
X191700Y281000D02*X192450Y280250D01*
Y282500D02*X193950D01*
X194700Y283250D01*
X196500Y284750D02*Y283250D01*
Y284750D02*X197250Y285500D01*
X198750D01*
X199500Y284750D01*
Y283250D01*
X198750Y282500D02*X199500Y283250D01*
X197250Y282500D02*X198750D01*
X196500Y283250D02*X197250Y282500D01*
X201300Y285500D02*Y283250D01*
X202050Y282500D01*
X203550D01*
X204300Y283250D01*
Y285500D02*Y283250D01*
X206850Y288500D02*Y283250D01*
X207600Y282500D01*
X206100Y286250D02*X207600D01*
X209100Y281000D02*X210600Y282500D01*
X215100Y287750D02*X215850Y288500D01*
X218100D01*
X218850Y287750D01*
Y286250D01*
X215100Y282500D02*X218850Y286250D01*
X215100Y282500D02*X218850D01*
X220650Y283250D02*X221400Y282500D01*
X220650Y284750D02*Y283250D01*
Y284750D02*X221400Y285500D01*
X222900D01*
X223650Y284750D01*
Y283250D01*
X222900Y282500D02*X223650Y283250D01*
X221400Y282500D02*X222900D01*
X220650Y286250D02*X221400Y285500D01*
X220650Y287750D02*Y286250D01*
Y287750D02*X221400Y288500D01*
X222900D01*
X223650Y287750D01*
Y286250D01*
X222900Y285500D02*X223650Y286250D01*
X228150Y288500D02*Y282500D01*
Y284750D02*X228900Y285500D01*
X230400D01*
X231150Y284750D01*
Y282500D01*
X232950Y284750D02*Y283250D01*
Y284750D02*X233700Y285500D01*
X235200D01*
X235950Y284750D01*
Y283250D01*
X235200Y282500D02*X235950Y283250D01*
X233700Y282500D02*X235200D01*
X232950Y283250D02*X233700Y282500D01*
X237750Y288500D02*Y283250D01*
X238500Y282500D01*
X240750D02*X243000D01*
X240000Y283250D02*X240750Y282500D01*
X240000Y284750D02*Y283250D01*
Y284750D02*X240750Y285500D01*
X242250D01*
X243000Y284750D01*
X240000Y284000D02*X243000D01*
Y284750D01*
X245550Y282500D02*X247800D01*
X248550Y283250D01*
X247800Y284000D02*X248550Y283250D01*
X245550Y284000D02*X247800D01*
X244800Y284750D02*X245550Y284000D01*
X244800Y284750D02*X245550Y285500D01*
X247800D01*
X248550Y284750D01*
X244800Y283250D02*X245550Y282500D01*
X253800Y288500D02*Y283250D01*
X254550Y282500D01*
X253050Y286250D02*X254550D01*
X256050Y284750D02*Y283250D01*
Y284750D02*X256800Y285500D01*
X258300D01*
X259050Y284750D01*
Y283250D01*
X258300Y282500D02*X259050Y283250D01*
X256800Y282500D02*X258300D01*
X256050Y283250D02*X256800Y282500D01*
X261600Y288500D02*Y283250D01*
X262350Y282500D01*
X260850Y286250D02*X262350D01*
X266100Y285500D02*X266850Y284750D01*
X264600Y285500D02*X266100D01*
X263850Y284750D02*X264600Y285500D01*
X263850Y284750D02*Y283250D01*
X264600Y282500D01*
X266850Y285500D02*Y283250D01*
X267600Y282500D01*
X264600D02*X266100D01*
X266850Y283250D01*
X269400Y288500D02*Y283250D01*
X270150Y282500D01*
G54D118*X16500Y187360D02*X186000D01*
Y18000D02*X16500D01*
Y187360D01*
Y18000D01*
X186000D02*Y187360D01*
G54D117*X13675Y-9500D02*X16675D01*
X17425Y-8750D01*
Y-7250D02*Y-8750D01*
X16675Y-6500D02*X17425Y-7250D01*
X14425Y-6500D02*X16675D01*
X14425Y-3500D02*Y-9500D01*
X13675Y-3500D02*X16675D01*
X17425Y-4250D01*
Y-5750D01*
X16675Y-6500D02*X17425Y-5750D01*
X19225Y-7250D02*Y-8750D01*
Y-7250D02*X19975Y-6500D01*
X21475D01*
X22225Y-7250D01*
Y-8750D01*
X21475Y-9500D02*X22225Y-8750D01*
X19975Y-9500D02*X21475D01*
X19225Y-8750D02*X19975Y-9500D01*
X26275Y-6500D02*X27025Y-7250D01*
X24775Y-6500D02*X26275D01*
X24025Y-7250D02*X24775Y-6500D01*
X24025Y-7250D02*Y-8750D01*
X24775Y-9500D01*
X27025Y-6500D02*Y-8750D01*
X27775Y-9500D01*
X24775D02*X26275D01*
X27025Y-8750D01*
X30325Y-7250D02*Y-9500D01*
Y-7250D02*X31075Y-6500D01*
X32575D01*
X29575D02*X30325Y-7250D01*
X37375Y-3500D02*Y-9500D01*
X36625D02*X37375Y-8750D01*
X35125Y-9500D02*X36625D01*
X34375Y-8750D02*X35125Y-9500D01*
X34375Y-7250D02*Y-8750D01*
Y-7250D02*X35125Y-6500D01*
X36625D01*
X37375Y-7250D01*
X41875D02*Y-8750D01*
Y-7250D02*X42625Y-6500D01*
X44125D01*
X44875Y-7250D01*
Y-8750D01*
X44125Y-9500D02*X44875Y-8750D01*
X42625Y-9500D02*X44125D01*
X41875Y-8750D02*X42625Y-9500D01*
X46675Y-6500D02*Y-8750D01*
X47425Y-9500D01*
X48925D01*
X49675Y-8750D01*
Y-6500D02*Y-8750D01*
X52225Y-3500D02*Y-8750D01*
X52975Y-9500D01*
X51475Y-5750D02*X52975D01*
X54475Y-3500D02*Y-8750D01*
X55225Y-9500D01*
X56725Y-5000D02*Y-5750D01*
Y-7250D02*Y-9500D01*
X58975Y-7250D02*Y-9500D01*
Y-7250D02*X59725Y-6500D01*
X60475D01*
X61225Y-7250D01*
Y-9500D01*
X58225Y-6500D02*X58975Y-7250D01*
X63775Y-9500D02*X66025D01*
X63025Y-8750D02*X63775Y-9500D01*
X63025Y-7250D02*Y-8750D01*
Y-7250D02*X63775Y-6500D01*
X65275D01*
X66025Y-7250D01*
X63025Y-8000D02*X66025D01*
Y-7250D01*
X70525Y-5000D02*Y-5750D01*
Y-7250D02*Y-9500D01*
X72775D02*X75025D01*
X75775Y-8750D01*
X75025Y-8000D02*X75775Y-8750D01*
X72775Y-8000D02*X75025D01*
X72025Y-7250D02*X72775Y-8000D01*
X72025Y-7250D02*X72775Y-6500D01*
X75025D01*
X75775Y-7250D01*
X72025Y-8750D02*X72775Y-9500D01*
X81025Y-3500D02*Y-8750D01*
X81775Y-9500D01*
X80275Y-5750D02*X81775D01*
X83275Y-3500D02*Y-9500D01*
Y-7250D02*X84025Y-6500D01*
X85525D01*
X86275Y-7250D01*
Y-9500D01*
X88825D02*X91075D01*
X88075Y-8750D02*X88825Y-9500D01*
X88075Y-7250D02*Y-8750D01*
Y-7250D02*X88825Y-6500D01*
X90325D01*
X91075Y-7250D01*
X88075Y-8000D02*X91075D01*
Y-7250D01*
X96325Y-6500D02*X98575D01*
X95575Y-7250D02*X96325Y-6500D01*
X95575Y-7250D02*Y-8750D01*
X96325Y-9500D01*
X98575D01*
X101125D02*X103375D01*
X100375Y-8750D02*X101125Y-9500D01*
X100375Y-7250D02*Y-8750D01*
Y-7250D02*X101125Y-6500D01*
X102625D01*
X103375Y-7250D01*
X100375Y-8000D02*X103375D01*
Y-7250D01*
X105925D02*Y-9500D01*
Y-7250D02*X106675Y-6500D01*
X107425D01*
X108175Y-7250D01*
Y-9500D01*
X105175Y-6500D02*X105925Y-7250D01*
X110725Y-3500D02*Y-8750D01*
X111475Y-9500D01*
X109975Y-5750D02*X111475D01*
X113725Y-9500D02*X115975D01*
X112975Y-8750D02*X113725Y-9500D01*
X112975Y-7250D02*Y-8750D01*
Y-7250D02*X113725Y-6500D01*
X115225D01*
X115975Y-7250D01*
X112975Y-8000D02*X115975D01*
Y-7250D01*
X118525D02*Y-9500D01*
Y-7250D02*X119275Y-6500D01*
X120775D01*
X117775D02*X118525Y-7250D01*
X122575Y-3500D02*Y-8750D01*
X123325Y-9500D01*
X124825Y-5000D02*Y-5750D01*
Y-7250D02*Y-9500D01*
X127075Y-7250D02*Y-9500D01*
Y-7250D02*X127825Y-6500D01*
X128575D01*
X129325Y-7250D01*
Y-9500D01*
X126325Y-6500D02*X127075Y-7250D01*
X131875Y-9500D02*X134125D01*
X131125Y-8750D02*X131875Y-9500D01*
X131125Y-7250D02*Y-8750D01*
Y-7250D02*X131875Y-6500D01*
X133375D01*
X134125Y-7250D01*
X131125Y-8000D02*X134125D01*
Y-7250D01*
X138625D02*Y-8750D01*
Y-7250D02*X139375Y-6500D01*
X140875D01*
X141625Y-7250D01*
Y-8750D01*
X140875Y-9500D02*X141625Y-8750D01*
X139375Y-9500D02*X140875D01*
X138625Y-8750D02*X139375Y-9500D01*
X144175Y-4250D02*Y-9500D01*
Y-4250D02*X144925Y-3500D01*
X145675D01*
X143425Y-6500D02*X144925D01*
X150625Y-3500D02*Y-8750D01*
X151375Y-9500D01*
X149875Y-5750D02*X151375D01*
X152875Y-3500D02*Y-9500D01*
Y-7250D02*X153625Y-6500D01*
X155125D01*
X155875Y-7250D01*
Y-9500D01*
X157675Y-5000D02*Y-5750D01*
Y-7250D02*Y-9500D01*
X159925D02*X162175D01*
X162925Y-8750D01*
X162175Y-8000D02*X162925Y-8750D01*
X159925Y-8000D02*X162175D01*
X159175Y-7250D02*X159925Y-8000D01*
X159175Y-7250D02*X159925Y-6500D01*
X162175D01*
X162925Y-7250D01*
X159175Y-8750D02*X159925Y-9500D01*
X168175Y-7250D02*Y-11750D01*
X167425Y-6500D02*X168175Y-7250D01*
X168925Y-6500D01*
X170425D01*
X171175Y-7250D01*
Y-8750D01*
X170425Y-9500D02*X171175Y-8750D01*
X168925Y-9500D02*X170425D01*
X168175Y-8750D02*X168925Y-9500D01*
X175225Y-6500D02*X175975Y-7250D01*
X173725Y-6500D02*X175225D01*
X172975Y-7250D02*X173725Y-6500D01*
X172975Y-7250D02*Y-8750D01*
X173725Y-9500D01*
X175975Y-6500D02*Y-8750D01*
X176725Y-9500D01*
X173725D02*X175225D01*
X175975Y-8750D01*
X179275Y-3500D02*Y-8750D01*
X180025Y-9500D01*
X178525Y-5750D02*X180025D01*
X181525Y-3500D02*Y-9500D01*
Y-7250D02*X182275Y-6500D01*
X183775D01*
X184525Y-7250D01*
Y-9500D01*
X200750Y228500D02*Y222500D01*
X203000Y228500D02*X203750Y227750D01*
Y223250D01*
X203000Y222500D02*X203750Y223250D01*
X200000Y222500D02*X203000D01*
X200000Y228500D02*X203000D01*
X207800Y225500D02*X208550Y224750D01*
X206300Y225500D02*X207800D01*
X205550Y224750D02*X206300Y225500D01*
X205550Y224750D02*Y223250D01*
X206300Y222500D01*
X208550Y225500D02*Y223250D01*
X209300Y222500D01*
X206300D02*X207800D01*
X208550Y223250D01*
X211850Y228500D02*Y223250D01*
X212600Y222500D01*
X211100Y226250D02*X212600D01*
X214850Y222500D02*X217100D01*
X214100Y223250D02*X214850Y222500D01*
X214100Y224750D02*Y223250D01*
Y224750D02*X214850Y225500D01*
X216350D01*
X217100Y224750D01*
X214100Y224000D02*X217100D01*
Y224750D01*
X218900Y226250D02*X219650D01*
X218900Y224750D02*X219650D01*
X224150Y227750D02*X224900Y228500D01*
X227150D01*
X227900Y227750D01*
Y226250D01*
X224150Y222500D02*X227900Y226250D01*
X224150Y222500D02*X227900D01*
X229700Y223250D02*X230450Y222500D01*
X229700Y227750D02*Y223250D01*
Y227750D02*X230450Y228500D01*
X231950D01*
X232700Y227750D01*
Y223250D01*
X231950Y222500D02*X232700Y223250D01*
X230450Y222500D02*X231950D01*
X229700Y224000D02*X232700Y227000D01*
X234500Y227750D02*X235250Y228500D01*
X237500D01*
X238250Y227750D01*
Y226250D01*
X234500Y222500D02*X238250Y226250D01*
X234500Y222500D02*X238250D01*
X240800D02*X242300D01*
X241550Y228500D02*Y222500D01*
X240050Y227000D02*X241550Y228500D01*
X244100Y225500D02*X247100D01*
X248900Y223250D02*X249650Y222500D01*
X248900Y227750D02*Y223250D01*
Y227750D02*X249650Y228500D01*
X251150D01*
X251900Y227750D01*
Y223250D01*
X251150Y222500D02*X251900Y223250D01*
X249650Y222500D02*X251150D01*
X248900Y224000D02*X251900Y227000D01*
X254450Y222500D02*X255950D01*
X255200Y228500D02*Y222500D01*
X253700Y227000D02*X255200Y228500D01*
X257750Y225500D02*X260750D01*
X263300Y222500D02*X264800D01*
X264050Y228500D02*Y222500D01*
X262550Y227000D02*X264050Y228500D01*
X266600Y222500D02*X269600Y225500D01*
Y227750D02*Y225500D01*
X268850Y228500D02*X269600Y227750D01*
X267350Y228500D02*X268850D01*
X266600Y227750D02*X267350Y228500D01*
X266600Y227750D02*Y226250D01*
X267350Y225500D01*
X269600D01*
X274850Y222500D02*X276350D01*
X275600Y228500D02*Y222500D01*
X274100Y227000D02*X275600Y228500D01*
X278150D02*X281150D01*
X278150D02*Y225500D01*
X278900Y226250D01*
X280400D01*
X281150Y225500D01*
Y223250D01*
X280400Y222500D02*X281150Y223250D01*
X278900Y222500D02*X280400D01*
X278150Y223250D02*X278900Y222500D01*
X282950Y226250D02*X283700D01*
X282950Y224750D02*X283700D01*
X285500Y228500D02*X288500D01*
X285500D02*Y225500D01*
X286250Y226250D01*
X287750D01*
X288500Y225500D01*
Y223250D01*
X287750Y222500D02*X288500Y223250D01*
X286250Y222500D02*X287750D01*
X285500Y223250D02*X286250Y222500D01*
X290300Y228500D02*X293300D01*
X290300D02*Y225500D01*
X291050Y226250D01*
X292550D01*
X293300Y225500D01*
Y223250D01*
X292550Y222500D02*X293300Y223250D01*
X291050Y222500D02*X292550D01*
X290300Y223250D02*X291050Y222500D01*
X295100Y226250D02*X295850D01*
X295100Y224750D02*X295850D01*
X298400Y222500D02*X299900D01*
X299150Y228500D02*Y222500D01*
X297650Y227000D02*X299150Y228500D01*
X302450Y222500D02*X303950D01*
X303200Y228500D02*Y222500D01*
X301700Y227000D02*X303200Y228500D01*
X308450D02*Y223250D01*
X309200Y222500D01*
X310700D01*
X311450Y223250D01*
Y228500D02*Y223250D01*
X313250Y228500D02*X316250D01*
X314750D02*Y222500D01*
X318800D02*X321050D01*
X318050Y223250D02*X318800Y222500D01*
X318050Y227750D02*Y223250D01*
Y227750D02*X318800Y228500D01*
X321050D01*
X200000Y242750D02*Y237500D01*
Y242750D02*X200750Y243500D01*
X203000D01*
X203750Y242750D01*
Y237500D01*
X200000Y240500D02*X203750D01*
X205550D02*Y238250D01*
X206300Y237500D01*
X207800D01*
X208550Y238250D01*
Y240500D02*Y238250D01*
X211100Y243500D02*Y238250D01*
X211850Y237500D01*
X210350Y241250D02*X211850D01*
X213350Y243500D02*Y237500D01*
Y239750D02*X214100Y240500D01*
X215600D01*
X216350Y239750D01*
Y237500D01*
X218150Y239750D02*Y238250D01*
Y239750D02*X218900Y240500D01*
X220400D01*
X221150Y239750D01*
Y238250D01*
X220400Y237500D02*X221150Y238250D01*
X218900Y237500D02*X220400D01*
X218150Y238250D02*X218900Y237500D01*
X223700Y239750D02*Y237500D01*
Y239750D02*X224450Y240500D01*
X225950D01*
X222950D02*X223700Y239750D01*
X227750Y241250D02*X228500D01*
X227750Y239750D02*X228500D01*
X200000Y258500D02*X203000D01*
X201500D02*Y252500D01*
X204800Y257000D02*Y256250D01*
Y254750D02*Y252500D01*
X207050Y258500D02*Y253250D01*
X207800Y252500D01*
X206300Y256250D02*X207800D01*
X209300Y258500D02*Y253250D01*
X210050Y252500D01*
X212300D02*X214550D01*
X211550Y253250D02*X212300Y252500D01*
X211550Y254750D02*Y253250D01*
Y254750D02*X212300Y255500D01*
X213800D01*
X214550Y254750D01*
X211550Y254000D02*X214550D01*
Y254750D01*
X216350Y256250D02*X217100D01*
X216350Y254750D02*X217100D01*
X221600Y253250D02*X222350Y252500D01*
X221600Y257750D02*X222350Y258500D01*
X221600Y257750D02*Y253250D01*
X224150Y255500D02*Y253250D01*
X224900Y252500D01*
X226400D01*
X227150Y253250D01*
Y255500D02*Y253250D01*
X229700Y254750D02*Y252500D01*
Y254750D02*X230450Y255500D01*
X231200D01*
X231950Y254750D01*
Y252500D01*
X228950Y255500D02*X229700Y254750D01*
X233750Y258500D02*Y252500D01*
Y254750D02*X236000Y252500D01*
X233750Y254750D02*X235250Y256250D01*
X238550Y254750D02*Y252500D01*
Y254750D02*X239300Y255500D01*
X240050D01*
X240800Y254750D01*
Y252500D01*
X237800Y255500D02*X238550Y254750D01*
X242600D02*Y253250D01*
Y254750D02*X243350Y255500D01*
X244850D01*
X245600Y254750D01*
Y253250D01*
X244850Y252500D02*X245600Y253250D01*
X243350Y252500D02*X244850D01*
X242600Y253250D02*X243350Y252500D01*
X247400Y255500D02*Y253250D01*
X248150Y252500D01*
X248900D01*
X249650Y253250D01*
Y255500D02*Y253250D01*
X250400Y252500D01*
X251150D01*
X251900Y253250D01*
Y255500D02*Y253250D01*
X254450Y254750D02*Y252500D01*
Y254750D02*X255200Y255500D01*
X255950D01*
X256700Y254750D01*
Y252500D01*
X253700Y255500D02*X254450Y254750D01*
X258500Y258500D02*X259250Y257750D01*
Y253250D01*
X258500Y252500D02*X259250Y253250D01*
X263750Y255500D02*X266750D01*
X271250Y258500D02*Y252500D01*
Y258500D02*X274250D01*
X271250Y255500D02*X273500D01*
X278300D02*X279050Y254750D01*
X276800Y255500D02*X278300D01*
X276050Y254750D02*X276800Y255500D01*
X276050Y254750D02*Y253250D01*
X276800Y252500D01*
X279050Y255500D02*Y253250D01*
X279800Y252500D01*
X276800D02*X278300D01*
X279050Y253250D01*
X281600Y258500D02*Y252500D01*
Y253250D02*X282350Y252500D01*
X283850D01*
X284600Y253250D01*
Y254750D02*Y253250D01*
X283850Y255500D02*X284600Y254750D01*
X282350Y255500D02*X283850D01*
X281600Y254750D02*X282350Y255500D01*
X287150Y254750D02*Y252500D01*
Y254750D02*X287900Y255500D01*
X289400D01*
X286400D02*X287150Y254750D01*
X291200Y257000D02*Y256250D01*
Y254750D02*Y252500D01*
X293450Y255500D02*X295700D01*
X292700Y254750D02*X293450Y255500D01*
X292700Y254750D02*Y253250D01*
X293450Y252500D01*
X295700D01*
X299750Y255500D02*X300500Y254750D01*
X298250Y255500D02*X299750D01*
X297500Y254750D02*X298250Y255500D01*
X297500Y254750D02*Y253250D01*
X298250Y252500D01*
X300500Y255500D02*Y253250D01*
X301250Y252500D01*
X298250D02*X299750D01*
X300500Y253250D01*
X303800Y258500D02*Y253250D01*
X304550Y252500D01*
X303050Y256250D02*X304550D01*
X306050Y257000D02*Y256250D01*
Y254750D02*Y252500D01*
X307550Y254750D02*Y253250D01*
Y254750D02*X308300Y255500D01*
X309800D01*
X310550Y254750D01*
Y253250D01*
X309800Y252500D02*X310550Y253250D01*
X308300Y252500D02*X309800D01*
X307550Y253250D02*X308300Y252500D01*
X313100Y254750D02*Y252500D01*
Y254750D02*X313850Y255500D01*
X314600D01*
X315350Y254750D01*
Y252500D01*
X312350Y255500D02*X313100Y254750D01*
X320600Y258500D02*Y252500D01*
X322850Y258500D02*X323600Y257750D01*
Y253250D01*
X322850Y252500D02*X323600Y253250D01*
X319850Y252500D02*X322850D01*
X319850Y258500D02*X322850D01*
X326150Y254750D02*Y252500D01*
Y254750D02*X326900Y255500D01*
X328400D01*
X325400D02*X326150Y254750D01*
X332450Y255500D02*X333200Y254750D01*
X330950Y255500D02*X332450D01*
X330200Y254750D02*X330950Y255500D01*
X330200Y254750D02*Y253250D01*
X330950Y252500D01*
X333200Y255500D02*Y253250D01*
X333950Y252500D01*
X330950D02*X332450D01*
X333200Y253250D01*
X335750Y255500D02*Y253250D01*
X336500Y252500D01*
X337250D01*
X338000Y253250D01*
Y255500D02*Y253250D01*
X338750Y252500D01*
X339500D01*
X340250Y253250D01*
Y255500D02*Y253250D01*
X342050Y257000D02*Y256250D01*
Y254750D02*Y252500D01*
X344300Y254750D02*Y252500D01*
Y254750D02*X345050Y255500D01*
X345800D01*
X346550Y254750D01*
Y252500D01*
X343550Y255500D02*X344300Y254750D01*
X350600Y255500D02*X351350Y254750D01*
X349100Y255500D02*X350600D01*
X348350Y254750D02*X349100Y255500D01*
X348350Y254750D02*Y253250D01*
X349100Y252500D01*
X350600D01*
X351350Y253250D01*
X348350Y251000D02*X349100Y250250D01*
X350600D01*
X351350Y251000D01*
Y255500D02*Y251000D01*
M02*
