G04 start of page 2 for group 3 layer_idx 0 *
G04 Title: (unknown), top_copper *
G04 Creator: pcb-rnd 2.3.0 *
G04 CreationDate: 2021-01-19 15:55:10 UTC *
G04 For:  *
G04 Format: Gerber/RS-274X *
G04 PCB-Dimensions: 200000 200000 *
G04 PCB-Coordinate-Origin: lower left *
%MOIN*%
%FSLAX25Y25*%
%LNTOP_COPPER_NONE_3*%
%ADD22C,0.0520*%
%ADD21C,0.0860*%
%ADD20C,0.0380*%
%ADD19C,0.0800*%
%ADD18C,0.2000*%
%ADD17C,0.0700*%
%ADD16C,0.0001*%
%ADD15C,0.0600*%
%ADD14C,0.0250*%
%ADD13C,0.0100*%
%ADD12C,0.0400*%
%ADD11C,0.0350*%
G54D11*X33500Y109860D02*X41000Y136860D01*
G54D12*X33500Y91553D02*Y91360D01*
X22000Y79860D01*
G54D13*X16500Y187360D02*X186000D01*
G54D11*X51807Y109860D02*X51000Y136860D01*
G54D12*X22000Y79860D02*Y41360D01*
X122000Y79860D02*Y41360D01*
X172000Y47360D02*X150500Y60860D01*
G54D11*X172000Y107360D02*X154307D01*
G54D12*X133500Y91553D02*Y91360D01*
X122000Y79860D01*
Y41360D02*X129500Y33860D01*
X139500D02*X133500Y60860D01*
G54D13*X186000Y187360D02*Y18000D01*
G54D11*X151807Y109860D02*X151000Y136860D01*
X133500Y109860D02*X141000Y136860D01*
G54D14*X154307Y107360D02*X151807Y109860D01*
G54D13*X16500Y187360D02*Y18000D01*
G54D12*X22000Y41360D02*X29500Y33860D01*
X72000Y47360D02*X50500Y60860D01*
X39500Y33860D02*X33500Y60860D01*
G54D13*X16500Y18000D02*X186000D01*
G54D14*X54307Y107360D02*X51807Y109860D01*
G54D11*X72000Y107360D02*X54307D01*
G54D15*X33500Y67260D03*
Y91553D03*
X51807Y109860D03*
G54D16*G36*
X37200Y70960D02*X29800D01*
Y57160D01*
X37200D01*
Y70960D01*
G37*
G36*
X54200D02*X46800D01*
Y57160D01*
X54200D01*
Y70960D01*
G37*
G36*
X36000Y37360D02*X43000D01*
Y30360D01*
X36000D01*
Y37360D01*
G37*
G54D17*X29500Y33860D03*
G54D15*X50500Y60860D03*
X133500Y67260D03*
X150500Y60860D03*
X133500Y91553D03*
G54D16*G36*
X137200Y70960D02*X129800D01*
Y57160D01*
X137200D01*
Y70960D01*
G37*
G36*
X154200D02*X146800D01*
Y57160D01*
X154200D01*
Y70960D01*
G37*
G36*
X139216Y115577D02*X127784D01*
Y85836D01*
X139216D01*
Y115577D01*
G37*
G54D18*X131000Y156860D03*
X171000D03*
G54D19*X141000Y136860D03*
X151000D03*
G54D15*X151807Y109860D03*
G54D16*G36*
X157524Y115577D02*X146090D01*
Y85836D01*
X157524D01*
Y115577D01*
G37*
G54D19*X172000Y107360D03*
G54D16*G36*
X39216Y115577D02*X27783D01*
Y85836D01*
X39216D01*
Y115577D01*
G37*
G54D18*X31000Y156860D03*
G54D19*X41000Y136860D03*
G54D16*G36*
X57524Y115577D02*X46090D01*
Y85836D01*
X57524D01*
Y115577D01*
G37*
G54D19*X72000Y107360D03*
G54D18*X71000Y156860D03*
G54D19*X51000Y136860D03*
G54D16*G36*
X68000Y51360D02*X76000D01*
Y43360D01*
X68000D01*
Y51360D01*
G37*
G36*
X73000Y36860D02*X79000D01*
Y30860D01*
X73000D01*
Y36860D01*
G37*
G54D15*X66000Y33860D03*
G54D16*G36*
X168000Y51360D02*X176000D01*
Y43360D01*
X168000D01*
Y51360D01*
G37*
G36*
X136000Y37360D02*X143000D01*
Y30360D01*
X136000D01*
Y37360D01*
G37*
G54D17*X129500Y33860D03*
G54D16*G36*
X173000Y36860D02*X179000D01*
Y30860D01*
X173000D01*
Y36860D01*
G37*
G54D15*X166000Y33860D03*
G54D11*G54D20*G54D11*G54D21*G54D11*G54D22*G54D21*G54D11*G54D22*G54D21*G54D11*G54D22*G54D20*G54D22*G54D20*M02*
