G04 start of page 2 for group 2 layer_idx 10 *
G04 Title: (unknown), top_mask *
G04 Creator: pcb-rnd 3.1.8-dev *
G04 CreationDate: 2025-10-15 02:10:24 UTC *
G04 For:  *
G04 Format: Gerber/RS-274X *
G04 PCB-Dimensions: 300000 400000 *
G04 PCB-Coordinate-Origin: lower left *
%MOIN*%
%FSLAX25Y25*%
%LNTOP_MASK_NONE_2*%
%ADD95C,0.0660*%
%ADD94C,0.0860*%
%ADD93C,0.0886*%
%ADD92C,0.1678*%
%ADD91C,0.0760*%
%ADD90C,0.0001*%
G54D90*G36*
X48700Y139300D02*X56300D01*
Y131700D01*
X48700D01*
Y139300D01*
G37*
G54D91*X42500Y135500D03*
G54D90*G36*
X39701Y163776D02*X53677D01*
Y148224D01*
X39701D01*
Y163776D01*
G37*
G36*
X63323D02*X77299D01*
Y148224D01*
X63323D01*
Y163776D01*
G37*
G36*
X139701D02*X153677D01*
Y148224D01*
X139701D01*
Y163776D01*
G37*
G36*
X163323D02*X177299D01*
Y148224D01*
X163323D01*
Y163776D01*
G37*
G36*
X152716Y217716D02*X140284D01*
Y186976D01*
X152716D01*
Y217716D01*
G37*
G54D92*X144000Y258500D03*
X184000D03*
G54D90*G36*
X159571Y242929D02*Y234071D01*
X168429D01*
Y242929D01*
X159571D01*
G37*
G54D93*X154000Y238500D03*
G54D90*G36*
X171024Y217716D02*X158590D01*
Y186976D01*
X171024D01*
Y217716D01*
G37*
G54D94*X185000Y209000D03*
G54D90*G36*
X52716Y217716D02*X40284D01*
Y186976D01*
X52716D01*
Y217716D01*
G37*
G54D92*X44000Y258500D03*
G54D93*X54000Y238500D03*
G54D90*G36*
X71024Y217716D02*X58590D01*
Y186976D01*
X71024D01*
Y217716D01*
G37*
G54D94*X85000Y209000D03*
G54D92*X84000Y258500D03*
G54D90*G36*
X59571Y242929D02*Y234071D01*
X68429D01*
Y242929D01*
X59571D01*
G37*
G36*
X80700Y153300D02*X89300D01*
Y144700D01*
X80700D01*
Y153300D01*
G37*
G36*
X85700Y138800D02*X92300D01*
Y132200D01*
X85700D01*
Y138800D01*
G37*
G54D95*X79000Y135500D03*
G54D90*G36*
X180700Y153300D02*X189300D01*
Y144700D01*
X180700D01*
Y153300D01*
G37*
G36*
X148700Y139300D02*X156300D01*
Y131700D01*
X148700D01*
Y139300D01*
G37*
G54D91*X142500Y135500D03*
G54D90*G36*
X185700Y138800D02*X192300D01*
Y132200D01*
X185700D01*
Y138800D01*
G37*
G54D95*X179000Y135500D03*
M02*
