G04 start of page 6 for group 14 layer_idx 7 *
G04 Title: (unknown), Intern *
G04 Creator: pcb-rnd 3.1.8-dev *
G04 CreationDate: 2025-10-15 02:10:24 UTC *
G04 For:  *
G04 Format: Gerber/RS-274X *
G04 PCB-Dimensions: 300000 400000 *
G04 PCB-Coordinate-Origin: lower left *
%MOIN*%
%FSLAX25Y25*%
%LNINTERN_COPPER_NONE_14*%
%ADD85C,0.0520*%
%ADD84C,0.0790*%
%ADD83C,0.0380*%
%ADD82C,0.0350*%
%ADD81C,0.0800*%
%ADD80C,0.0787*%
%ADD79C,0.1580*%
%ADD78C,0.0700*%
%ADD77C,0.0001*%
%ADD76C,0.0600*%
G54D76*X46500Y193193D03*
X64807Y211500D03*
G54D77*G36*
X49000Y139000D02*X56000D01*
Y132000D01*
X49000D01*
Y139000D01*
G37*
G54D78*X42500Y135500D03*
G54D76*X146500Y193193D03*
G54D79*X144000Y258500D03*
X184000D03*
G54D77*G36*
X160063Y242437D02*Y234563D01*
X167937D01*
Y242437D01*
X160063D01*
G37*
G54D80*X154000Y238500D03*
G54D76*X164807Y211500D03*
G54D81*X185000Y209000D03*
G54D79*X44000Y258500D03*
G54D80*X54000Y238500D03*
G54D81*X85000Y209000D03*
G54D79*X84000Y258500D03*
G54D77*G36*
X60063Y242437D02*Y234563D01*
X67937D01*
Y242437D01*
X60063D01*
G37*
G36*
X81000Y153000D02*X89000D01*
Y145000D01*
X81000D01*
Y153000D01*
G37*
G36*
X86000Y138500D02*X92000D01*
Y132500D01*
X86000D01*
Y138500D01*
G37*
G54D76*X79000Y135500D03*
G54D77*G36*
X181000Y153000D02*X189000D01*
Y145000D01*
X181000D01*
Y153000D01*
G37*
G36*
X149000Y139000D02*X156000D01*
Y132000D01*
X149000D01*
Y139000D01*
G37*
G54D78*X142500Y135500D03*
G54D77*G36*
X186000Y138500D02*X192000D01*
Y132500D01*
X186000D01*
Y138500D01*
G37*
G54D76*X179000Y135500D03*
G54D82*G54D83*G54D82*G54D84*G54D82*G54D85*G54D84*G54D82*G54D85*G54D84*G54D82*G54D85*G54D83*G54D85*G54D83*M02*
