G04 start of page 2 for group 6 layer_idx 3 *
G04 Title: (unknown), Intern *
G04 Creator: pcb-rnd 3.1.8-dev *
G04 CreationDate: 2025-10-15 01:59:16 UTC *
G04 For:  *
G04 Format: Gerber/RS-274X *
G04 PCB-Dimensions: 300000 400000 *
G04 PCB-Coordinate-Origin: lower left *
%MOIN*%
%FSLAX25Y25*%
%LNINTERN_COPPER_NONE_6*%
%ADD45C,0.0520*%
%ADD44C,0.0380*%
%ADD43C,0.0350*%
%ADD42C,0.0790*%
%ADD41C,0.0787*%
%ADD40C,0.0800*%
%ADD39C,0.0700*%
%ADD38C,0.0001*%
%ADD37C,0.0600*%
%ADD36C,0.1580*%
G54D36*X44000Y258500D03*
X84000D03*
X144000D03*
X184000D03*
G54D37*X46500Y168900D03*
Y193193D03*
X63500Y162500D03*
X64807Y211500D03*
G54D38*G36*
X49000Y139000D02*X56000D01*
Y132000D01*
X49000D01*
Y139000D01*
G37*
G54D39*X42500Y135500D03*
G54D37*X79000D03*
G54D38*G36*
X81000Y153000D02*X89000D01*
Y145000D01*
X81000D01*
Y153000D01*
G37*
G36*
X86000Y138500D02*X92000D01*
Y132500D01*
X86000D01*
Y138500D01*
G37*
G36*
X181000Y153000D02*X189000D01*
Y145000D01*
X181000D01*
Y153000D01*
G37*
G36*
X149000Y139000D02*X156000D01*
Y132000D01*
X149000D01*
Y139000D01*
G37*
G54D39*X142500Y135500D03*
G54D37*X179000D03*
X146500Y168900D03*
X163500Y162500D03*
G54D38*G36*
X186000Y138500D02*X192000D01*
Y132500D01*
X186000D01*
Y138500D01*
G37*
G54D40*X85000Y209000D03*
X185000D03*
G54D37*X146500Y193193D03*
X164807Y211500D03*
G54D38*G36*
X60063Y242437D02*Y234563D01*
X67937D01*
Y242437D01*
X60063D01*
G37*
G54D41*X54000Y238500D03*
G54D38*G36*
X160063Y242437D02*Y234563D01*
X167937D01*
Y242437D01*
X160063D01*
G37*
G54D41*X154000Y238500D03*
G54D42*G54D43*G54D44*G54D45*G54D44*G54D45*G54D44*G54D43*G54D44*G54D45*G54D43*M02*
