G04 start of page 2 for group -1 layer_idx 268435461 *
G04 Title: (unknown), <virtual group> *
G04 Creator: pcb-rnd 3.1.8-dev *
G04 CreationDate: 2025-10-15 01:59:17 UTC *
G04 For:  *
G04 Format: Gerber/RS-274X *
G04 PCB-Dimensions: 300000 400000 *
G04 PCB-Coordinate-Origin: lower left *
%MOIN*%
%FSLAX25Y25*%
%LNLOGICAL_VIRTUAL_FAB_NONE*%
%ADD130C,0.0100*%
%ADD129C,0.0060*%
%ADD128C,0.0080*%
G54D128*X43200Y258500D02*G75*G03X44800Y258500I800J0D01*G01*
G75*G03X43200Y258500I-800J0D01*G01*
X83200D02*G75*G03X84800Y258500I800J0D01*G01*
G75*G03X83200Y258500I-800J0D01*G01*
X143200D02*G75*G03X144800Y258500I800J0D01*G01*
G75*G03X143200Y258500I-800J0D01*G01*
X183200D02*G75*G03X184800Y258500I800J0D01*G01*
G75*G03X183200Y258500I-800J0D01*G01*
X14200Y411250D02*G75*G03X15800Y411250I800J0D01*G01*
G75*G03X14200Y411250I-800J0D01*G01*
G54D129*X135000Y413500D02*Y412750D01*
X136500Y411250D01*
X138000Y412750D01*
Y413500D02*Y412750D01*
X136500Y411250D02*Y407500D01*
X139800Y410500D02*X142050D01*
X139800Y407500D02*X142800D01*
X139800Y413500D02*Y407500D01*
Y413500D02*X142800D01*
X147600D02*X148350Y412750D01*
X145350Y413500D02*X147600D01*
X144600Y412750D02*X145350Y413500D01*
X144600Y412750D02*Y411250D01*
X145350Y410500D01*
X147600D01*
X148350Y409750D01*
Y408250D01*
X147600Y407500D02*X148350Y408250D01*
X145350Y407500D02*X147600D01*
X144600Y408250D02*X145350Y407500D01*
X98000Y410500D02*X101000Y413500D01*
X98000Y410500D02*X101750D01*
X101000Y413500D02*Y407500D01*
X45000Y408250D02*X45750Y407500D01*
X45000Y412750D02*Y408250D01*
Y412750D02*X45750Y413500D01*
X47250D01*
X48000Y412750D01*
Y408250D01*
X47250Y407500D02*X48000Y408250D01*
X45750Y407500D02*X47250D01*
X45000Y409000D02*X48000Y412000D01*
X49800Y407500D02*X50550D01*
X52350Y408250D02*X53100Y407500D01*
X52350Y412750D02*Y408250D01*
Y412750D02*X53100Y413500D01*
X54600D01*
X55350Y412750D01*
Y408250D01*
X54600Y407500D02*X55350Y408250D01*
X53100Y407500D02*X54600D01*
X52350Y409000D02*X55350Y412000D01*
X57150Y407500D02*X60900Y411250D01*
Y413500D02*Y411250D01*
X57150Y413500D02*X60900D01*
X62700Y407500D02*X65700Y410500D01*
Y412750D02*Y410500D01*
X64950Y413500D02*X65700Y412750D01*
X63450Y413500D02*X64950D01*
X62700Y412750D02*X63450Y413500D01*
X62700Y412750D02*Y411250D01*
X63450Y410500D01*
X65700D01*
X83800Y150200D02*X86200Y147800D01*
X83800D02*X86200Y150200D01*
X183800D02*X186200Y147800D01*
X183800D02*X186200Y150200D01*
X83800Y210200D02*X86200Y207800D01*
X83800D02*X86200Y210200D01*
X183800D02*X186200Y207800D01*
X183800D02*X186200Y210200D01*
X13800Y427450D02*X16200Y425050D01*
X13800D02*X16200Y427450D01*
X135000Y428500D02*Y427750D01*
X136500Y426250D01*
X138000Y427750D01*
Y428500D02*Y427750D01*
X136500Y426250D02*Y422500D01*
X139800Y425500D02*X142050D01*
X139800Y422500D02*X142800D01*
X139800Y428500D02*Y422500D01*
Y428500D02*X142800D01*
X147600D02*X148350Y427750D01*
X145350Y428500D02*X147600D01*
X144600Y427750D02*X145350Y428500D01*
X144600Y427750D02*Y426250D01*
X145350Y425500D01*
X147600D01*
X148350Y424750D01*
Y423250D01*
X147600Y422500D02*X148350Y423250D01*
X145350Y422500D02*X147600D01*
X144600Y423250D02*X145350Y422500D01*
X98000Y425500D02*X101000Y428500D01*
X98000Y425500D02*X101750D01*
X101000Y428500D02*Y422500D01*
X45000Y423250D02*X45750Y422500D01*
X45000Y427750D02*Y423250D01*
Y427750D02*X45750Y428500D01*
X47250D01*
X48000Y427750D01*
Y423250D01*
X47250Y422500D02*X48000Y423250D01*
X45750Y422500D02*X47250D01*
X45000Y424000D02*X48000Y427000D01*
X49800Y422500D02*X50550D01*
X52350Y423250D02*X53100Y422500D01*
X52350Y427750D02*Y423250D01*
Y427750D02*X53100Y428500D01*
X54600D01*
X55350Y427750D01*
Y423250D01*
X54600Y422500D02*X55350Y423250D01*
X53100Y422500D02*X54600D01*
X52350Y424000D02*X55350Y427000D01*
X57150Y428500D02*X60150D01*
X57150D02*Y425500D01*
X57900Y426250D01*
X59400D01*
X60150Y425500D01*
Y423250D01*
X59400Y422500D02*X60150Y423250D01*
X57900Y422500D02*X59400D01*
X57150Y423250D02*X57900Y422500D01*
X61950Y427750D02*X62700Y428500D01*
X64950D01*
X65700Y427750D01*
Y426250D01*
X61950Y422500D02*X65700Y426250D01*
X61950Y422500D02*X65700D01*
X52500Y137100D02*Y133900D01*
X50900Y135500D02*X54100D01*
X42500Y137100D02*Y133900D01*
X40900Y135500D02*X44100D01*
X79000Y137100D02*Y133900D01*
X77400Y135500D02*X80600D01*
X89000Y137100D02*Y133900D01*
X87400Y135500D02*X90600D01*
X152500Y137100D02*Y133900D01*
X150900Y135500D02*X154100D01*
X142500Y137100D02*Y133900D01*
X140900Y135500D02*X144100D01*
X179000Y137100D02*Y133900D01*
X177400Y135500D02*X180600D01*
X189000Y137100D02*Y133900D01*
X187400Y135500D02*X190600D01*
X15000Y442850D02*Y439650D01*
X13400Y441250D02*X16600D01*
X135000Y443500D02*Y442750D01*
X136500Y441250D01*
X138000Y442750D01*
Y443500D02*Y442750D01*
X136500Y441250D02*Y437500D01*
X139800Y440500D02*X142050D01*
X139800Y437500D02*X142800D01*
X139800Y443500D02*Y437500D01*
Y443500D02*X142800D01*
X147600D02*X148350Y442750D01*
X145350Y443500D02*X147600D01*
X144600Y442750D02*X145350Y443500D01*
X144600Y442750D02*Y441250D01*
X145350Y440500D01*
X147600D01*
X148350Y439750D01*
Y438250D01*
X147600Y437500D02*X148350Y438250D01*
X145350Y437500D02*X147600D01*
X144600Y438250D02*X145350Y437500D01*
X98000Y438250D02*X98750Y437500D01*
X98000Y439750D02*Y438250D01*
Y439750D02*X98750Y440500D01*
X100250D01*
X101000Y439750D01*
Y438250D01*
X100250Y437500D02*X101000Y438250D01*
X98750Y437500D02*X100250D01*
X98000Y441250D02*X98750Y440500D01*
X98000Y442750D02*Y441250D01*
Y442750D02*X98750Y443500D01*
X100250D01*
X101000Y442750D01*
Y441250D01*
X100250Y440500D02*X101000Y441250D01*
X45000Y438250D02*X45750Y437500D01*
X45000Y442750D02*Y438250D01*
Y442750D02*X45750Y443500D01*
X47250D01*
X48000Y442750D01*
Y438250D01*
X47250Y437500D02*X48000Y438250D01*
X45750Y437500D02*X47250D01*
X45000Y439000D02*X48000Y442000D01*
X49800Y437500D02*X50550D01*
X52350Y438250D02*X53100Y437500D01*
X52350Y442750D02*Y438250D01*
Y442750D02*X53100Y443500D01*
X54600D01*
X55350Y442750D01*
Y438250D01*
X54600Y437500D02*X55350Y438250D01*
X53100Y437500D02*X54600D01*
X52350Y439000D02*X55350Y442000D01*
X57150Y442750D02*X57900Y443500D01*
X59400D01*
X60150Y442750D01*
Y438250D01*
X59400Y437500D02*X60150Y438250D01*
X57900Y437500D02*X59400D01*
X57150Y438250D02*X57900Y437500D01*
Y440500D02*X60150D01*
X61950Y438250D02*X62700Y437500D01*
X61950Y439750D02*Y438250D01*
Y439750D02*X62700Y440500D01*
X64200D01*
X64950Y439750D01*
Y438250D01*
X64200Y437500D02*X64950Y438250D01*
X62700Y437500D02*X64200D01*
X61950Y441250D02*X62700Y440500D01*
X61950Y442750D02*Y441250D01*
Y442750D02*X62700Y443500D01*
X64200D01*
X64950Y442750D01*
Y441250D01*
X64200Y440500D02*X64950Y441250D01*
X46500Y168900D02*Y167300D01*
Y168900D02*X47887Y169700D01*
X46500Y168900D02*X45113Y169700D01*
X46500Y193193D02*Y191593D01*
Y193193D02*X47887Y193993D01*
X46500Y193193D02*X45113Y193993D01*
X63500Y162500D02*Y160900D01*
Y162500D02*X64887Y163300D01*
X63500Y162500D02*X62113Y163300D01*
X64807Y211500D02*Y209900D01*
Y211500D02*X66194Y212300D01*
X64807Y211500D02*X63420Y212300D01*
X146500Y168900D02*Y167300D01*
Y168900D02*X147887Y169700D01*
X146500Y168900D02*X145113Y169700D01*
X163500Y162500D02*Y160900D01*
Y162500D02*X164887Y163300D01*
X163500Y162500D02*X162113Y163300D01*
X146500Y193193D02*Y191593D01*
Y193193D02*X147887Y193993D01*
X146500Y193193D02*X145113Y193993D01*
X164807Y211500D02*Y209900D01*
Y211500D02*X166194Y212300D01*
X164807Y211500D02*X163420Y212300D01*
X64000Y238500D02*Y236900D01*
Y238500D02*X65387Y239300D01*
X64000Y238500D02*X62613Y239300D01*
X54000Y238500D02*Y236900D01*
Y238500D02*X55387Y239300D01*
X54000Y238500D02*X52613Y239300D01*
X164000Y238500D02*Y236900D01*
Y238500D02*X165387Y239300D01*
X164000Y238500D02*X162613Y239300D01*
X154000Y238500D02*Y236900D01*
Y238500D02*X155387Y239300D01*
X154000Y238500D02*X152613Y239300D01*
X15000Y456250D02*Y454650D01*
Y456250D02*X16387Y457050D01*
X15000Y456250D02*X13613Y457050D01*
X135000Y458500D02*Y457750D01*
X136500Y456250D01*
X138000Y457750D01*
Y458500D02*Y457750D01*
X136500Y456250D02*Y452500D01*
X139800Y455500D02*X142050D01*
X139800Y452500D02*X142800D01*
X139800Y458500D02*Y452500D01*
Y458500D02*X142800D01*
X147600D02*X148350Y457750D01*
X145350Y458500D02*X147600D01*
X144600Y457750D02*X145350Y458500D01*
X144600Y457750D02*Y456250D01*
X145350Y455500D01*
X147600D01*
X148350Y454750D01*
Y453250D01*
X147600Y452500D02*X148350Y453250D01*
X145350Y452500D02*X147600D01*
X144600Y453250D02*X145350Y452500D01*
X98750D02*X100250D01*
X99500Y458500D02*Y452500D01*
X98000Y457000D02*X99500Y458500D01*
X102050Y457750D02*X102800Y458500D01*
X105050D01*
X105800Y457750D01*
Y456250D01*
X102050Y452500D02*X105800Y456250D01*
X102050Y452500D02*X105800D01*
X45000Y453250D02*X45750Y452500D01*
X45000Y457750D02*Y453250D01*
Y457750D02*X45750Y458500D01*
X47250D01*
X48000Y457750D01*
Y453250D01*
X47250Y452500D02*X48000Y453250D01*
X45750Y452500D02*X47250D01*
X45000Y454000D02*X48000Y457000D01*
X49800Y452500D02*X50550D01*
X52350Y453250D02*X53100Y452500D01*
X52350Y457750D02*Y453250D01*
Y457750D02*X53100Y458500D01*
X54600D01*
X55350Y457750D01*
Y453250D01*
X54600Y452500D02*X55350Y453250D01*
X53100Y452500D02*X54600D01*
X52350Y454000D02*X55350Y457000D01*
X57150Y457750D02*X57900Y458500D01*
X59400D01*
X60150Y457750D01*
Y453250D01*
X59400Y452500D02*X60150Y453250D01*
X57900Y452500D02*X59400D01*
X57150Y453250D02*X57900Y452500D01*
Y455500D02*X60150D01*
X61950Y458500D02*X64950D01*
X61950D02*Y455500D01*
X62700Y456250D01*
X64200D01*
X64950Y455500D01*
Y453250D01*
X64200Y452500D02*X64950Y453250D01*
X62700Y452500D02*X64200D01*
X61950Y453250D02*X62700Y452500D01*
X3000Y473500D02*X3750Y472750D01*
X750Y473500D02*X3000D01*
X0Y472750D02*X750Y473500D01*
X0Y472750D02*Y471250D01*
X750Y470500D01*
X3000D01*
X3750Y469750D01*
Y468250D01*
X3000Y467500D02*X3750Y468250D01*
X750Y467500D02*X3000D01*
X0Y468250D02*X750Y467500D01*
X5550Y470500D02*Y468250D01*
X6300Y467500D01*
X8550Y470500D02*Y466000D01*
X7800Y465250D02*X8550Y466000D01*
X6300Y465250D02*X7800D01*
X5550Y466000D02*X6300Y465250D01*
Y467500D02*X7800D01*
X8550Y468250D01*
X11100Y469750D02*Y467500D01*
Y469750D02*X11850Y470500D01*
X12600D01*
X13350Y469750D01*
Y467500D01*
Y469750D02*X14100Y470500D01*
X14850D01*
X15600Y469750D01*
Y467500D01*
X10350Y470500D02*X11100Y469750D01*
X17400Y473500D02*Y467500D01*
Y468250D02*X18150Y467500D01*
X19650D01*
X20400Y468250D01*
Y469750D02*Y468250D01*
X19650Y470500D02*X20400Y469750D01*
X18150Y470500D02*X19650D01*
X17400Y469750D02*X18150Y470500D01*
X22200Y469750D02*Y468250D01*
Y469750D02*X22950Y470500D01*
X24450D01*
X25200Y469750D01*
Y468250D01*
X24450Y467500D02*X25200Y468250D01*
X22950Y467500D02*X24450D01*
X22200Y468250D02*X22950Y467500D01*
X27000Y473500D02*Y468250D01*
X27750Y467500D01*
X0Y464250D02*X29250D01*
X41750Y473500D02*Y467500D01*
X44000Y473500D02*X44750Y472750D01*
Y468250D01*
X44000Y467500D02*X44750Y468250D01*
X41000Y467500D02*X44000D01*
X41000Y473500D02*X44000D01*
X46550Y472000D02*Y471250D01*
Y469750D02*Y467500D01*
X50300Y470500D02*X51050Y469750D01*
X48800Y470500D02*X50300D01*
X48050Y469750D02*X48800Y470500D01*
X48050Y469750D02*Y468250D01*
X48800Y467500D01*
X51050Y470500D02*Y468250D01*
X51800Y467500D01*
X48800D02*X50300D01*
X51050Y468250D01*
X54350Y469750D02*Y467500D01*
Y469750D02*X55100Y470500D01*
X55850D01*
X56600Y469750D01*
Y467500D01*
Y469750D02*X57350Y470500D01*
X58100D01*
X58850Y469750D01*
Y467500D01*
X53600Y470500D02*X54350Y469750D01*
X60650Y467500D02*X61400D01*
X65900Y468250D02*X66650Y467500D01*
X65900Y472750D02*X66650Y473500D01*
X65900Y472750D02*Y468250D01*
X68450Y473500D02*X69950D01*
X69200D02*Y467500D01*
X68450D02*X69950D01*
X72500Y469750D02*Y467500D01*
Y469750D02*X73250Y470500D01*
X74000D01*
X74750Y469750D01*
Y467500D01*
X71750Y470500D02*X72500Y469750D01*
X77300Y470500D02*X79550D01*
X76550Y469750D02*X77300Y470500D01*
X76550Y469750D02*Y468250D01*
X77300Y467500D01*
X79550D01*
X81350Y473500D02*Y467500D01*
Y469750D02*X82100Y470500D01*
X83600D01*
X84350Y469750D01*
Y467500D01*
X86150Y473500D02*X86900Y472750D01*
Y468250D01*
X86150Y467500D02*X86900Y468250D01*
X41000Y464250D02*X88700D01*
X95750Y467500D02*X98000D01*
X95000Y468250D02*X95750Y467500D01*
X95000Y472750D02*Y468250D01*
Y472750D02*X95750Y473500D01*
X98000D01*
X99800Y469750D02*Y468250D01*
Y469750D02*X100550Y470500D01*
X102050D01*
X102800Y469750D01*
Y468250D01*
X102050Y467500D02*X102800Y468250D01*
X100550Y467500D02*X102050D01*
X99800Y468250D02*X100550Y467500D01*
X104600Y470500D02*Y468250D01*
X105350Y467500D01*
X106850D01*
X107600Y468250D01*
Y470500D02*Y468250D01*
X110150Y469750D02*Y467500D01*
Y469750D02*X110900Y470500D01*
X111650D01*
X112400Y469750D01*
Y467500D01*
X109400Y470500D02*X110150Y469750D01*
X114950Y473500D02*Y468250D01*
X115700Y467500D01*
X114200Y471250D02*X115700D01*
X95000Y464250D02*X117200D01*
X130750Y473500D02*Y467500D01*
X130000Y473500D02*X133000D01*
X133750Y472750D01*
Y471250D01*
X133000Y470500D02*X133750Y471250D01*
X130750Y470500D02*X133000D01*
X135550Y473500D02*Y468250D01*
X136300Y467500D01*
X140050Y470500D02*X140800Y469750D01*
X138550Y470500D02*X140050D01*
X137800Y469750D02*X138550Y470500D01*
X137800Y469750D02*Y468250D01*
X138550Y467500D01*
X140800Y470500D02*Y468250D01*
X141550Y467500D01*
X138550D02*X140050D01*
X140800Y468250D01*
X144100Y473500D02*Y468250D01*
X144850Y467500D01*
X143350Y471250D02*X144850D01*
X147100Y467500D02*X149350D01*
X146350Y468250D02*X147100Y467500D01*
X146350Y469750D02*Y468250D01*
Y469750D02*X147100Y470500D01*
X148600D01*
X149350Y469750D01*
X146350Y469000D02*X149350D01*
Y469750D01*
X154150Y473500D02*Y467500D01*
X153400D02*X154150Y468250D01*
X151900Y467500D02*X153400D01*
X151150Y468250D02*X151900Y467500D01*
X151150Y469750D02*Y468250D01*
Y469750D02*X151900Y470500D01*
X153400D01*
X154150Y469750D01*
X157450Y470500D02*Y469750D01*
Y468250D02*Y467500D01*
X155950Y472750D02*Y472000D01*
Y472750D02*X156700Y473500D01*
X158200D01*
X158950Y472750D01*
Y472000D01*
X157450Y470500D02*X158950Y472000D01*
X130000Y464250D02*X160750D01*
X0Y488500D02*X3000D01*
X1500D02*Y482500D01*
X4800Y488500D02*Y482500D01*
Y484750D02*X5550Y485500D01*
X7050D01*
X7800Y484750D01*
Y482500D01*
X10350D02*X12600D01*
X9600Y483250D02*X10350Y482500D01*
X9600Y484750D02*Y483250D01*
Y484750D02*X10350Y485500D01*
X11850D01*
X12600Y484750D01*
X9600Y484000D02*X12600D01*
Y484750D01*
X15150D02*Y482500D01*
Y484750D02*X15900Y485500D01*
X17400D01*
X14400D02*X15150Y484750D01*
X19950Y482500D02*X22200D01*
X19200Y483250D02*X19950Y482500D01*
X19200Y484750D02*Y483250D01*
Y484750D02*X19950Y485500D01*
X21450D01*
X22200Y484750D01*
X19200Y484000D02*X22200D01*
Y484750D01*
X28950Y485500D02*X29700Y484750D01*
X27450Y485500D02*X28950D01*
X26700Y484750D02*X27450Y485500D01*
X26700Y484750D02*Y483250D01*
X27450Y482500D01*
X29700Y485500D02*Y483250D01*
X30450Y482500D01*
X27450D02*X28950D01*
X29700Y483250D01*
X33000Y484750D02*Y482500D01*
Y484750D02*X33750Y485500D01*
X35250D01*
X32250D02*X33000Y484750D01*
X37800Y482500D02*X40050D01*
X37050Y483250D02*X37800Y482500D01*
X37050Y484750D02*Y483250D01*
Y484750D02*X37800Y485500D01*
X39300D01*
X40050Y484750D01*
X37050Y484000D02*X40050D01*
Y484750D01*
X44550Y485500D02*X47550Y488500D01*
X44550Y485500D02*X48300D01*
X47550Y488500D02*Y482500D01*
X55800Y488500D02*Y482500D01*
X55050D02*X55800Y483250D01*
X53550Y482500D02*X55050D01*
X52800Y483250D02*X53550Y482500D01*
X52800Y484750D02*Y483250D01*
Y484750D02*X53550Y485500D01*
X55050D01*
X55800Y484750D01*
X57600Y487000D02*Y486250D01*
Y484750D02*Y482500D01*
X59850Y487750D02*Y482500D01*
Y487750D02*X60600Y488500D01*
X61350D01*
X59100Y485500D02*X60600D01*
X63600Y487750D02*Y482500D01*
Y487750D02*X64350Y488500D01*
X65100D01*
X62850Y485500D02*X64350D01*
X67350Y482500D02*X69600D01*
X66600Y483250D02*X67350Y482500D01*
X66600Y484750D02*Y483250D01*
Y484750D02*X67350Y485500D01*
X68850D01*
X69600Y484750D01*
X66600Y484000D02*X69600D01*
Y484750D01*
X72150D02*Y482500D01*
Y484750D02*X72900Y485500D01*
X74400D01*
X71400D02*X72150Y484750D01*
X76950Y482500D02*X79200D01*
X76200Y483250D02*X76950Y482500D01*
X76200Y484750D02*Y483250D01*
Y484750D02*X76950Y485500D01*
X78450D01*
X79200Y484750D01*
X76200Y484000D02*X79200D01*
Y484750D01*
X81750D02*Y482500D01*
Y484750D02*X82500Y485500D01*
X83250D01*
X84000Y484750D01*
Y482500D01*
X81000Y485500D02*X81750Y484750D01*
X86550Y488500D02*Y483250D01*
X87300Y482500D01*
X85800Y486250D02*X87300D01*
X94500Y488500D02*Y482500D01*
X93750D02*X94500Y483250D01*
X92250Y482500D02*X93750D01*
X91500Y483250D02*X92250Y482500D01*
X91500Y484750D02*Y483250D01*
Y484750D02*X92250Y485500D01*
X93750D01*
X94500Y484750D01*
X97050D02*Y482500D01*
Y484750D02*X97800Y485500D01*
X99300D01*
X96300D02*X97050Y484750D01*
X101100Y487000D02*Y486250D01*
Y484750D02*Y482500D01*
X102600Y488500D02*Y483250D01*
X103350Y482500D01*
X104850Y488500D02*Y483250D01*
X105600Y482500D01*
X110550D02*X112800D01*
X113550Y483250D01*
X112800Y484000D02*X113550Y483250D01*
X110550Y484000D02*X112800D01*
X109800Y484750D02*X110550Y484000D01*
X109800Y484750D02*X110550Y485500D01*
X112800D01*
X113550Y484750D01*
X109800Y483250D02*X110550Y482500D01*
X115350Y487000D02*Y486250D01*
Y484750D02*Y482500D01*
X116850Y485500D02*X119850D01*
X116850Y482500D02*X119850Y485500D01*
X116850Y482500D02*X119850D01*
X122400D02*X124650D01*
X121650Y483250D02*X122400Y482500D01*
X121650Y484750D02*Y483250D01*
Y484750D02*X122400Y485500D01*
X123900D01*
X124650Y484750D01*
X121650Y484000D02*X124650D01*
Y484750D01*
X127200Y482500D02*X129450D01*
X130200Y483250D01*
X129450Y484000D02*X130200Y483250D01*
X127200Y484000D02*X129450D01*
X126450Y484750D02*X127200Y484000D01*
X126450Y484750D02*X127200Y485500D01*
X129450D01*
X130200Y484750D01*
X126450Y483250D02*X127200Y482500D01*
X134700Y485500D02*Y483250D01*
X135450Y482500D01*
X136950D01*
X137700Y483250D01*
Y485500D02*Y483250D01*
X140250Y482500D02*X142500D01*
X143250Y483250D01*
X142500Y484000D02*X143250Y483250D01*
X140250Y484000D02*X142500D01*
X139500Y484750D02*X140250Y484000D01*
X139500Y484750D02*X140250Y485500D01*
X142500D01*
X143250Y484750D01*
X139500Y483250D02*X140250Y482500D01*
X145800D02*X148050D01*
X145050Y483250D02*X145800Y482500D01*
X145050Y484750D02*Y483250D01*
Y484750D02*X145800Y485500D01*
X147300D01*
X148050Y484750D01*
X145050Y484000D02*X148050D01*
Y484750D01*
X152850Y488500D02*Y482500D01*
X152100D02*X152850Y483250D01*
X150600Y482500D02*X152100D01*
X149850Y483250D02*X150600Y482500D01*
X149850Y484750D02*Y483250D01*
Y484750D02*X150600Y485500D01*
X152100D01*
X152850Y484750D01*
X157350Y487000D02*Y486250D01*
Y484750D02*Y482500D01*
X159600Y484750D02*Y482500D01*
Y484750D02*X160350Y485500D01*
X161100D01*
X161850Y484750D01*
Y482500D01*
X158850Y485500D02*X159600Y484750D01*
X167100Y488500D02*Y483250D01*
X167850Y482500D01*
X166350Y486250D02*X167850D01*
X169350Y488500D02*Y482500D01*
Y484750D02*X170100Y485500D01*
X171600D01*
X172350Y484750D01*
Y482500D01*
X174150Y487000D02*Y486250D01*
Y484750D02*Y482500D01*
X176400D02*X178650D01*
X179400Y483250D01*
X178650Y484000D02*X179400Y483250D01*
X176400Y484000D02*X178650D01*
X175650Y484750D02*X176400Y484000D01*
X175650Y484750D02*X176400Y485500D01*
X178650D01*
X179400Y484750D01*
X175650Y483250D02*X176400Y482500D01*
X183900Y488500D02*Y483250D01*
X184650Y482500D01*
X188400Y485500D02*X189150Y484750D01*
X186900Y485500D02*X188400D01*
X186150Y484750D02*X186900Y485500D01*
X186150Y484750D02*Y483250D01*
X186900Y482500D01*
X189150Y485500D02*Y483250D01*
X189900Y482500D01*
X186900D02*X188400D01*
X189150Y483250D01*
X191700Y485500D02*Y483250D01*
X192450Y482500D01*
X194700Y485500D02*Y481000D01*
X193950Y480250D02*X194700Y481000D01*
X192450Y480250D02*X193950D01*
X191700Y481000D02*X192450Y480250D01*
Y482500D02*X193950D01*
X194700Y483250D01*
X196500Y484750D02*Y483250D01*
Y484750D02*X197250Y485500D01*
X198750D01*
X199500Y484750D01*
Y483250D01*
X198750Y482500D02*X199500Y483250D01*
X197250Y482500D02*X198750D01*
X196500Y483250D02*X197250Y482500D01*
X201300Y485500D02*Y483250D01*
X202050Y482500D01*
X203550D01*
X204300Y483250D01*
Y485500D02*Y483250D01*
X206850Y488500D02*Y483250D01*
X207600Y482500D01*
X206100Y486250D02*X207600D01*
X209100Y481000D02*X210600Y482500D01*
X215100Y487750D02*X215850Y488500D01*
X218100D01*
X218850Y487750D01*
Y486250D01*
X215100Y482500D02*X218850Y486250D01*
X215100Y482500D02*X218850D01*
X220650Y483250D02*X221400Y482500D01*
X220650Y484750D02*Y483250D01*
Y484750D02*X221400Y485500D01*
X222900D01*
X223650Y484750D01*
Y483250D01*
X222900Y482500D02*X223650Y483250D01*
X221400Y482500D02*X222900D01*
X220650Y486250D02*X221400Y485500D01*
X220650Y487750D02*Y486250D01*
Y487750D02*X221400Y488500D01*
X222900D01*
X223650Y487750D01*
Y486250D01*
X222900Y485500D02*X223650Y486250D01*
X228150Y488500D02*Y482500D01*
Y484750D02*X228900Y485500D01*
X230400D01*
X231150Y484750D01*
Y482500D01*
X232950Y484750D02*Y483250D01*
Y484750D02*X233700Y485500D01*
X235200D01*
X235950Y484750D01*
Y483250D01*
X235200Y482500D02*X235950Y483250D01*
X233700Y482500D02*X235200D01*
X232950Y483250D02*X233700Y482500D01*
X237750Y488500D02*Y483250D01*
X238500Y482500D01*
X240750D02*X243000D01*
X240000Y483250D02*X240750Y482500D01*
X240000Y484750D02*Y483250D01*
Y484750D02*X240750Y485500D01*
X242250D01*
X243000Y484750D01*
X240000Y484000D02*X243000D01*
Y484750D01*
X245550Y482500D02*X247800D01*
X248550Y483250D01*
X247800Y484000D02*X248550Y483250D01*
X245550Y484000D02*X247800D01*
X244800Y484750D02*X245550Y484000D01*
X244800Y484750D02*X245550Y485500D01*
X247800D01*
X248550Y484750D01*
X244800Y483250D02*X245550Y482500D01*
X253800Y488500D02*Y483250D01*
X254550Y482500D01*
X253050Y486250D02*X254550D01*
X256050Y484750D02*Y483250D01*
Y484750D02*X256800Y485500D01*
X258300D01*
X259050Y484750D01*
Y483250D01*
X258300Y482500D02*X259050Y483250D01*
X256800Y482500D02*X258300D01*
X256050Y483250D02*X256800Y482500D01*
X261600Y488500D02*Y483250D01*
X262350Y482500D01*
X260850Y486250D02*X262350D01*
X266100Y485500D02*X266850Y484750D01*
X264600Y485500D02*X266100D01*
X263850Y484750D02*X264600Y485500D01*
X263850Y484750D02*Y483250D01*
X264600Y482500D01*
X266850Y485500D02*Y483250D01*
X267600Y482500D01*
X264600D02*X266100D01*
X266850Y483250D01*
X269400Y488500D02*Y483250D01*
X270150Y482500D01*
G54D130*X29500Y289000D02*X199000D01*
X29500Y125640D02*Y289000D01*
X199000Y125640D02*Y289000D01*
X193000Y119640D02*X35500D01*
X29500Y125640D02*G75*G03X35500Y119640I6000J0D01*G01*
X193000D02*G75*G03X199000Y125640I0J6000D01*G01*
G54D129*X63675Y-9500D02*X66675D01*
X67425Y-8750D01*
Y-7250D02*Y-8750D01*
X66675Y-6500D02*X67425Y-7250D01*
X64425Y-6500D02*X66675D01*
X64425Y-3500D02*Y-9500D01*
X63675Y-3500D02*X66675D01*
X67425Y-4250D01*
Y-5750D01*
X66675Y-6500D02*X67425Y-5750D01*
X69225Y-7250D02*Y-8750D01*
Y-7250D02*X69975Y-6500D01*
X71475D01*
X72225Y-7250D01*
Y-8750D01*
X71475Y-9500D02*X72225Y-8750D01*
X69975Y-9500D02*X71475D01*
X69225Y-8750D02*X69975Y-9500D01*
X76275Y-6500D02*X77025Y-7250D01*
X74775Y-6500D02*X76275D01*
X74025Y-7250D02*X74775Y-6500D01*
X74025Y-7250D02*Y-8750D01*
X74775Y-9500D01*
X77025Y-6500D02*Y-8750D01*
X77775Y-9500D01*
X74775D02*X76275D01*
X77025Y-8750D01*
X80325Y-7250D02*Y-9500D01*
Y-7250D02*X81075Y-6500D01*
X82575D01*
X79575D02*X80325Y-7250D01*
X87375Y-3500D02*Y-9500D01*
X86625D02*X87375Y-8750D01*
X85125Y-9500D02*X86625D01*
X84375Y-8750D02*X85125Y-9500D01*
X84375Y-7250D02*Y-8750D01*
Y-7250D02*X85125Y-6500D01*
X86625D01*
X87375Y-7250D01*
X91875D02*Y-8750D01*
Y-7250D02*X92625Y-6500D01*
X94125D01*
X94875Y-7250D01*
Y-8750D01*
X94125Y-9500D02*X94875Y-8750D01*
X92625Y-9500D02*X94125D01*
X91875Y-8750D02*X92625Y-9500D01*
X96675Y-6500D02*Y-8750D01*
X97425Y-9500D01*
X98925D01*
X99675Y-8750D01*
Y-6500D02*Y-8750D01*
X102225Y-3500D02*Y-8750D01*
X102975Y-9500D01*
X101475Y-5750D02*X102975D01*
X104475Y-3500D02*Y-8750D01*
X105225Y-9500D01*
X106725Y-5000D02*Y-5750D01*
Y-7250D02*Y-9500D01*
X108975Y-7250D02*Y-9500D01*
Y-7250D02*X109725Y-6500D01*
X110475D01*
X111225Y-7250D01*
Y-9500D01*
X108225Y-6500D02*X108975Y-7250D01*
X113775Y-9500D02*X116025D01*
X113025Y-8750D02*X113775Y-9500D01*
X113025Y-7250D02*Y-8750D01*
Y-7250D02*X113775Y-6500D01*
X115275D01*
X116025Y-7250D01*
X113025Y-8000D02*X116025D01*
Y-7250D01*
X120525Y-5000D02*Y-5750D01*
Y-7250D02*Y-9500D01*
X122775D02*X125025D01*
X125775Y-8750D01*
X125025Y-8000D02*X125775Y-8750D01*
X122775Y-8000D02*X125025D01*
X122025Y-7250D02*X122775Y-8000D01*
X122025Y-7250D02*X122775Y-6500D01*
X125025D01*
X125775Y-7250D01*
X122025Y-8750D02*X122775Y-9500D01*
X131025Y-3500D02*Y-8750D01*
X131775Y-9500D01*
X130275Y-5750D02*X131775D01*
X133275Y-3500D02*Y-9500D01*
Y-7250D02*X134025Y-6500D01*
X135525D01*
X136275Y-7250D01*
Y-9500D01*
X138825D02*X141075D01*
X138075Y-8750D02*X138825Y-9500D01*
X138075Y-7250D02*Y-8750D01*
Y-7250D02*X138825Y-6500D01*
X140325D01*
X141075Y-7250D01*
X138075Y-8000D02*X141075D01*
Y-7250D01*
X146325Y-6500D02*X148575D01*
X145575Y-7250D02*X146325Y-6500D01*
X145575Y-7250D02*Y-8750D01*
X146325Y-9500D01*
X148575D01*
X151125D02*X153375D01*
X150375Y-8750D02*X151125Y-9500D01*
X150375Y-7250D02*Y-8750D01*
Y-7250D02*X151125Y-6500D01*
X152625D01*
X153375Y-7250D01*
X150375Y-8000D02*X153375D01*
Y-7250D01*
X155925D02*Y-9500D01*
Y-7250D02*X156675Y-6500D01*
X157425D01*
X158175Y-7250D01*
Y-9500D01*
X155175Y-6500D02*X155925Y-7250D01*
X160725Y-3500D02*Y-8750D01*
X161475Y-9500D01*
X159975Y-5750D02*X161475D01*
X163725Y-9500D02*X165975D01*
X162975Y-8750D02*X163725Y-9500D01*
X162975Y-7250D02*Y-8750D01*
Y-7250D02*X163725Y-6500D01*
X165225D01*
X165975Y-7250D01*
X162975Y-8000D02*X165975D01*
Y-7250D01*
X168525D02*Y-9500D01*
Y-7250D02*X169275Y-6500D01*
X170775D01*
X167775D02*X168525Y-7250D01*
X172575Y-3500D02*Y-8750D01*
X173325Y-9500D01*
X174825Y-5000D02*Y-5750D01*
Y-7250D02*Y-9500D01*
X177075Y-7250D02*Y-9500D01*
Y-7250D02*X177825Y-6500D01*
X178575D01*
X179325Y-7250D01*
Y-9500D01*
X176325Y-6500D02*X177075Y-7250D01*
X181875Y-9500D02*X184125D01*
X181125Y-8750D02*X181875Y-9500D01*
X181125Y-7250D02*Y-8750D01*
Y-7250D02*X181875Y-6500D01*
X183375D01*
X184125Y-7250D01*
X181125Y-8000D02*X184125D01*
Y-7250D01*
X188625D02*Y-8750D01*
Y-7250D02*X189375Y-6500D01*
X190875D01*
X191625Y-7250D01*
Y-8750D01*
X190875Y-9500D02*X191625Y-8750D01*
X189375Y-9500D02*X190875D01*
X188625Y-8750D02*X189375Y-9500D01*
X194175Y-4250D02*Y-9500D01*
Y-4250D02*X194925Y-3500D01*
X195675D01*
X193425Y-6500D02*X194925D01*
X200625Y-3500D02*Y-8750D01*
X201375Y-9500D01*
X199875Y-5750D02*X201375D01*
X202875Y-3500D02*Y-9500D01*
Y-7250D02*X203625Y-6500D01*
X205125D01*
X205875Y-7250D01*
Y-9500D01*
X207675Y-5000D02*Y-5750D01*
Y-7250D02*Y-9500D01*
X209925D02*X212175D01*
X212925Y-8750D01*
X212175Y-8000D02*X212925Y-8750D01*
X209925Y-8000D02*X212175D01*
X209175Y-7250D02*X209925Y-8000D01*
X209175Y-7250D02*X209925Y-6500D01*
X212175D01*
X212925Y-7250D01*
X209175Y-8750D02*X209925Y-9500D01*
X218175Y-7250D02*Y-11750D01*
X217425Y-6500D02*X218175Y-7250D01*
X218925Y-6500D01*
X220425D01*
X221175Y-7250D01*
Y-8750D01*
X220425Y-9500D02*X221175Y-8750D01*
X218925Y-9500D02*X220425D01*
X218175Y-8750D02*X218925Y-9500D01*
X225225Y-6500D02*X225975Y-7250D01*
X223725Y-6500D02*X225225D01*
X222975Y-7250D02*X223725Y-6500D01*
X222975Y-7250D02*Y-8750D01*
X223725Y-9500D01*
X225975Y-6500D02*Y-8750D01*
X226725Y-9500D01*
X223725D02*X225225D01*
X225975Y-8750D01*
X229275Y-3500D02*Y-8750D01*
X230025Y-9500D01*
X228525Y-5750D02*X230025D01*
X231525Y-3500D02*Y-9500D01*
Y-7250D02*X232275Y-6500D01*
X233775D01*
X234525Y-7250D01*
Y-9500D01*
X200750Y428500D02*Y422500D01*
X203000Y428500D02*X203750Y427750D01*
Y423250D01*
X203000Y422500D02*X203750Y423250D01*
X200000Y422500D02*X203000D01*
X200000Y428500D02*X203000D01*
X207800Y425500D02*X208550Y424750D01*
X206300Y425500D02*X207800D01*
X205550Y424750D02*X206300Y425500D01*
X205550Y424750D02*Y423250D01*
X206300Y422500D01*
X208550Y425500D02*Y423250D01*
X209300Y422500D01*
X206300D02*X207800D01*
X208550Y423250D01*
X211850Y428500D02*Y423250D01*
X212600Y422500D01*
X211100Y426250D02*X212600D01*
X214850Y422500D02*X217100D01*
X214100Y423250D02*X214850Y422500D01*
X214100Y424750D02*Y423250D01*
Y424750D02*X214850Y425500D01*
X216350D01*
X217100Y424750D01*
X214100Y424000D02*X217100D01*
Y424750D01*
X218900Y426250D02*X219650D01*
X218900Y424750D02*X219650D01*
X224150Y427750D02*X224900Y428500D01*
X227150D01*
X227900Y427750D01*
Y426250D01*
X224150Y422500D02*X227900Y426250D01*
X224150Y422500D02*X227900D01*
X229700Y423250D02*X230450Y422500D01*
X229700Y427750D02*Y423250D01*
Y427750D02*X230450Y428500D01*
X231950D01*
X232700Y427750D01*
Y423250D01*
X231950Y422500D02*X232700Y423250D01*
X230450Y422500D02*X231950D01*
X229700Y424000D02*X232700Y427000D01*
X234500Y427750D02*X235250Y428500D01*
X237500D01*
X238250Y427750D01*
Y426250D01*
X234500Y422500D02*X238250Y426250D01*
X234500Y422500D02*X238250D01*
X240050Y428500D02*X243050D01*
X240050D02*Y425500D01*
X240800Y426250D01*
X242300D01*
X243050Y425500D01*
Y423250D01*
X242300Y422500D02*X243050Y423250D01*
X240800Y422500D02*X242300D01*
X240050Y423250D02*X240800Y422500D01*
X244850Y425500D02*X247850D01*
X250400Y422500D02*X251900D01*
X251150Y428500D02*Y422500D01*
X249650Y427000D02*X251150Y428500D01*
X253700Y423250D02*X254450Y422500D01*
X253700Y427750D02*Y423250D01*
Y427750D02*X254450Y428500D01*
X255950D01*
X256700Y427750D01*
Y423250D01*
X255950Y422500D02*X256700Y423250D01*
X254450Y422500D02*X255950D01*
X253700Y424000D02*X256700Y427000D01*
X258500Y425500D02*X261500D01*
X264050Y422500D02*X265550D01*
X264800Y428500D02*Y422500D01*
X263300Y427000D02*X264800Y428500D01*
X267350D02*X270350D01*
X267350D02*Y425500D01*
X268100Y426250D01*
X269600D01*
X270350Y425500D01*
Y423250D01*
X269600Y422500D02*X270350Y423250D01*
X268100Y422500D02*X269600D01*
X267350Y423250D02*X268100Y422500D01*
X274850Y423250D02*X275600Y422500D01*
X274850Y427750D02*Y423250D01*
Y427750D02*X275600Y428500D01*
X277100D01*
X277850Y427750D01*
Y423250D01*
X277100Y422500D02*X277850Y423250D01*
X275600Y422500D02*X277100D01*
X274850Y424000D02*X277850Y427000D01*
X280400Y422500D02*X281900D01*
X281150Y428500D02*Y422500D01*
X279650Y427000D02*X281150Y428500D01*
X283700Y426250D02*X284450D01*
X283700Y424750D02*X284450D01*
X286250Y428500D02*X289250D01*
X286250D02*Y425500D01*
X287000Y426250D01*
X288500D01*
X289250Y425500D01*
Y423250D01*
X288500Y422500D02*X289250Y423250D01*
X287000Y422500D02*X288500D01*
X286250Y423250D02*X287000Y422500D01*
X291050D02*X294050Y425500D01*
Y427750D02*Y425500D01*
X293300Y428500D02*X294050Y427750D01*
X291800Y428500D02*X293300D01*
X291050Y427750D02*X291800Y428500D01*
X291050Y427750D02*Y426250D01*
X291800Y425500D01*
X294050D01*
X295850Y426250D02*X296600D01*
X295850Y424750D02*X296600D01*
X299150Y422500D02*X300650D01*
X299900Y428500D02*Y422500D01*
X298400Y427000D02*X299900Y428500D01*
X302450Y422500D02*X306200Y426250D01*
Y428500D02*Y426250D01*
X302450Y428500D02*X306200D01*
X310700D02*Y423250D01*
X311450Y422500D01*
X312950D01*
X313700Y423250D01*
Y428500D02*Y423250D01*
X315500Y428500D02*X318500D01*
X317000D02*Y422500D01*
X321050D02*X323300D01*
X320300Y423250D02*X321050Y422500D01*
X320300Y427750D02*Y423250D01*
Y427750D02*X321050Y428500D01*
X323300D01*
X200000Y442750D02*Y437500D01*
Y442750D02*X200750Y443500D01*
X203000D01*
X203750Y442750D01*
Y437500D01*
X200000Y440500D02*X203750D01*
X205550D02*Y438250D01*
X206300Y437500D01*
X207800D01*
X208550Y438250D01*
Y440500D02*Y438250D01*
X211100Y443500D02*Y438250D01*
X211850Y437500D01*
X210350Y441250D02*X211850D01*
X213350Y443500D02*Y437500D01*
Y439750D02*X214100Y440500D01*
X215600D01*
X216350Y439750D01*
Y437500D01*
X218150Y439750D02*Y438250D01*
Y439750D02*X218900Y440500D01*
X220400D01*
X221150Y439750D01*
Y438250D01*
X220400Y437500D02*X221150Y438250D01*
X218900Y437500D02*X220400D01*
X218150Y438250D02*X218900Y437500D01*
X223700Y439750D02*Y437500D01*
Y439750D02*X224450Y440500D01*
X225950D01*
X222950D02*X223700Y439750D01*
X227750Y441250D02*X228500D01*
X227750Y439750D02*X228500D01*
X200000Y458500D02*X203000D01*
X201500D02*Y452500D01*
X204800Y457000D02*Y456250D01*
Y454750D02*Y452500D01*
X207050Y458500D02*Y453250D01*
X207800Y452500D01*
X206300Y456250D02*X207800D01*
X209300Y458500D02*Y453250D01*
X210050Y452500D01*
X212300D02*X214550D01*
X211550Y453250D02*X212300Y452500D01*
X211550Y454750D02*Y453250D01*
Y454750D02*X212300Y455500D01*
X213800D01*
X214550Y454750D01*
X211550Y454000D02*X214550D01*
Y454750D01*
X216350Y456250D02*X217100D01*
X216350Y454750D02*X217100D01*
X221600Y453250D02*X222350Y452500D01*
X221600Y457750D02*X222350Y458500D01*
X221600Y457750D02*Y453250D01*
X224150Y455500D02*Y453250D01*
X224900Y452500D01*
X226400D01*
X227150Y453250D01*
Y455500D02*Y453250D01*
X229700Y454750D02*Y452500D01*
Y454750D02*X230450Y455500D01*
X231200D01*
X231950Y454750D01*
Y452500D01*
X228950Y455500D02*X229700Y454750D01*
X233750Y458500D02*Y452500D01*
Y454750D02*X236000Y452500D01*
X233750Y454750D02*X235250Y456250D01*
X238550Y454750D02*Y452500D01*
Y454750D02*X239300Y455500D01*
X240050D01*
X240800Y454750D01*
Y452500D01*
X237800Y455500D02*X238550Y454750D01*
X242600D02*Y453250D01*
Y454750D02*X243350Y455500D01*
X244850D01*
X245600Y454750D01*
Y453250D01*
X244850Y452500D02*X245600Y453250D01*
X243350Y452500D02*X244850D01*
X242600Y453250D02*X243350Y452500D01*
X247400Y455500D02*Y453250D01*
X248150Y452500D01*
X248900D01*
X249650Y453250D01*
Y455500D02*Y453250D01*
X250400Y452500D01*
X251150D01*
X251900Y453250D01*
Y455500D02*Y453250D01*
X254450Y454750D02*Y452500D01*
Y454750D02*X255200Y455500D01*
X255950D01*
X256700Y454750D01*
Y452500D01*
X253700Y455500D02*X254450Y454750D01*
X258500Y458500D02*X259250Y457750D01*
Y453250D01*
X258500Y452500D02*X259250Y453250D01*
X263750Y455500D02*X266750D01*
X271250Y458500D02*Y452500D01*
Y458500D02*X274250D01*
X271250Y455500D02*X273500D01*
X278300D02*X279050Y454750D01*
X276800Y455500D02*X278300D01*
X276050Y454750D02*X276800Y455500D01*
X276050Y454750D02*Y453250D01*
X276800Y452500D01*
X279050Y455500D02*Y453250D01*
X279800Y452500D01*
X276800D02*X278300D01*
X279050Y453250D01*
X281600Y458500D02*Y452500D01*
Y453250D02*X282350Y452500D01*
X283850D01*
X284600Y453250D01*
Y454750D02*Y453250D01*
X283850Y455500D02*X284600Y454750D01*
X282350Y455500D02*X283850D01*
X281600Y454750D02*X282350Y455500D01*
X287150Y454750D02*Y452500D01*
Y454750D02*X287900Y455500D01*
X289400D01*
X286400D02*X287150Y454750D01*
X291200Y457000D02*Y456250D01*
Y454750D02*Y452500D01*
X293450Y455500D02*X295700D01*
X292700Y454750D02*X293450Y455500D01*
X292700Y454750D02*Y453250D01*
X293450Y452500D01*
X295700D01*
X299750Y455500D02*X300500Y454750D01*
X298250Y455500D02*X299750D01*
X297500Y454750D02*X298250Y455500D01*
X297500Y454750D02*Y453250D01*
X298250Y452500D01*
X300500Y455500D02*Y453250D01*
X301250Y452500D01*
X298250D02*X299750D01*
X300500Y453250D01*
X303800Y458500D02*Y453250D01*
X304550Y452500D01*
X303050Y456250D02*X304550D01*
X306050Y457000D02*Y456250D01*
Y454750D02*Y452500D01*
X307550Y454750D02*Y453250D01*
Y454750D02*X308300Y455500D01*
X309800D01*
X310550Y454750D01*
Y453250D01*
X309800Y452500D02*X310550Y453250D01*
X308300Y452500D02*X309800D01*
X307550Y453250D02*X308300Y452500D01*
X313100Y454750D02*Y452500D01*
Y454750D02*X313850Y455500D01*
X314600D01*
X315350Y454750D01*
Y452500D01*
X312350Y455500D02*X313100Y454750D01*
X320600Y458500D02*Y452500D01*
X322850Y458500D02*X323600Y457750D01*
Y453250D01*
X322850Y452500D02*X323600Y453250D01*
X319850Y452500D02*X322850D01*
X319850Y458500D02*X322850D01*
X326150Y454750D02*Y452500D01*
Y454750D02*X326900Y455500D01*
X328400D01*
X325400D02*X326150Y454750D01*
X332450Y455500D02*X333200Y454750D01*
X330950Y455500D02*X332450D01*
X330200Y454750D02*X330950Y455500D01*
X330200Y454750D02*Y453250D01*
X330950Y452500D01*
X333200Y455500D02*Y453250D01*
X333950Y452500D01*
X330950D02*X332450D01*
X333200Y453250D01*
X335750Y455500D02*Y453250D01*
X336500Y452500D01*
X337250D01*
X338000Y453250D01*
Y455500D02*Y453250D01*
X338750Y452500D01*
X339500D01*
X340250Y453250D01*
Y455500D02*Y453250D01*
X342050Y457000D02*Y456250D01*
Y454750D02*Y452500D01*
X344300Y454750D02*Y452500D01*
Y454750D02*X345050Y455500D01*
X345800D01*
X346550Y454750D01*
Y452500D01*
X343550Y455500D02*X344300Y454750D01*
X350600Y455500D02*X351350Y454750D01*
X349100Y455500D02*X350600D01*
X348350Y454750D02*X349100Y455500D01*
X348350Y454750D02*Y453250D01*
X349100Y452500D01*
X350600D01*
X351350Y453250D01*
X348350Y451000D02*X349100Y450250D01*
X350600D01*
X351350Y451000D01*
Y455500D02*Y451000D01*
M02*
