G04 start of page 6 for group -4063 idx -4063 *
G04 Title: (unknown), componentmask *
G04 Creator: pcb 20110918 *
G04 CreationDate: Thu Mar  7 18:25:08 2013 UTC *
G04 For: fosse *
G04 Format: Gerber/RS-274X *
G04 PCB-Dimensions: 200000 200000 *
G04 PCB-Coordinate-Origin: lower left *
%MOIN*%
%FSLAX25Y25*%
%LNTOPMASK*%
%ADD49R,0.1243X0.1243*%
%ADD48R,0.0940X0.0940*%
%ADD47C,0.2060*%
%ADD46C,0.0760*%
%ADD45C,0.0660*%
%ADD44C,0.0001*%
%ADD43C,0.0860*%
G54D43*X56500Y118500D03*
X24500Y146500D03*
X34500D03*
X124500D03*
X134500D03*
G54D44*G36*
X57200Y48300D02*Y41700D01*
X63800D01*
Y48300D01*
X57200D01*
G37*
G54D45*X50500Y45000D03*
G54D44*G36*
X20200Y48800D02*Y41200D01*
X27800D01*
Y48800D01*
X20200D01*
G37*
G54D46*X14000Y45000D03*
G54D44*G36*
X52200Y62800D02*Y54200D01*
X60800D01*
Y62800D01*
X52200D01*
G37*
G54D47*X14500Y170500D03*
X54500D03*
X114500D03*
X154500D03*
G54D44*G36*
X157200Y48300D02*Y41700D01*
X163800D01*
Y48300D01*
X157200D01*
G37*
G36*
X152200Y62800D02*Y54200D01*
X160800D01*
Y62800D01*
X152200D01*
G37*
G54D43*X156500Y118500D03*
G54D45*X150500Y45000D03*
G54D44*G36*
X120200Y48800D02*Y41200D01*
X127800D01*
Y48800D01*
X120200D01*
G37*
G54D46*X114000Y45000D03*
G54D48*X118000Y78400D02*Y72000D01*
X135000Y78400D02*Y72000D01*
G54D49*X118000Y121000D02*Y102693D01*
G54D48*X18000Y78400D02*Y72000D01*
X35000Y78400D02*Y72000D01*
G54D49*X18000Y121000D02*Y102693D01*
X36307Y121000D02*Y102693D01*
X136307Y121000D02*Y102693D01*
M02*
