G04 start of page 2 for group 0 idx 0 *
G04 Title: (unknown), component *
G04 Creator: pcb 20110918 *
G04 CreationDate: Thu Mar  7 18:25:08 2013 UTC *
G04 For: fosse *
G04 Format: Gerber/RS-274X *
G04 PCB-Dimensions: 200000 200000 *
G04 PCB-Coordinate-Origin: lower left *
%MOIN*%
%FSLAX25Y25*%
%LNTOP*%
%ADD24C,0.0860*%
%ADD23C,0.0380*%
%ADD22C,0.0520*%
%ADD21R,0.1143X0.1143*%
%ADD20R,0.0740X0.0740*%
%ADD19C,0.2000*%
%ADD18C,0.0700*%
%ADD17C,0.0600*%
%ADD16C,0.0001*%
%ADD15C,0.0800*%
%ADD14C,0.0100*%
%ADD13C,0.0250*%
%ADD12C,0.0350*%
%ADD11C,0.0400*%
G54D11*X124000Y45000D02*X118000Y72000D01*
X156500Y58500D02*X135000Y72000D01*
X106500Y52500D02*X114000Y45000D01*
X106500Y91000D02*Y52500D01*
X118000Y102500D02*X106500Y91000D01*
X118000Y102693D02*Y102500D01*
G54D12*X156500Y118500D02*X138807D01*
G54D13*X136307Y121000D01*
G54D12*X118000D02*X124500Y146500D01*
G54D14*X1500Y198360D02*Y29010D01*
X169990D01*
Y198350D01*
G54D12*X136307Y121000D02*X134500Y146500D01*
G54D14*X1500Y198360D02*X169990D01*
G54D11*X18000Y102500D02*X6500Y91000D01*
X18000Y102693D02*Y102500D01*
G54D12*X56500Y118500D02*X38807D01*
G54D11*X24000Y45000D02*X18000Y72000D01*
X56500Y58500D02*X35000Y72000D01*
X6500Y52500D02*X14000Y45000D01*
X6500Y91000D02*Y52500D01*
G54D13*X38807Y118500D02*X36307Y121000D01*
G54D12*X18000D02*X24500Y146500D01*
X36307Y121000D02*X34500Y146500D01*
G54D15*X56500Y118500D03*
X24500Y146500D03*
X34500D03*
X124500D03*
X134500D03*
G54D16*G36*
X57500Y48000D02*Y42000D01*
X63500D01*
Y48000D01*
X57500D01*
G37*
G54D17*X50500Y45000D03*
G54D16*G36*
X20500Y48500D02*Y41500D01*
X27500D01*
Y48500D01*
X20500D01*
G37*
G54D18*X14000Y45000D03*
G54D16*G36*
X52500Y62500D02*Y54500D01*
X60500D01*
Y62500D01*
X52500D01*
G37*
G54D19*X14500Y170500D03*
X54500D03*
X114500D03*
X154500D03*
G54D16*G36*
X157500Y48000D02*Y42000D01*
X163500D01*
Y48000D01*
X157500D01*
G37*
G36*
X152500Y62500D02*Y54500D01*
X160500D01*
Y62500D01*
X152500D01*
G37*
G54D15*X156500Y118500D03*
G54D17*X150500Y45000D03*
G54D16*G36*
X120500Y48500D02*Y41500D01*
X127500D01*
Y48500D01*
X120500D01*
G37*
G54D18*X114000Y45000D03*
G54D20*X118000Y78400D02*Y72000D01*
X135000Y78400D02*Y72000D01*
G54D21*X118000Y121000D02*Y102693D01*
G54D20*X18000Y78400D02*Y72000D01*
X35000Y78400D02*Y72000D01*
G54D21*X18000Y121000D02*Y102693D01*
X36307Y121000D02*Y102693D01*
X136307Y121000D02*Y102693D01*
G54D17*X118000Y78400D03*
X135000Y72000D03*
X118000Y102693D03*
X18000Y78400D03*
X35000Y72000D03*
X18000Y102693D03*
X36307Y121000D03*
X136307D03*
G54D12*G54D22*G54D12*G54D23*G54D22*G54D24*G54D23*G54D22*G54D23*M02*
