G04 start of page 8 for group -4079 idx -4079 *
G04 Title: (unknown), topsilk *
G04 Creator: pcb 20110918 *
G04 CreationDate: Thu Mar  7 18:25:08 2013 UTC *
G04 For: fosse *
G04 Format: Gerber/RS-274X *
G04 PCB-Dimensions: 200000 200000 *
G04 PCB-Coordinate-Origin: lower left *
%MOIN*%
%FSLAX25Y25*%
%LNTOPSILK*%
%ADD56C,0.0110*%
%ADD55C,0.0100*%
G54D55*X64000Y29500D02*X69500Y35000D01*
X164000Y29500D02*X169500Y35000D01*
X107500Y29500D02*X164000D01*
X102000Y35000D02*X107500Y29500D01*
X7500D02*X64000D01*
X2000Y35000D02*X7500Y29500D01*
X2000Y197500D02*Y35000D01*
X69500D02*Y197500D01*
X169500Y35000D02*Y197500D01*
X102000D02*Y35000D01*
X169990Y29010D02*Y198350D01*
X1500Y198360D02*X169990D01*
X1500D02*Y29010D01*
X169990D01*
X56520Y37950D02*X58005D01*
X58500Y37455D02*X58005Y37950D01*
X58500Y37455D02*Y34485D01*
X58005Y33990D01*
X56520D02*X58005D01*
X55332Y37950D02*Y33990D01*
Y36465D02*X54837Y35970D01*
X53847D02*X54837D01*
X53847D02*X53352Y36465D01*
Y37950D02*Y36465D01*
X50679Y35970D02*X50184Y36465D01*
X50679Y35970D02*X51669D01*
X52164Y36465D02*X51669Y35970D01*
X52164Y37455D02*Y36465D01*
Y37455D02*X51669Y37950D01*
X50184Y37455D02*Y35970D01*
Y37455D02*X49689Y37950D01*
X50679D02*X51669D01*
X50679D02*X50184Y37455D01*
X46521Y37950D02*X48006D01*
X46521D02*X46026Y37455D01*
X46521Y36960D02*X46026Y37455D01*
X46521Y36960D02*X48006D01*
X48501Y36465D02*X48006Y36960D01*
X48501Y36465D02*X48006Y35970D01*
X46521D02*X48006D01*
X46521D02*X46026Y36465D01*
X48501Y37455D02*X48006Y37950D01*
X42858D02*X44343D01*
X42858D02*X42363Y37455D01*
X42858Y36960D02*X42363Y37455D01*
X42858Y36960D02*X44343D01*
X44838Y36465D02*X44343Y36960D01*
X44838Y36465D02*X44343Y35970D01*
X42858D02*X44343D01*
X42858D02*X42363Y36465D01*
X44838Y37455D02*X44343Y37950D01*
X41175Y35475D02*Y34980D01*
Y37950D02*Y36465D01*
X38205Y37950D02*X39690D01*
X38205D02*X37710Y37455D01*
X38205Y36960D02*X37710Y37455D01*
X38205Y36960D02*X39690D01*
X40185Y36465D02*X39690Y36960D01*
X40185Y36465D02*X39690Y35970D01*
X38205D02*X39690D01*
X38205D02*X37710Y36465D01*
X40185Y37455D02*X39690Y37950D01*
X156520D02*X158005D01*
X158500Y37455D02*X158005Y37950D01*
X158500Y37455D02*Y34485D01*
X158005Y33990D01*
X156520D02*X158005D01*
X155332Y37950D02*Y33990D01*
Y36465D02*X154837Y35970D01*
X153847D02*X154837D01*
X153847D02*X153352Y36465D01*
Y37950D02*Y36465D01*
X150679Y35970D02*X150184Y36465D01*
X150679Y35970D02*X151669D01*
X152164Y36465D02*X151669Y35970D01*
X152164Y37455D02*Y36465D01*
Y37455D02*X151669Y37950D01*
X150184Y37455D02*Y35970D01*
Y37455D02*X149689Y37950D01*
X150679D02*X151669D01*
X150679D02*X150184Y37455D01*
X146521Y37950D02*X148006D01*
X146521D02*X146026Y37455D01*
X146521Y36960D02*X146026Y37455D01*
X146521Y36960D02*X148006D01*
X148501Y36465D02*X148006Y36960D01*
X148501Y36465D02*X148006Y35970D01*
X146521D02*X148006D01*
X146521D02*X146026Y36465D01*
X148501Y37455D02*X148006Y37950D01*
X142858D02*X144343D01*
X142858D02*X142363Y37455D01*
X142858Y36960D02*X142363Y37455D01*
X142858Y36960D02*X144343D01*
X144838Y36465D02*X144343Y36960D01*
X144838Y36465D02*X144343Y35970D01*
X142858D02*X144343D01*
X142858D02*X142363Y36465D01*
X144838Y37455D02*X144343Y37950D01*
X141175Y35475D02*Y34980D01*
Y37950D02*Y36465D01*
X138205Y37950D02*X139690D01*
X138205D02*X137710Y37455D01*
X138205Y36960D02*X137710Y37455D01*
X138205Y36960D02*X139690D01*
X140185Y36465D02*X139690Y36960D01*
X140185Y36465D02*X139690Y35970D01*
X138205D02*X139690D01*
X138205D02*X137710Y36465D01*
X140185Y37455D02*X139690Y37950D01*
X5500Y179500D02*Y197820D01*
X63500Y140650D02*Y161500D01*
X5500Y140650D02*X63500D01*
X5500Y197850D02*X63500D01*
Y179500D02*Y197850D01*
X5500Y140650D02*Y161500D01*
X25000Y180500D02*X28000D01*
X27000Y185500D02*X28000Y184500D01*
Y183500D01*
X25000Y180500D01*
X33000Y185500D02*X30000D01*
Y183500D01*
X32000D01*
X33000Y182500D01*
Y181500D01*
X32000Y180500D01*
X31000D01*
X30000Y181500D01*
X25000Y184500D02*X26000Y185500D01*
X27000D01*
X44500D02*Y180500D01*
X42500Y182500D02*Y180500D01*
Y184500D02*Y185500D01*
X41000Y180500D02*Y183000D01*
X39500Y181500D01*
X38000Y183000D01*
Y180500D01*
X8000Y196000D02*Y190000D01*
Y196000D02*X10000D01*
X11000Y195000D01*
Y194000D01*
X10000Y193000D01*
X8000D01*
X13000D02*X12000Y192000D01*
Y191000D01*
X13000Y190000D01*
X14000D01*
X15000Y191000D01*
Y192000D01*
X14000Y193000D01*
X13000D01*
X15000Y191000D02*X16000Y190000D01*
X21000Y192000D02*X20000Y193000D01*
X19000D01*
X18000Y192000D01*
Y190000D02*Y193000D01*
X24000Y196000D02*Y190000D01*
X25000Y194000D02*X23000D01*
X29000Y190000D02*X28000Y191000D01*
Y192000D01*
X29000Y193000D01*
X30000D01*
X31000Y192000D01*
Y191000D01*
X30000Y190000D01*
X29000D01*
X33000Y193000D02*Y191000D01*
X34000Y190000D01*
X35000Y191000D01*
Y193000D01*
X37000Y190000D02*X39000D01*
Y193000D02*X37000D01*
Y190000D01*
X43000Y193000D02*X42000D01*
X41000Y192000D01*
Y190000D02*Y193000D01*
X44000Y192000D02*X43000Y193000D01*
X47000Y190000D02*X49000D01*
Y193000D02*X47000D01*
Y190000D01*
X53000Y193000D02*X52000D01*
X51000Y192000D01*
Y191000D01*
X52000Y190000D01*
X53000D01*
Y196000D01*
X57000Y193000D02*X56000D01*
X55000Y192000D01*
Y191000D01*
X56000Y190000D01*
X57000D01*
Y193000D02*Y188000D01*
X56000Y187000D01*
X55000Y188000D01*
X59000Y190000D02*X61000D01*
Y193000D02*X59000D01*
Y190000D01*
X60500Y191500D02*X59000D01*
X48500D02*X47000D01*
X38500D02*X37000D01*
X48000Y196500D02*X47000Y195500D01*
X48000Y196500D02*X49000Y195500D01*
X48000Y194500D02*Y196500D01*
X45500Y50000D02*X65500D01*
X45500D02*Y40000D01*
X65500D01*
Y50000D02*Y40000D01*
X55500Y50000D02*Y40000D01*
X65500D01*
G54D56*X17000Y79900D02*X36100D01*
X17000D02*Y70600D01*
X36100D01*
Y79900D02*Y70600D01*
G54D55*X19000Y40000D02*X29000D01*
X19000Y50000D02*Y40000D01*
X29000Y50000D02*Y40000D01*
X9000D02*X29000D01*
X9000Y50000D02*Y40000D01*
Y50000D02*X29000D01*
X51500Y73500D02*X61500D01*
Y103500D02*Y73500D01*
X51500Y103500D02*X61500D01*
X51500D02*Y73500D01*
X56500Y118500D02*Y103500D01*
Y73500D02*Y58500D01*
X10814Y95509D03*
X11800Y96493D02*X42508D01*
Y127202D02*Y96493D01*
X11800Y127202D02*X42508D01*
X11800D02*Y96493D01*
X145500Y50000D02*X165500D01*
X145500D02*Y40000D01*
X165500D01*
Y50000D02*Y40000D01*
X155500Y50000D02*Y40000D01*
X165500D01*
G54D56*X117000Y79900D02*X136100D01*
X117000D02*Y70600D01*
X136100D01*
Y79900D02*Y70600D01*
G54D55*X119000Y40000D02*X129000D01*
X119000Y50000D02*Y40000D01*
X129000Y50000D02*Y40000D01*
X109000D02*X129000D01*
X109000Y50000D02*Y40000D01*
Y50000D02*X129000D01*
X151500Y73500D02*X161500D01*
Y103500D02*Y73500D01*
X151500Y103500D02*X161500D01*
X151500D02*Y73500D01*
X156500Y118500D02*Y103500D01*
Y73500D02*Y58500D01*
X105500Y179500D02*Y197820D01*
X163500Y140650D02*Y161500D01*
X105500Y140650D02*X163500D01*
X105500Y197850D02*X163500D01*
Y179500D02*Y197850D01*
X105500Y140650D02*Y161500D01*
X125000Y180500D02*X128000D01*
X127000Y185500D02*X128000Y184500D01*
Y183500D01*
X125000Y180500D01*
X133000Y185500D02*X130000D01*
Y183500D01*
X132000D01*
X133000Y182500D01*
Y181500D01*
X132000Y180500D01*
X131000D01*
X130000Y181500D01*
X125000Y184500D02*X126000Y185500D01*
X127000D01*
X144500D02*Y180500D01*
X142500Y182500D02*Y180500D01*
Y184500D02*Y185500D01*
X141000Y180500D02*Y183000D01*
X139500Y181500D01*
X138000Y183000D01*
Y180500D01*
X108000Y196000D02*Y190000D01*
Y196000D02*X110000D01*
X111000Y195000D01*
Y194000D01*
X110000Y193000D01*
X108000D01*
X113000D02*X112000Y192000D01*
Y191000D01*
X113000Y190000D01*
X114000D01*
X115000Y191000D01*
Y192000D01*
X114000Y193000D01*
X113000D01*
X115000Y191000D02*X116000Y190000D01*
X121000Y192000D02*X120000Y193000D01*
X119000D01*
X118000Y192000D01*
Y190000D02*Y193000D01*
X124000Y196000D02*Y190000D01*
X125000Y194000D02*X123000D01*
X129000Y190000D02*X128000Y191000D01*
Y192000D01*
X129000Y193000D01*
X130000D01*
X131000Y192000D01*
Y191000D01*
X130000Y190000D01*
X129000D01*
X133000Y193000D02*Y191000D01*
X134000Y190000D01*
X135000Y191000D01*
Y193000D01*
X137000Y190000D02*X139000D01*
Y193000D02*X137000D01*
Y190000D01*
X143000Y193000D02*X142000D01*
X141000Y192000D01*
Y190000D02*Y193000D01*
X144000Y192000D02*X143000Y193000D01*
X147000Y190000D02*X149000D01*
Y193000D02*X147000D01*
Y190000D01*
X153000Y193000D02*X152000D01*
X151000Y192000D01*
Y191000D01*
X152000Y190000D01*
X153000D01*
Y196000D01*
X157000Y193000D02*X156000D01*
X155000Y192000D01*
Y191000D01*
X156000Y190000D01*
X157000D01*
Y193000D02*Y188000D01*
X156000Y187000D01*
X155000Y188000D01*
X159000Y190000D02*X161000D01*
Y193000D02*X159000D01*
Y190000D01*
X160500Y191500D02*X159000D01*
X148500D02*X147000D01*
X138500D02*X137000D01*
X148000Y196500D02*X147000Y195500D01*
X148000Y196500D02*X149000Y195500D01*
X148000Y194500D02*Y196500D01*
X110814Y95509D03*
X111800Y96493D02*X142508D01*
Y127202D02*Y96493D01*
X111800Y127202D02*X142508D01*
X111800D02*Y96493D01*
X164000Y34000D02*X165500D01*
X164000Y37500D02*Y34000D01*
X164500Y38000D02*X164000Y37500D01*
X164500Y38000D02*X165000D01*
X165500Y37500D02*X165000Y38000D01*
X162800Y34500D02*X162300Y34000D01*
X160800D02*X162300D01*
X160800D02*X160300Y34500D01*
Y35500D02*Y34500D01*
X162800Y38000D02*X160300Y35500D01*
Y38000D02*X162800D01*
X64000Y34000D02*X65500D01*
X64000Y37500D02*Y34000D01*
X64500Y38000D02*X64000Y37500D01*
X64500Y38000D02*X65000D01*
X65500Y37500D02*X65000Y38000D01*
X61300D02*X62300D01*
X61800D02*Y34000D01*
X62800Y35000D02*X61800Y34000D01*
X23600Y86700D02*X25600D01*
X26100Y86200D01*
Y85200D01*
X25600Y84700D02*X26100Y85200D01*
X24100Y84700D02*X25600D01*
X24100Y86700D02*Y82700D01*
Y84700D02*X26100Y82700D01*
X27800D02*X28800D01*
X28300Y86700D02*Y82700D01*
X27300Y85700D02*X28300Y86700D01*
X24500Y38500D02*X26000D01*
X26500Y38000D02*X26000Y38500D01*
X26500Y38000D02*Y35000D01*
X26000Y34500D01*
X24500D02*X26000D01*
X23300Y38000D02*Y35000D01*
X22800Y34500D01*
X21800D02*X22800D01*
X21800D02*X21300Y35000D01*
Y38000D02*Y35000D01*
X21800Y38500D02*X21300Y38000D01*
X21800Y38500D02*X22800D01*
X23300Y38000D02*X22800Y38500D01*
X20100D02*Y34500D01*
Y35000D02*Y34500D01*
Y35000D02*X17600Y37500D01*
Y38500D02*Y34500D01*
X16400Y38500D02*Y34500D01*
Y35000D02*Y34500D01*
Y35000D02*X13900Y37500D01*
Y38500D02*Y34500D01*
X11200Y38500D02*X12200D01*
X11700D02*Y34500D01*
X12700Y35500D02*X11700Y34500D01*
X49500Y87500D02*Y86000D01*
X49000Y85500D02*X49500Y86000D01*
X46000Y85500D02*X49000D01*
X46000D02*X45500Y86000D01*
Y87500D02*Y86000D01*
X49500Y90200D02*Y89200D01*
X45500Y89700D02*X49500D01*
X46500Y88700D02*X45500Y89700D01*
X6640Y133760D02*X8140D01*
X6140Y134260D02*X6640Y133760D01*
X6140Y137260D02*Y134260D01*
Y137260D02*X6640Y137760D01*
X8140D01*
X9340Y137260D02*Y134260D01*
Y137260D02*X9840Y137760D01*
X10840D01*
X11340Y137260D01*
Y134260D01*
X10840Y133760D02*X11340Y134260D01*
X9840Y133760D02*X10840D01*
X9340Y134260D02*X9840Y133760D01*
X12540Y137760D02*Y133760D01*
Y137760D02*Y137260D01*
X15040Y134760D01*
Y137760D02*Y133760D01*
X16240Y137760D02*Y133760D01*
Y137760D02*Y137260D01*
X18740Y134760D01*
Y137760D02*Y133760D01*
X19940Y137260D02*X20440Y137760D01*
X21940D01*
X22440Y137260D01*
Y136260D01*
X19940Y133760D02*X22440Y136260D01*
X19940Y133760D02*X22440D01*
X5910Y109484D02*X9910D01*
Y111484D02*Y109484D01*
Y114184D02*Y113184D01*
X5910Y113684D02*X9910D01*
X6910Y112684D02*X5910Y113684D01*
X123600Y86700D02*X125600D01*
X126100Y86200D01*
Y85200D01*
X125600Y84700D02*X126100Y85200D01*
X124100Y84700D02*X125600D01*
X124100Y86700D02*Y82700D01*
Y84700D02*X126100Y82700D01*
X127300Y86200D02*X127800Y86700D01*
X129300D01*
X129800Y86200D01*
Y85200D01*
X127300Y82700D02*X129800Y85200D01*
X127300Y82700D02*X129800D01*
X126500Y35000D02*X126000Y34500D01*
X125000D02*X126000D01*
X125000D02*X124500Y35000D01*
Y38000D02*Y35000D01*
X125000Y38500D02*X124500Y38000D01*
X125000Y38500D02*X126000D01*
X126500Y38000D02*X126000Y38500D01*
X124500Y36500D02*X126000D01*
X149500Y87500D02*Y86000D01*
X149000Y85500D02*X149500Y86000D01*
X146000Y85500D02*X149000D01*
X146000D02*X145500Y86000D01*
Y87500D02*Y86000D01*
X146000Y88700D02*X145500Y89200D01*
Y90700D02*Y89200D01*
Y90700D02*X146000Y91200D01*
X147000D01*
X149500Y88700D02*X147000Y91200D01*
X149500D02*Y88700D01*
X106640Y133760D02*X108140D01*
X106140Y134260D02*X106640Y133760D01*
X106140Y137260D02*Y134260D01*
Y137260D02*X106640Y137760D01*
X108140D01*
X109340Y137260D02*Y134260D01*
Y137260D02*X109840Y137760D01*
X110840D01*
X111340Y137260D01*
Y134260D01*
X110840Y133760D02*X111340Y134260D01*
X109840Y133760D02*X110840D01*
X109340Y134260D02*X109840Y133760D01*
X112540Y137760D02*Y133760D01*
Y137760D02*Y137260D01*
X115040Y134760D01*
Y137760D02*Y133760D01*
X116240Y137760D02*Y133760D01*
Y137760D02*Y137260D01*
X118740Y134760D01*
Y137760D02*Y133760D01*
X119940Y137260D02*X120440Y137760D01*
X121440D01*
X121940Y137260D01*
Y134260D01*
X121440Y133760D02*X121940Y134260D01*
X120440Y133760D02*X121440D01*
X119940Y134260D02*X120440Y133760D01*
Y135760D02*X121940D01*
X105910Y109484D02*X109910D01*
Y111484D02*Y109484D01*
X106410Y112684D02*X105910Y113184D01*
Y114684D02*Y113184D01*
Y114684D02*X106410Y115184D01*
X107410D01*
X109910Y112684D02*X107410Y115184D01*
X109910D02*Y112684D01*
M02*
