M48
INCH
T42C0.086
T41C0.038
T40C0.035
T39C0.052
%
T40
X002450Y014650
X003450Y014650
X012450Y014650
X013450Y014650
X011800Y007840
X013500Y007200
X011800Y010269
X001800Y007840
X003500Y007200
X001800Y010269
X003631Y012100
X013631Y012100
T41
X006050Y004500
X005050Y004500
X002400Y004500
X001400Y004500
X016050Y004500
X015050Y004500
X012400Y004500
X011400Y004500
T39
X005650Y011850
X005650Y005850
X015650Y005850
X015650Y011850
T42
X001450Y017050
X005450Y017050
X011450Y017050
X015450Y017050
M30
