M48
INCH
T42C0.035
T41C0.038
T40C0.052
T39C0.086
%
T42
X004100Y013686
X005100Y013686
X014100Y013686
X015100Y013686
X003350Y006726
X005050Y006086
X003350Y009155
X005181Y010986
X013350Y006726
X013350Y009155
X015050Y006086
X015181Y010986
T41
X003950Y003386
X002950Y003386
X007600Y003386
X006600Y003386
X017600Y003386
X016600Y003386
X013950Y003386
X012950Y003386
T40
X007200Y004736
X007200Y010736
X017200Y004736
X017200Y010736
T39
X003100Y015686
X007100Y015686
X013100Y015686
X017100Y015686
M30
