M48
INCH
T12C0.035
T22C0.050
T23C0.032
T24C0.038
T25C0.079
%
T23
X010700Y039200
X011700Y039200
X020700Y039200
X021700Y039200
T12
X020050Y032390
X021750Y031750
X020050Y034819
X010050Y032390
X011750Y031750
X010050Y034819
X011880Y036650
X021880Y036650
T24
X014300Y029050
X013300Y029050
X010650Y029050
X009650Y029050
X024300Y029050
X023300Y029050
X020650Y029050
X019650Y029050
T22
X013900Y036400
X013900Y030400
X023900Y030400
X023900Y036400
T25
X009700Y041600
X013700Y041600
X019700Y041600
X023700Y041600
M30
