G04 start of page 2 for group 0 idx 0 *
G04 Title: (unknown), component *
G04 Creator: pcb 20091103 *
G04 CreationDate: Wed Aug 18 22:41:48 2010 UTC *
G04 For: fosse *
G04 Format: Gerber/RS-274X *
G04 PCB-Dimensions: 600000 500000 *
G04 PCB-Coordinate-Origin: lower left *
%MOIN*%
%FSLAX25Y25*%
%LNFRONT*%
%ADD11C,0.0400*%
%ADD12C,0.0350*%
%ADD13C,0.0250*%
%ADD14C,0.0100*%
%ADD15C,0.0800*%
%ADD16C,0.0200*%
%ADD17C,0.0600*%
%ADD18C,0.0700*%
%ADD19C,0.2000*%
%ADD20R,0.0740X0.0740*%
%ADD21R,0.1143X0.1143*%
%ADD22C,0.0500*%
%ADD23C,0.0320*%
%ADD24C,0.0380*%
%ADD25C,0.0790*%
G54D11*X206500Y290500D02*X200500Y317500D01*
X239000Y304000D02*X217500Y317500D01*
X189000Y298000D02*X196500Y290500D01*
X189000Y336500D02*Y298000D01*
X200500Y348000D02*X189000Y336500D01*
X200500Y348193D02*Y348000D01*
G54D12*X239000Y364000D02*X221307D01*
G54D13*X218807Y366500D01*
G54D12*X200500D02*X207000Y392000D01*
G54D14*X84000Y443860D02*Y274510D01*
X252490D01*
Y443850D01*
G54D12*X218807Y366500D02*X217000Y392000D01*
G54D14*X84000Y443860D02*X252490D01*
G54D11*X100500Y348000D02*X89000Y336500D01*
X100500Y348193D02*Y348000D01*
G54D12*X139000Y364000D02*X121307D01*
G54D11*X106500Y290500D02*X100500Y317500D01*
X139000Y304000D02*X117500Y317500D01*
X89000Y298000D02*X96500Y290500D01*
X89000Y336500D02*Y298000D01*
G54D13*X121307Y364000D02*X118807Y366500D01*
G54D12*X100500D02*X107000Y392000D01*
X118807Y366500D02*X117000Y392000D01*
G54D15*X139000Y364000D03*
X107000Y392000D03*
X117000D03*
X207000D03*
X217000D03*
G54D16*G36*
X140000Y293500D02*Y287500D01*
X146000D01*
Y293500D01*
X140000D01*
G37*
G54D17*X133000Y290500D03*
G54D16*G36*
X103000Y294000D02*Y287000D01*
X110000D01*
Y294000D01*
X103000D01*
G37*
G54D18*X96500Y290500D03*
G54D16*G36*
X135000Y308000D02*Y300000D01*
X143000D01*
Y308000D01*
X135000D01*
G37*
G54D19*X97000Y416000D03*
X137000D03*
X197000D03*
X237000D03*
G54D16*G36*
X240000Y293500D02*Y287500D01*
X246000D01*
Y293500D01*
X240000D01*
G37*
G36*
X235000Y308000D02*Y300000D01*
X243000D01*
Y308000D01*
X235000D01*
G37*
G54D15*X239000Y364000D03*
G54D17*X233000Y290500D03*
G54D16*G36*
X203000Y294000D02*Y287000D01*
X210000D01*
Y294000D01*
X203000D01*
G37*
G54D18*X196500Y290500D03*
G54D17*X200500Y323900D03*
X217500Y317500D03*
X200500Y348193D03*
X100500Y323900D03*
X117500Y317500D03*
X100500Y348193D03*
X118807Y366500D03*
X218807D03*
G54D20*X200500Y323900D02*Y317500D01*
X217500Y323900D02*Y317500D01*
G54D21*X200500Y366500D02*Y348193D01*
G54D20*X100500Y323900D02*Y317500D01*
X117500Y323900D02*Y317500D01*
G54D21*X100500Y366500D02*Y348193D01*
X118807Y366500D02*Y348193D01*
X218807Y366500D02*Y348193D01*
G54D22*G54D23*G54D24*G54D22*G54D25*G54D24*G54D22*G54D24*G54D12*M02*
