G04 start of page 5 for group -4062 idx -4062 *
G04 Title: (unknown), soldermask *
G04 Creator: pcb 20091103 *
G04 CreationDate: Wed Aug 18 22:41:48 2010 UTC *
G04 For: fosse *
G04 Format: Gerber/RS-274X *
G04 PCB-Dimensions: 600000 500000 *
G04 PCB-Coordinate-Origin: lower left *
%MOIN*%
%FSLAX25Y25*%
%LNBACKMASK*%
%ADD16C,0.0200*%
%ADD26C,0.0860*%
%ADD27C,0.0660*%
%ADD28C,0.0760*%
%ADD29C,0.2060*%
G54D26*X139000Y364000D03*
X107000Y392000D03*
X117000D03*
X207000D03*
X217000D03*
G54D16*G36*
X139700Y293800D02*Y287200D01*
X146300D01*
Y293800D01*
X139700D01*
G37*
G54D27*X133000Y290500D03*
G54D16*G36*
X102700Y294300D02*Y286700D01*
X110300D01*
Y294300D01*
X102700D01*
G37*
G54D28*X96500Y290500D03*
G54D16*G36*
X134700Y308300D02*Y299700D01*
X143300D01*
Y308300D01*
X134700D01*
G37*
G54D29*X97000Y416000D03*
X137000D03*
X197000D03*
X237000D03*
G54D16*G36*
X239700Y293800D02*Y287200D01*
X246300D01*
Y293800D01*
X239700D01*
G37*
G36*
X234700Y308300D02*Y299700D01*
X243300D01*
Y308300D01*
X234700D01*
G37*
G54D26*X239000Y364000D03*
G54D27*X233000Y290500D03*
G54D16*G36*
X202700Y294300D02*Y286700D01*
X210300D01*
Y294300D01*
X202700D01*
G37*
G54D28*X196500Y290500D03*
M02*
