G04 start of page 3 for group 1 idx 1 *
G04 Title: (unknown), solder *
G04 Creator: pcb 20091103 *
G04 CreationDate: Wed Aug 18 22:41:48 2010 UTC *
G04 For: fosse *
G04 Format: Gerber/RS-274X *
G04 PCB-Dimensions: 600000 500000 *
G04 PCB-Coordinate-Origin: lower left *
%MOIN*%
%FSLAX25Y25*%
%LNBACK*%
%ADD11C,0.0400*%
%ADD12C,0.0350*%
%ADD13C,0.0250*%
%ADD14C,0.0100*%
%ADD15C,0.0800*%
%ADD16C,0.0200*%
%ADD17C,0.0600*%
%ADD18C,0.0700*%
%ADD19C,0.2000*%
%ADD22C,0.0500*%
%ADD23C,0.0320*%
%ADD24C,0.0380*%
%ADD25C,0.0790*%
G54D11*X247500Y405500D02*X237000Y416000D01*
X247500Y295000D02*Y405500D01*
G54D14*X252490Y274510D02*Y443850D01*
G54D11*X147500Y405500D02*X137000Y416000D01*
X147500Y295000D02*Y405500D01*
G54D13*X133000Y290500D02*X143000D01*
G54D11*X100500Y348193D02*Y348000D01*
X143000Y290500D02*X147500Y295000D01*
G54D14*X84000Y443860D02*Y274510D01*
G54D13*X233000Y290500D02*X243000D01*
G54D14*X84000Y274510D02*X252490D01*
G54D11*X200500Y348193D02*Y348000D01*
X243000Y290500D02*X247500Y295000D01*
G54D14*X252490Y443860D02*X84000D01*
X209995Y351990D02*Y355950D01*
X209500Y351990D02*X211480D01*
X211975Y352485D01*
Y353475D01*
X211480Y353970D02*X211975Y353475D01*
X209995Y353970D02*X211480D01*
X213658Y355950D02*X215143D01*
X213163Y355455D02*X213658Y355950D01*
X213163Y352485D02*Y355455D01*
Y352485D02*X213658Y351990D01*
X215143D01*
X216332Y355950D02*X218312D01*
X218807Y355455D01*
Y354465D02*Y355455D01*
X218312Y353970D02*X218807Y354465D01*
X216827Y353970D02*X218312D01*
X216827Y351990D02*Y355950D01*
X216332Y351990D02*X218312D01*
X218807Y352485D01*
Y353475D01*
X218312Y353970D02*X218807Y353475D01*
X221778Y353970D02*X223263D01*
X221778Y355950D02*X223758D01*
X221778Y351990D02*Y355950D01*
Y351990D02*X223758D01*
X224947Y353970D02*X226432D01*
X224947Y355950D02*X226927D01*
X224947Y351990D02*Y355950D01*
Y351990D02*X226927D01*
X228116D02*Y355950D01*
Y351990D02*X230096D01*
X228116Y353970D02*X229601D01*
X207802Y343683D02*Y347643D01*
X209287Y343683D02*X209782Y344178D01*
Y347148D01*
X209287Y347643D02*X209782Y347148D01*
X207307Y347643D02*X209287D01*
X207307Y343683D02*X209287D01*
X211465Y347643D02*X212950D01*
X210970Y347148D02*X211465Y347643D01*
X210970Y346158D02*Y347148D01*
Y346158D02*X211465Y345663D01*
X212455D01*
X212950Y346158D01*
X210970Y346653D02*X212950D01*
Y346158D02*Y346653D01*
X214634Y347643D02*X216119D01*
X216614Y347148D01*
X216119Y346653D02*X216614Y347148D01*
X214634Y346653D02*X216119D01*
X214139Y346158D02*X214634Y346653D01*
X214139Y346158D02*X214634Y345663D01*
X216119D01*
X216614Y346158D01*
X214139Y347148D02*X214634Y347643D01*
X217803Y344673D02*Y345168D01*
Y346158D02*Y347643D01*
X220279Y345663D02*X220774Y346158D01*
X219289Y345663D02*X220279D01*
X218794Y346158D02*X219289Y345663D01*
X218794Y346158D02*Y347148D01*
X219289Y347643D01*
X220279D01*
X220774Y347148D01*
X218794Y348633D02*X219289Y349128D01*
X220279D01*
X220774Y348633D01*
Y345663D02*Y348633D01*
X222458Y346158D02*Y347643D01*
Y346158D02*X222953Y345663D01*
X223448D01*
X223943Y346158D01*
Y347643D01*
X221963Y345663D02*X222458Y346158D01*
X226914Y343683D02*X227904D01*
X227409D02*Y347643D01*
X226914D02*X227904D01*
X229093Y343683D02*X230578D01*
Y347148D01*
X230083Y347643D02*X230578Y347148D01*
X229588Y347643D02*X230083D01*
X229093Y347148D02*X229588Y347643D01*
X233747Y343683D02*X234242Y344178D01*
X232262Y343683D02*X233747D01*
X231767Y344178D02*X232262Y343683D01*
X231767Y344178D02*Y345168D01*
X232262Y345663D01*
X233747D01*
X234242Y346158D01*
Y347148D01*
X233747Y347643D02*X234242Y347148D01*
X232262Y347643D02*X233747D01*
X231767Y347148D02*X232262Y347643D01*
X201500Y338470D02*X202985D01*
X201500Y340450D02*X203480D01*
X201500Y336490D02*Y340450D01*
Y336490D02*X203480D01*
X205163D02*Y340450D01*
X204668Y336490D02*X206648D01*
X207143Y336985D01*
Y337975D01*
X206648Y338470D02*X207143Y337975D01*
X205163Y338470D02*X206648D01*
X208332Y336490D02*Y340450D01*
X210312D01*
X213283Y336985D02*X213778Y336490D01*
X215263D01*
X215758Y336985D01*
Y337975D01*
X213283Y340450D02*X215758Y337975D01*
X213283Y340450D02*X215758D01*
X216947Y339955D02*X217442Y340450D01*
X216947Y336985D02*Y339955D01*
Y336985D02*X217442Y336490D01*
X218432D01*
X218927Y336985D01*
Y339955D01*
X218432Y340450D02*X218927Y339955D01*
X217442Y340450D02*X218432D01*
X216947Y339460D02*X218927Y337480D01*
X220611Y340450D02*X221601D01*
X221106Y336490D02*Y340450D01*
X220116Y337480D02*X221106Y336490D01*
X222790Y339955D02*X223285Y340450D01*
X222790Y336985D02*Y339955D01*
Y336985D02*X223285Y336490D01*
X224275D01*
X224770Y336985D01*
Y339955D01*
X224275Y340450D02*X224770Y339955D01*
X223285Y340450D02*X224275D01*
X222790Y339460D02*X224770Y337480D01*
X225959Y340450D02*X226454D01*
X227643Y339955D02*X228138Y340450D01*
X227643Y336985D02*Y339955D01*
Y336985D02*X228138Y336490D01*
X229128D01*
X229623Y336985D01*
Y339955D01*
X229128Y340450D02*X229623Y339955D01*
X228138Y340450D02*X229128D01*
X227643Y339460D02*X229623Y337480D01*
X230812Y336490D02*X232792D01*
X230812D02*Y338470D01*
X231307Y337975D01*
X232297D01*
X232792Y338470D01*
Y339955D01*
X232297Y340450D02*X232792Y339955D01*
X231307Y340450D02*X232297D01*
X230812Y339955D02*X231307Y340450D01*
X233981D02*X234476D01*
X236160D02*X237150D01*
X236655Y336490D02*Y340450D01*
X235665Y337480D02*X236655Y336490D01*
X238834Y340450D02*X239824D01*
X239329Y336490D02*Y340450D01*
X238339Y337480D02*X239329Y336490D01*
X109995Y351990D02*Y355950D01*
X109500Y351990D02*X111480D01*
X111975Y352485D01*
Y353475D01*
X111480Y353970D02*X111975Y353475D01*
X109995Y353970D02*X111480D01*
X113658Y355950D02*X115143D01*
X113163Y355455D02*X113658Y355950D01*
X113163Y352485D02*Y355455D01*
Y352485D02*X113658Y351990D01*
X115143D01*
X116332Y355950D02*X118312D01*
X118807Y355455D01*
Y354465D02*Y355455D01*
X118312Y353970D02*X118807Y354465D01*
X116827Y353970D02*X118312D01*
X116827Y351990D02*Y355950D01*
X116332Y351990D02*X118312D01*
X118807Y352485D01*
Y353475D01*
X118312Y353970D02*X118807Y353475D01*
X121778Y353970D02*X123263D01*
X121778Y355950D02*X123758D01*
X121778Y351990D02*Y355950D01*
Y351990D02*X123758D01*
X124947Y353970D02*X126432D01*
X124947Y355950D02*X126927D01*
X124947Y351990D02*Y355950D01*
Y351990D02*X126927D01*
X128116D02*Y355950D01*
Y351990D02*X130096D01*
X128116Y353970D02*X129601D01*
X107802Y343683D02*Y347643D01*
X109287Y343683D02*X109782Y344178D01*
Y347148D01*
X109287Y347643D02*X109782Y347148D01*
X107307Y347643D02*X109287D01*
X107307Y343683D02*X109287D01*
X111465Y347643D02*X112950D01*
X110970Y347148D02*X111465Y347643D01*
X110970Y346158D02*Y347148D01*
Y346158D02*X111465Y345663D01*
X112455D01*
X112950Y346158D01*
X110970Y346653D02*X112950D01*
Y346158D02*Y346653D01*
X114634Y347643D02*X116119D01*
X116614Y347148D01*
X116119Y346653D02*X116614Y347148D01*
X114634Y346653D02*X116119D01*
X114139Y346158D02*X114634Y346653D01*
X114139Y346158D02*X114634Y345663D01*
X116119D01*
X116614Y346158D01*
X114139Y347148D02*X114634Y347643D01*
X117803Y344673D02*Y345168D01*
Y346158D02*Y347643D01*
X120279Y345663D02*X120774Y346158D01*
X119289Y345663D02*X120279D01*
X118794Y346158D02*X119289Y345663D01*
X118794Y346158D02*Y347148D01*
X119289Y347643D01*
X120279D01*
X120774Y347148D01*
X118794Y348633D02*X119289Y349128D01*
X120279D01*
X120774Y348633D01*
Y345663D02*Y348633D01*
X122458Y346158D02*Y347643D01*
Y346158D02*X122953Y345663D01*
X123448D01*
X123943Y346158D01*
Y347643D01*
X121963Y345663D02*X122458Y346158D01*
X126914Y343683D02*X127904D01*
X127409D02*Y347643D01*
X126914D02*X127904D01*
X129093Y343683D02*X130578D01*
Y347148D01*
X130083Y347643D02*X130578Y347148D01*
X129588Y347643D02*X130083D01*
X129093Y347148D02*X129588Y347643D01*
X133747Y343683D02*X134242Y344178D01*
X132262Y343683D02*X133747D01*
X131767Y344178D02*X132262Y343683D01*
X131767Y344178D02*Y345168D01*
X132262Y345663D01*
X133747D01*
X134242Y346158D01*
Y347148D01*
X133747Y347643D02*X134242Y347148D01*
X132262Y347643D02*X133747D01*
X131767Y347148D02*X132262Y347643D01*
X101500Y338470D02*X102985D01*
X101500Y340450D02*X103480D01*
X101500Y336490D02*Y340450D01*
Y336490D02*X103480D01*
X105163D02*Y340450D01*
X104668Y336490D02*X106648D01*
X107143Y336985D01*
Y337975D01*
X106648Y338470D02*X107143Y337975D01*
X105163Y338470D02*X106648D01*
X108332Y336490D02*Y340450D01*
X110312D01*
X113283Y336985D02*X113778Y336490D01*
X115263D01*
X115758Y336985D01*
Y337975D01*
X113283Y340450D02*X115758Y337975D01*
X113283Y340450D02*X115758D01*
X116947Y339955D02*X117442Y340450D01*
X116947Y336985D02*Y339955D01*
Y336985D02*X117442Y336490D01*
X118432D01*
X118927Y336985D01*
Y339955D01*
X118432Y340450D02*X118927Y339955D01*
X117442Y340450D02*X118432D01*
X116947Y339460D02*X118927Y337480D01*
X120611Y340450D02*X121601D01*
X121106Y336490D02*Y340450D01*
X120116Y337480D02*X121106Y336490D01*
X122790Y339955D02*X123285Y340450D01*
X122790Y336985D02*Y339955D01*
Y336985D02*X123285Y336490D01*
X124275D01*
X124770Y336985D01*
Y339955D01*
X124275Y340450D02*X124770Y339955D01*
X123285Y340450D02*X124275D01*
X122790Y339460D02*X124770Y337480D01*
X125959Y340450D02*X126454D01*
X127643Y339955D02*X128138Y340450D01*
X127643Y336985D02*Y339955D01*
Y336985D02*X128138Y336490D01*
X129128D01*
X129623Y336985D01*
Y339955D01*
X129128Y340450D02*X129623Y339955D01*
X128138Y340450D02*X129128D01*
X127643Y339460D02*X129623Y337480D01*
X130812Y336490D02*X132792D01*
X130812D02*Y338470D01*
X131307Y337975D01*
X132297D01*
X132792Y338470D01*
Y339955D01*
X132297Y340450D02*X132792Y339955D01*
X131307Y340450D02*X132297D01*
X130812Y339955D02*X131307Y340450D01*
X133981D02*X134476D01*
X136160D02*X137150D01*
X136655Y336490D02*Y340450D01*
X135665Y337480D02*X136655Y336490D01*
X138834Y340450D02*X139824D01*
X139329Y336490D02*Y340450D01*
X138339Y337480D02*X139329Y336490D01*
X109000Y330470D02*X110485D01*
X109000Y332450D02*X110980D01*
X109000Y328490D02*Y332450D01*
Y328490D02*X110980D01*
X114148Y330965D02*Y333935D01*
X113653Y330470D02*X114148Y330965D01*
X112663Y330470D02*X113653D01*
X112168Y330965D02*X112663Y330470D01*
X112168Y330965D02*Y331955D01*
X112663Y332450D01*
X113653D01*
X114148Y331955D01*
X115337Y330470D02*Y331955D01*
X115832Y332450D01*
X116822D01*
X117317Y331955D01*
Y330470D02*Y331955D01*
X118506Y329480D02*Y329975D01*
Y330965D02*Y332450D01*
X119497Y328490D02*Y331955D01*
X119992Y332450D01*
X120983Y329480D02*Y329975D01*
Y330965D02*Y332450D01*
X121974Y330470D02*X123954D01*
X121974Y332450D02*X123954Y330470D01*
X121974Y332450D02*X123954D01*
X125638D02*X127123D01*
X125143Y331955D02*X125638Y332450D01*
X125143Y330965D02*Y331955D01*
Y330965D02*X125638Y330470D01*
X126628D01*
X127123Y330965D01*
X125143Y331460D02*X127123D01*
Y330965D02*Y331460D01*
X128807Y330965D02*Y332450D01*
Y330965D02*X129302Y330470D01*
X130292D01*
X128312D02*X128807Y330965D01*
X209000Y330470D02*X210485D01*
X209000Y332450D02*X210980D01*
X209000Y328490D02*Y332450D01*
Y328490D02*X210980D01*
X214148Y330965D02*Y333935D01*
X213653Y330470D02*X214148Y330965D01*
X212663Y330470D02*X213653D01*
X212168Y330965D02*X212663Y330470D01*
X212168Y330965D02*Y331955D01*
X212663Y332450D01*
X213653D01*
X214148Y331955D01*
X215337Y330470D02*Y331955D01*
X215832Y332450D01*
X216822D01*
X217317Y331955D01*
Y330470D02*Y331955D01*
X218506Y329480D02*Y329975D01*
Y330965D02*Y332450D01*
X219497Y328490D02*Y331955D01*
X219992Y332450D01*
X220983Y329480D02*Y329975D01*
Y330965D02*Y332450D01*
X221974Y330470D02*X223954D01*
X221974Y332450D02*X223954Y330470D01*
X221974Y332450D02*X223954D01*
X225638D02*X227123D01*
X225143Y331955D02*X225638Y332450D01*
X225143Y330965D02*Y331955D01*
Y330965D02*X225638Y330470D01*
X226628D01*
X227123Y330965D01*
X225143Y331460D02*X227123D01*
Y330965D02*Y331460D01*
X228807Y330965D02*Y332450D01*
Y330965D02*X229302Y330470D01*
X230292D01*
X228312D02*X228807Y330965D01*
G54D15*X139000Y364000D03*
X107000Y392000D03*
X117000D03*
X207000D03*
X217000D03*
G54D16*G36*
X140000Y293500D02*Y287500D01*
X146000D01*
Y293500D01*
X140000D01*
G37*
G54D17*X133000Y290500D03*
G54D16*G36*
X103000Y294000D02*Y287000D01*
X110000D01*
Y294000D01*
X103000D01*
G37*
G54D18*X96500Y290500D03*
G54D16*G36*
X135000Y308000D02*Y300000D01*
X143000D01*
Y308000D01*
X135000D01*
G37*
G54D19*X97000Y416000D03*
X137000D03*
X197000D03*
X237000D03*
G54D16*G36*
X240000Y293500D02*Y287500D01*
X246000D01*
Y293500D01*
X240000D01*
G37*
G36*
X235000Y308000D02*Y300000D01*
X243000D01*
Y308000D01*
X235000D01*
G37*
G54D15*X239000Y364000D03*
G54D17*X233000Y290500D03*
G54D16*G36*
X203000Y294000D02*Y287000D01*
X210000D01*
Y294000D01*
X203000D01*
G37*
G54D18*X196500Y290500D03*
G54D17*X200500Y323900D03*
X217500Y317500D03*
X200500Y348193D03*
X100500Y323900D03*
X117500Y317500D03*
X100500Y348193D03*
X118807Y366500D03*
X218807D03*
G54D22*G54D23*G54D24*G54D22*G54D25*G54D24*G54D22*G54D24*G54D12*M02*
