G04 start of page 7 for group -4062 idx -4062 *
G04 Title: (unknown), soldermask *
G04 Creator: pcb 20110918 *
G04 CreationDate: Thu Mar  7 19:55:58 2013 UTC *
G04 For: fosse *
G04 Format: Gerber/RS-274X *
G04 PCB-Dimensions: 200000 200000 *
G04 PCB-Coordinate-Origin: lower left *
%MOIN*%
%FSLAX25Y25*%
%LNBOTTOMMASK*%
%ADD54C,0.0860*%
%ADD53C,0.0660*%
%ADD52C,0.0760*%
%ADD51C,0.0001*%
%ADD50C,0.2060*%
G54D50*X31000Y156860D03*
X71000D03*
X131000D03*
X171000D03*
G54D51*G36*
X67700Y51660D02*Y43060D01*
X76300D01*
Y51660D01*
X67700D01*
G37*
G36*
X35700Y37660D02*Y30060D01*
X43300D01*
Y37660D01*
X35700D01*
G37*
G54D52*X29500Y33860D03*
G54D51*G36*
X72700Y37160D02*Y30560D01*
X79300D01*
Y37160D01*
X72700D01*
G37*
G54D53*X66000Y33860D03*
G54D54*X72000Y107360D03*
X41000Y136860D03*
X51000D03*
G54D51*G36*
X167700Y51660D02*Y43060D01*
X176300D01*
Y51660D01*
X167700D01*
G37*
G36*
X172700Y37160D02*Y30560D01*
X179300D01*
Y37160D01*
X172700D01*
G37*
G54D53*X166000Y33860D03*
G54D54*X172000Y107360D03*
X141000Y136860D03*
X151000D03*
G54D51*G36*
X135700Y37660D02*Y30060D01*
X143300D01*
Y37660D01*
X135700D01*
G37*
G54D52*X129500Y33860D03*
M02*
