G04 start of page 7 for group -4062 idx -4062 *
G04 Title: (unknown), soldermask *
G04 Creator: pcb 20110918 *
G04 CreationDate: Thu Mar  7 18:25:08 2013 UTC *
G04 For: fosse *
G04 Format: Gerber/RS-274X *
G04 PCB-Dimensions: 200000 200000 *
G04 PCB-Coordinate-Origin: lower left *
%MOIN*%
%FSLAX25Y25*%
%LNBOTTOMMASK*%
%ADD54C,0.2060*%
%ADD53C,0.0760*%
%ADD52C,0.0660*%
%ADD51C,0.0001*%
%ADD50C,0.0860*%
G54D50*X56500Y118500D03*
X24500Y146500D03*
X34500D03*
X124500D03*
X134500D03*
G54D51*G36*
X57200Y48300D02*Y41700D01*
X63800D01*
Y48300D01*
X57200D01*
G37*
G54D52*X50500Y45000D03*
G54D51*G36*
X20200Y48800D02*Y41200D01*
X27800D01*
Y48800D01*
X20200D01*
G37*
G54D53*X14000Y45000D03*
G54D51*G36*
X52200Y62800D02*Y54200D01*
X60800D01*
Y62800D01*
X52200D01*
G37*
G54D54*X14500Y170500D03*
X54500D03*
X114500D03*
X154500D03*
G54D51*G36*
X157200Y48300D02*Y41700D01*
X163800D01*
Y48300D01*
X157200D01*
G37*
G36*
X152200Y62800D02*Y54200D01*
X160800D01*
Y62800D01*
X152200D01*
G37*
G54D50*X156500Y118500D03*
G54D52*X150500Y45000D03*
G54D51*G36*
X120200Y48800D02*Y41200D01*
X127800D01*
Y48800D01*
X120200D01*
G37*
G54D53*X114000Y45000D03*
M02*
