G04 start of page 3 for group 1 idx 1 *
G04 Title: (unknown), solder *
G04 Creator: pcb 20110918 *
G04 CreationDate: Thu Mar  7 18:25:08 2013 UTC *
G04 For: fosse *
G04 Format: Gerber/RS-274X *
G04 PCB-Dimensions: 200000 200000 *
G04 PCB-Coordinate-Origin: lower left *
%MOIN*%
%FSLAX25Y25*%
%LNBOTTOM*%
%ADD37C,0.0860*%
%ADD36C,0.0380*%
%ADD35C,0.0520*%
%ADD34C,0.0350*%
%ADD33C,0.2000*%
%ADD32C,0.0700*%
%ADD31C,0.0600*%
%ADD30C,0.0001*%
%ADD29C,0.0800*%
%ADD28C,0.0070*%
%ADD27C,0.0250*%
%ADD26C,0.0100*%
%ADD25C,0.0400*%
G54D25*X165000Y160000D02*X154500Y170500D01*
X165000Y49500D02*Y160000D01*
G54D26*X169990Y29010D02*Y198350D01*
G54D25*X65000Y160000D02*X54500Y170500D01*
X65000Y49500D02*Y160000D01*
G54D27*X50500Y45000D02*X60500D01*
G54D25*X18000Y102693D02*Y102500D01*
X60500Y45000D02*X65000Y49500D01*
G54D26*X1500Y198360D02*Y29010D01*
G54D27*X150500Y45000D02*X160500D01*
G54D26*X1500Y29010D02*X169990D01*
G54D25*X118000Y102693D02*Y102500D01*
X160500Y45000D02*X165000Y49500D01*
G54D26*X169990Y198360D02*X1500D01*
G54D28*X127495Y106490D02*Y110450D01*
X127000Y106490D02*X128980D01*
X129475Y106985D01*
Y107975D01*
X128980Y108470D02*X129475Y107975D01*
X127495Y108470D02*X128980D01*
X131158Y110450D02*X132643D01*
X130663Y109955D02*X131158Y110450D01*
X130663Y106985D02*Y109955D01*
Y106985D02*X131158Y106490D01*
X132643D01*
X133831Y110450D02*X135811D01*
X136306Y109955D01*
Y108965D02*Y109955D01*
X135811Y108470D02*X136306Y108965D01*
X134326Y108470D02*X135811D01*
X134326Y106490D02*Y110450D01*
X133831Y106490D02*X135811D01*
X136306Y106985D01*
Y107975D01*
X135811Y108470D02*X136306Y107975D01*
X139276Y108470D02*X140761D01*
X139276Y110450D02*X141256D01*
X139276Y106490D02*Y110450D01*
Y106490D02*X141256D01*
X142444Y108470D02*X143929D01*
X142444Y110450D02*X144424D01*
X142444Y106490D02*Y110450D01*
Y106490D02*X144424D01*
X145612D02*Y110450D01*
Y106490D02*X147592D01*
X145612Y108470D02*X147097D01*
X125302Y98183D02*Y102143D01*
X126787Y98183D02*X127282Y98678D01*
Y101648D01*
X126787Y102143D02*X127282Y101648D01*
X124807Y102143D02*X126787D01*
X124807Y98183D02*X126787D01*
X128965Y102143D02*X130450D01*
X128470Y101648D02*X128965Y102143D01*
X128470Y100658D02*Y101648D01*
Y100658D02*X128965Y100163D01*
X129955D01*
X130450Y100658D01*
X128470Y101153D02*X130450D01*
Y100658D02*Y101153D01*
X132133Y102143D02*X133618D01*
X134113Y101648D01*
X133618Y101153D02*X134113Y101648D01*
X132133Y101153D02*X133618D01*
X131638Y100658D02*X132133Y101153D01*
X131638Y100658D02*X132133Y100163D01*
X133618D01*
X134113Y100658D01*
X131638Y101648D02*X132133Y102143D01*
X135301Y99173D02*Y99668D01*
Y100658D02*Y102143D01*
X137776Y100163D02*X138271Y100658D01*
X136786Y100163D02*X137776D01*
X136291Y100658D02*X136786Y100163D01*
X136291Y100658D02*Y101648D01*
X136786Y102143D01*
X137776D01*
X138271Y101648D01*
X136291Y103133D02*X136786Y103628D01*
X137776D01*
X138271Y103133D01*
Y100163D02*Y103133D01*
X139954Y100658D02*Y102143D01*
Y100658D02*X140449Y100163D01*
X140944D01*
X141439Y100658D01*
Y102143D01*
X139459Y100163D02*X139954Y100658D01*
X144409Y98183D02*X145399D01*
X144904D02*Y102143D01*
X144409D02*X145399D01*
X146587Y98183D02*X148072D01*
Y101648D01*
X147577Y102143D02*X148072Y101648D01*
X147082Y102143D02*X147577D01*
X146587Y101648D02*X147082Y102143D01*
X151240Y98183D02*X151735Y98678D01*
X149755Y98183D02*X151240D01*
X149260Y98678D02*X149755Y98183D01*
X149260Y98678D02*Y99668D01*
X149755Y100163D01*
X151240D01*
X151735Y100658D01*
Y101648D01*
X151240Y102143D02*X151735Y101648D01*
X149755Y102143D02*X151240D01*
X149260Y101648D02*X149755Y102143D01*
X119000Y92970D02*X120485D01*
X119000Y94950D02*X120980D01*
X119000Y90990D02*Y94950D01*
Y90990D02*X120980D01*
X122663D02*Y94950D01*
X122168Y90990D02*X124148D01*
X124643Y91485D01*
Y92475D01*
X124148Y92970D02*X124643Y92475D01*
X122663Y92970D02*X124148D01*
X125831Y90990D02*Y94950D01*
X127811D01*
X130781Y91485D02*X131276Y90990D01*
X132761D01*
X133256Y91485D01*
Y92475D01*
X130781Y94950D02*X133256Y92475D01*
X130781Y94950D02*X133256D01*
X134444Y94455D02*X134939Y94950D01*
X134444Y91485D02*Y94455D01*
Y91485D02*X134939Y90990D01*
X135929D01*
X136424Y91485D01*
Y94455D01*
X135929Y94950D02*X136424Y94455D01*
X134939Y94950D02*X135929D01*
X134444Y93960D02*X136424Y91980D01*
X138107Y94950D02*X139097D01*
X138602Y90990D02*Y94950D01*
X137612Y91980D02*X138602Y90990D01*
X140285Y94455D02*X140780Y94950D01*
X140285Y91485D02*Y94455D01*
Y91485D02*X140780Y90990D01*
X141770D01*
X142265Y91485D01*
Y94455D01*
X141770Y94950D02*X142265Y94455D01*
X140780Y94950D02*X141770D01*
X140285Y93960D02*X142265Y91980D01*
X143453Y94950D02*X143948D01*
X145136Y94455D02*X145631Y94950D01*
X145136Y91485D02*Y94455D01*
Y91485D02*X145631Y90990D01*
X146621D01*
X147116Y91485D01*
Y94455D01*
X146621Y94950D02*X147116Y94455D01*
X145631Y94950D02*X146621D01*
X145136Y93960D02*X147116Y91980D01*
X148304Y90990D02*X150284D01*
X148304D02*Y92970D01*
X148799Y92475D01*
X149789D01*
X150284Y92970D01*
Y94455D01*
X149789Y94950D02*X150284Y94455D01*
X148799Y94950D02*X149789D01*
X148304Y94455D02*X148799Y94950D01*
X151472D02*X151967D01*
X153650D02*X154640D01*
X154145Y90990D02*Y94950D01*
X153155Y91980D02*X154145Y90990D01*
X156323Y94950D02*X157313D01*
X156818Y90990D02*Y94950D01*
X155828Y91980D02*X156818Y90990D01*
X27495Y106490D02*Y110450D01*
X27000Y106490D02*X28980D01*
X29475Y106985D01*
Y107975D01*
X28980Y108470D02*X29475Y107975D01*
X27495Y108470D02*X28980D01*
X31158Y110450D02*X32643D01*
X30663Y109955D02*X31158Y110450D01*
X30663Y106985D02*Y109955D01*
Y106985D02*X31158Y106490D01*
X32643D01*
X33831Y110450D02*X35811D01*
X36306Y109955D01*
Y108965D02*Y109955D01*
X35811Y108470D02*X36306Y108965D01*
X34326Y108470D02*X35811D01*
X34326Y106490D02*Y110450D01*
X33831Y106490D02*X35811D01*
X36306Y106985D01*
Y107975D01*
X35811Y108470D02*X36306Y107975D01*
X39276Y108470D02*X40761D01*
X39276Y110450D02*X41256D01*
X39276Y106490D02*Y110450D01*
Y106490D02*X41256D01*
X42444Y108470D02*X43929D01*
X42444Y110450D02*X44424D01*
X42444Y106490D02*Y110450D01*
Y106490D02*X44424D01*
X45612D02*Y110450D01*
Y106490D02*X47592D01*
X45612Y108470D02*X47097D01*
X25302Y98183D02*Y102143D01*
X26787Y98183D02*X27282Y98678D01*
Y101648D01*
X26787Y102143D02*X27282Y101648D01*
X24807Y102143D02*X26787D01*
X24807Y98183D02*X26787D01*
X28965Y102143D02*X30450D01*
X28470Y101648D02*X28965Y102143D01*
X28470Y100658D02*Y101648D01*
Y100658D02*X28965Y100163D01*
X29955D01*
X30450Y100658D01*
X28470Y101153D02*X30450D01*
Y100658D02*Y101153D01*
X32133Y102143D02*X33618D01*
X34113Y101648D01*
X33618Y101153D02*X34113Y101648D01*
X32133Y101153D02*X33618D01*
X31638Y100658D02*X32133Y101153D01*
X31638Y100658D02*X32133Y100163D01*
X33618D01*
X34113Y100658D01*
X31638Y101648D02*X32133Y102143D01*
X35301Y99173D02*Y99668D01*
Y100658D02*Y102143D01*
X37776Y100163D02*X38271Y100658D01*
X36786Y100163D02*X37776D01*
X36291Y100658D02*X36786Y100163D01*
X36291Y100658D02*Y101648D01*
X36786Y102143D01*
X37776D01*
X38271Y101648D01*
X36291Y103133D02*X36786Y103628D01*
X37776D01*
X38271Y103133D01*
Y100163D02*Y103133D01*
X39954Y100658D02*Y102143D01*
Y100658D02*X40449Y100163D01*
X40944D01*
X41439Y100658D01*
Y102143D01*
X39459Y100163D02*X39954Y100658D01*
X44409Y98183D02*X45399D01*
X44904D02*Y102143D01*
X44409D02*X45399D01*
X46587Y98183D02*X48072D01*
Y101648D01*
X47577Y102143D02*X48072Y101648D01*
X47082Y102143D02*X47577D01*
X46587Y101648D02*X47082Y102143D01*
X51240Y98183D02*X51735Y98678D01*
X49755Y98183D02*X51240D01*
X49260Y98678D02*X49755Y98183D01*
X49260Y98678D02*Y99668D01*
X49755Y100163D01*
X51240D01*
X51735Y100658D01*
Y101648D01*
X51240Y102143D02*X51735Y101648D01*
X49755Y102143D02*X51240D01*
X49260Y101648D02*X49755Y102143D01*
X19000Y92970D02*X20485D01*
X19000Y94950D02*X20980D01*
X19000Y90990D02*Y94950D01*
Y90990D02*X20980D01*
X22663D02*Y94950D01*
X22168Y90990D02*X24148D01*
X24643Y91485D01*
Y92475D01*
X24148Y92970D02*X24643Y92475D01*
X22663Y92970D02*X24148D01*
X25831Y90990D02*Y94950D01*
X27811D01*
X30781Y91485D02*X31276Y90990D01*
X32761D01*
X33256Y91485D01*
Y92475D01*
X30781Y94950D02*X33256Y92475D01*
X30781Y94950D02*X33256D01*
X34444Y94455D02*X34939Y94950D01*
X34444Y91485D02*Y94455D01*
Y91485D02*X34939Y90990D01*
X35929D01*
X36424Y91485D01*
Y94455D01*
X35929Y94950D02*X36424Y94455D01*
X34939Y94950D02*X35929D01*
X34444Y93960D02*X36424Y91980D01*
X38107Y94950D02*X39097D01*
X38602Y90990D02*Y94950D01*
X37612Y91980D02*X38602Y90990D01*
X40285Y94455D02*X40780Y94950D01*
X40285Y91485D02*Y94455D01*
Y91485D02*X40780Y90990D01*
X41770D01*
X42265Y91485D01*
Y94455D01*
X41770Y94950D02*X42265Y94455D01*
X40780Y94950D02*X41770D01*
X40285Y93960D02*X42265Y91980D01*
X43453Y94950D02*X43948D01*
X45136Y94455D02*X45631Y94950D01*
X45136Y91485D02*Y94455D01*
Y91485D02*X45631Y90990D01*
X46621D01*
X47116Y91485D01*
Y94455D01*
X46621Y94950D02*X47116Y94455D01*
X45631Y94950D02*X46621D01*
X45136Y93960D02*X47116Y91980D01*
X48304Y90990D02*X50284D01*
X48304D02*Y92970D01*
X48799Y92475D01*
X49789D01*
X50284Y92970D01*
Y94455D01*
X49789Y94950D02*X50284Y94455D01*
X48799Y94950D02*X49789D01*
X48304Y94455D02*X48799Y94950D01*
X51472D02*X51967D01*
X53650D02*X54640D01*
X54145Y90990D02*Y94950D01*
X53155Y91980D02*X54145Y90990D01*
X56323Y94950D02*X57313D01*
X56818Y90990D02*Y94950D01*
X55828Y91980D02*X56818Y90990D01*
X26500Y84970D02*X27985D01*
X26500Y86950D02*X28480D01*
X26500Y82990D02*Y86950D01*
Y82990D02*X28480D01*
X31648Y85465D02*Y88435D01*
X31153Y84970D02*X31648Y85465D01*
X30163Y84970D02*X31153D01*
X29668Y85465D02*X30163Y84970D01*
X29668Y85465D02*Y86455D01*
X30163Y86950D01*
X31153D01*
X31648Y86455D01*
X32836Y84970D02*Y86455D01*
X33331Y86950D01*
X34321D01*
X34816Y86455D01*
Y84970D02*Y86455D01*
X36004Y83980D02*Y84475D01*
Y85465D02*Y86950D01*
X36994Y82990D02*Y86455D01*
X37489Y86950D01*
X38479Y83980D02*Y84475D01*
Y85465D02*Y86950D01*
X39469Y84970D02*X41449D01*
X39469Y86950D02*X41449Y84970D01*
X39469Y86950D02*X41449D01*
X43132D02*X44617D01*
X42637Y86455D02*X43132Y86950D01*
X42637Y85465D02*Y86455D01*
Y85465D02*X43132Y84970D01*
X44122D01*
X44617Y85465D01*
X42637Y85960D02*X44617D01*
Y85465D02*Y85960D01*
X46300Y85465D02*Y86950D01*
Y85465D02*X46795Y84970D01*
X47785D01*
X45805D02*X46300Y85465D01*
X126500Y84970D02*X127985D01*
X126500Y86950D02*X128480D01*
X126500Y82990D02*Y86950D01*
Y82990D02*X128480D01*
X131648Y85465D02*Y88435D01*
X131153Y84970D02*X131648Y85465D01*
X130163Y84970D02*X131153D01*
X129668Y85465D02*X130163Y84970D01*
X129668Y85465D02*Y86455D01*
X130163Y86950D01*
X131153D01*
X131648Y86455D01*
X132836Y84970D02*Y86455D01*
X133331Y86950D01*
X134321D01*
X134816Y86455D01*
Y84970D02*Y86455D01*
X136004Y83980D02*Y84475D01*
Y85465D02*Y86950D01*
X136994Y82990D02*Y86455D01*
X137489Y86950D01*
X138479Y83980D02*Y84475D01*
Y85465D02*Y86950D01*
X139469Y84970D02*X141449D01*
X139469Y86950D02*X141449Y84970D01*
X139469Y86950D02*X141449D01*
X143132D02*X144617D01*
X142637Y86455D02*X143132Y86950D01*
X142637Y85465D02*Y86455D01*
Y85465D02*X143132Y84970D01*
X144122D01*
X144617Y85465D01*
X142637Y85960D02*X144617D01*
Y85465D02*Y85960D01*
X146300Y85465D02*Y86950D01*
Y85465D02*X146795Y84970D01*
X147785D01*
X145805D02*X146300Y85465D01*
G54D29*X56500Y118500D03*
X24500Y146500D03*
X34500D03*
X124500D03*
X134500D03*
G54D30*G36*
X57500Y48000D02*Y42000D01*
X63500D01*
Y48000D01*
X57500D01*
G37*
G54D31*X50500Y45000D03*
G54D30*G36*
X20500Y48500D02*Y41500D01*
X27500D01*
Y48500D01*
X20500D01*
G37*
G54D32*X14000Y45000D03*
G54D30*G36*
X52500Y62500D02*Y54500D01*
X60500D01*
Y62500D01*
X52500D01*
G37*
G54D33*X14500Y170500D03*
X54500D03*
X114500D03*
X154500D03*
G54D30*G36*
X157500Y48000D02*Y42000D01*
X163500D01*
Y48000D01*
X157500D01*
G37*
G36*
X152500Y62500D02*Y54500D01*
X160500D01*
Y62500D01*
X152500D01*
G37*
G54D29*X156500Y118500D03*
G54D31*X150500Y45000D03*
G54D30*G36*
X120500Y48500D02*Y41500D01*
X127500D01*
Y48500D01*
X120500D01*
G37*
G54D32*X114000Y45000D03*
G54D31*X118000Y78400D03*
X135000Y72000D03*
X118000Y102693D03*
X18000Y78400D03*
X35000Y72000D03*
X18000Y102693D03*
X36307Y121000D03*
X136307D03*
G54D34*G54D35*G54D34*G54D36*G54D35*G54D37*G54D36*G54D35*G54D36*M02*
